<?xml version="1.0" standalone="no"?>
<!DOCTYPE svg PUBLIC "-//W3C//DTD SVG 1.1//EN" "http://www.w3.org/Graphics/SVG/1.1/DTD/svg11.dtd" >
<svg xmlns="http://www.w3.org/2000/svg">
<metadata></metadata>
<defs>
<font id="caveatregular" horiz-adv-x="450" >
<font-face units-per-em="1000" ascent="800" descent="-200" />
<missing-glyph horiz-adv-x="242" />
<glyph unicode="&#xfb00;" horiz-adv-x="500" d="M363 558v-4q-5 1 -35.5 -36.5t-41.5 -57t-17.5 -36.5t-16.5 -44q-23 -63 -27 -74l16 -2q12 -2 128 16l6 11q36 100 45 120q11 36 11 41q11 50 6 69.5t-31 19.5q-9 1 -26 -7.5t-17 -15.5zM350 29l-8 -98q-3 -30 -10 -37q-9 -6 -35 24q-8 9 -9.5 17t1.5 34q5 15 5 42 q0 33 14.5 91.5t18.5 86.5q12 43 17 71q-23 0 -79 -7.5t-59 -10.5q-6 -3 -17.5 -35.5t-17.5 -66.5q-11 -44 -13 -94.5t5 -71.5q13 -50 -11 -59q-20 -2 -34 28.5t-14 78.5q-8 76 40 247q14 50 50 134t44 91q4 -1 5 1.5t1 5.5t3.5 9.5t9.5 17t10 18.5q20 29 50 55q48 42 78 42 t54.5 -21t35.5 -48q31 39 72 72q37 19 59 19t30 -3q10 -3 25 -18q13 -15 15.5 -20t2.5 -19q-4 -21 -20 -54t-24 -34q-12 -4 -17.5 2.5t-5.5 21.5l-7 20q0 15 7 25q5 10 2 15t-13 2q-9 -5 -44.5 -35.5t-35.5 -36.5q-5 -13 -19 -30q-18 -25 -18 -34.5t-6 -9.5q-4 -14 -14 -32 q-9 -24 -20 -35h1q-19 -50 -18.5 -55t30 -2t51.5 9t42 1q11 -7 18 -23t3 -22q-4 -11 -107 -30q-66 -13 -66 -17q-10 0 -10 -13t-4.5 -24t-17 -61.5t-12.5 -62.5q-8 -10 -8 -36q-6 -11 -6 -25z" />
<glyph unicode="&#xfb01;" horiz-adv-x="459" d="M437 316q5 7 16 3.5t19.5 -13t6 -31t-22.5 -92t-18 -104.5q-6 -46 -9 -47q-17 -7 -30 15.5t-15 40.5q4 37 6 54q8 37 25.5 101.5t21.5 72.5zM473 490q9 13 18.5 13.5t29.5 -7.5q3 -3 7.5 -14t8 -19.5t4.5 -12.5t2.5 -11.5t0 -12.5t-3.5 -11q-4 -11 -14 -18t-22 1 q-10 1 -26.5 17.5t-17 24.5t1.5 22.5t11 27.5zM141 29l-8 -98q-3 -30 -10 -37q-9 -6 -35 24q-8 9 -9.5 17t1.5 34q5 15 5 42q0 33 14.5 91.5t18.5 86.5q19 63 19 82t14 27q1 8 15 33q42 117 60 149q18 50 29 63q7 17 38 50t55 53q37 19 59 19t29 -3q11 -3 26 -18 q13 -15 15.5 -20t2.5 -19q-4 -21 -20 -54t-24 -34q-12 -4 -17.5 2.5t-5.5 21.5l-7 20q0 15 7 25q5 10 2 15t-13 2q-9 -5 -44.5 -35.5t-35.5 -36.5q-5 -13 -19 -30q-18 -25 -18 -34.5t-6 -9.5q-4 -14 -14 -32q-9 -24 -20 -35h1q-19 -50 -18.5 -55t30 -2t51.5 9t42 1 q11 -7 14 -23.5t-2 -21.5q-5 -13 -97 -30q-67 -13 -67 -17q-10 0 -10 -13t-4.5 -24t-17 -61.5t-12.5 -62.5q-8 -10 -8 -36q-6 -11 -6 -25z" />
<glyph unicode="&#xfb02;" horiz-adv-x="460" d="M366 37q24 146 51 220q7 19 12 34q34 98 56 127q1 2 3 7.5t3 12.5t9 19q11 18 17 35q16 34 28 52q10 24 24 38l-1 1q7 12 24.5 12t20 -3.5t2.5 -24t-9 -30.5h1q-13 -31 -17.5 -36t-39.5 -77q-53 -110 -53 -122q-11 -24 -12 -26l-22 -79q-16 -43 -17 -48q-16 -44 -22 -123 l-1 -4q-3 -21 -10 -28t-21 -3q-25 8 -26 46zM141 29l-8 -98q-3 -30 -10 -37q-9 -6 -35 24q-8 9 -9.5 17t1.5 34q5 15 5 42q0 33 14.5 91.5t18.5 86.5q19 63 19 82t14 27q1 8 15 33q42 117 60 149q18 50 29 63q7 17 38 50t55 53q37 19 59 19t29 -3q11 -3 26 -18 q13 -15 15.5 -20t2.5 -19q-4 -21 -20 -54t-24 -34q-12 -4 -17.5 2.5t-5.5 21.5l-7 20q0 15 7 25q5 10 2 15t-13 2q-9 -5 -44.5 -35.5t-35.5 -36.5q-5 -13 -19 -30q-18 -25 -18 -34.5t-6 -9.5q-4 -14 -14 -32q-9 -24 -20 -35h1q-19 -50 -18.5 -55t30 -2t51.5 9t42 1 q11 -7 18 -23t3 -22q-4 -11 -106 -30q-67 -13 -67 -17q-10 0 -10 -13t-4.5 -24t-17 -61.5t-12.5 -62.5q-8 -10 -8 -36q-6 -11 -6 -25z" />
<glyph unicode="&#xfb03;" horiz-adv-x="654" d="M682 490q9 13 18.5 13.5t29.5 -7.5q3 -3 7.5 -14t8 -19.5t4.5 -12.5t2.5 -11.5t0 -12.5t-3.5 -11q-4 -11 -14 -18t-22 1q-10 1 -26.5 17.5t-17 24.5t1.5 22.5t11 27.5zM646 316q5 7 16 3.5t19.5 -13t6 -31t-22.5 -92t-18 -104.5q-6 -46 -9 -47q-17 -7 -30 15.5t-15 40.5 q4 38 6 54q8 37 25.5 101.5t21.5 72.5zM363 558v-4q-5 1 -35.5 -36.5t-41.5 -57t-17.5 -36.5t-16.5 -44q-23 -63 -27 -74l16 -2q12 -2 128 16l6 11q36 100 45 120q11 36 11 41q11 50 6 69.5t-31 19.5q-9 1 -26 -7.5t-17 -15.5zM350 29l-8 -98q-3 -30 -10 -37q-9 -6 -35 24 q-8 9 -9.5 17t1.5 34q5 15 5 42q0 33 14.5 91.5t18.5 86.5q12 43 17 71q-23 0 -79 -7.5t-59 -10.5q-6 -3 -17.5 -35.5t-17.5 -66.5q-11 -44 -13 -94.5t5 -71.5q13 -50 -11 -59q-20 -2 -34 28.5t-14 78.5q-8 76 40 247q14 50 50 134t44 91q4 -1 5 1.5t1 5.5t3.5 9.5t9.5 17 t10 18.5q20 29 50 55q48 42 78 42t54.5 -21t35.5 -48q31 39 72 72q37 19 59 19t30 -3q10 -3 25 -18q13 -15 15.5 -20t2.5 -19q-4 -21 -20 -54t-24 -34q-12 -4 -17.5 2.5t-5.5 21.5l-7 20q0 15 7 25q5 10 2 15t-13 2q-9 -5 -44.5 -35.5t-35.5 -36.5q-5 -13 -19 -30 q-18 -25 -18 -34.5t-6 -9.5q-4 -14 -14 -32q-9 -24 -20 -35h1q-19 -50 -18.5 -55t30 -2t51.5 9t42 1q11 -7 18 -23t3 -22q-4 -11 -107 -30q-66 -13 -66 -17q-10 0 -10 -13t-4.5 -24t-17 -61.5t-12.5 -62.5q-8 -10 -8 -36q-6 -11 -6 -25z" />
<glyph unicode="&#xfb04;" horiz-adv-x="670" d="M363 558v-4q-5 1 -35.5 -36.5t-41.5 -57t-17.5 -36.5t-16.5 -44q-23 -63 -27 -74l16 -2q12 -2 128 16l6 11q36 100 45 120q11 36 11 41q11 50 6 69.5t-31 19.5q-9 1 -26 -7.5t-17 -15.5zM576 37q24 146 51 220q7 19 12 34q34 98 56 127q1 2 3 7.5t3 12.5t9 19 q11 18 17 35q16 34 28 52q10 24 24 38l-1 1q7 12 24.5 12t20 -3.5t2.5 -24t-9 -30.5h1q-13 -31 -17.5 -36t-39.5 -77q-53 -110 -53 -122q-11 -24 -12 -26l-22 -79q-16 -43 -17 -48q-16 -44 -22 -123l-1 -4q-3 -21 -10 -28t-21 -3q-25 8 -26 46zM350 29l-8 -98 q-3 -30 -10 -37q-9 -6 -35 24q-8 9 -9.5 17t1.5 34q5 15 5 42q0 33 14.5 91.5t18.5 86.5q12 43 17 71q-23 0 -79 -7.5t-59 -10.5q-6 -3 -17.5 -35.5t-17.5 -66.5q-11 -44 -13 -94.5t5 -71.5q13 -50 -11 -59q-20 -2 -34 28.5t-14 78.5q-8 76 40 247q14 50 50 134t44 91 q4 -1 5 1.5t1 5.5t3.5 9.5t9.5 17t10 18.5q20 29 50 55q48 42 78 42t54.5 -21t35.5 -48q31 39 72 72q37 19 59 19t30 -3q10 -3 25 -18q13 -15 15.5 -20t2.5 -19q-4 -21 -20 -54t-24 -34q-12 -4 -17.5 2.5t-5.5 21.5l-7 20q0 15 7 25q5 10 2 15t-13 2q-9 -5 -44.5 -35.5 t-35.5 -36.5q-5 -13 -19 -30q-18 -25 -18 -34.5t-6 -9.5q-4 -14 -14 -32q-9 -24 -20 -35h1q-19 -50 -18.5 -55t30 -2t51.5 9t42 1q11 -7 18 -23t3 -22q-4 -11 -107 -30q-66 -13 -66 -17q-10 0 -10 -13t-4.5 -24t-17 -61.5t-12.5 -62.5q-8 -10 -8 -36q-6 -11 -6 -25z" />
<glyph unicode="ft" horiz-adv-x="582" d="M141 29l-8 -98q-3 -30 -10 -37q-9 -6 -35 24q-8 9 -9.5 17t1.5 34q5 15 5 42q0 33 14.5 91.5t18.5 86.5q19 63 19 82t14 27q1 8 15 33q42 117 60 149q18 50 29 63q7 17 38 50t55 53q37 19 59 19t29 -3q11 -3 26 -18q13 -15 15.5 -20t2.5 -19q-4 -21 -20 -54t-24 -34 q-12 -4 -17.5 2.5t-5.5 21.5l-7 20q0 15 7 25q5 10 2 15t-13 2q-9 -5 -44.5 -35.5t-35.5 -36.5q-5 -13 -19 -30q-18 -25 -18 -34.5t-6 -9.5q-4 -14 -14 -32q-9 -24 -20 -35h1q-20 -61 -22 -69q10 1 41 6.5t47 7.5q109 13 155 33q13 32 33 73.5t27 49.5q17 9 25 7.5t18 -17.5 q11 -10 8 -23q-3 -11 -49 -99q12 -2 32 0q32 6 55 3q43 0 46 -37q2 -11 -4 -13t-78 -4.5t-73 -6.5q-10 -7 -34 -96q-12 -55 -13 -100t12 -62q9 -9 34.5 -4t47 23t34 8.5t-7.5 -37.5q-18 -28 -48.5 -43t-54 -8.5t-48.5 28.5q-18 24 -23.5 44.5t-5.5 50.5t8 65q17 85 26 111 q-9 8 -31 7t-65 -8t-72 -12q-67 -13 -67 -17q-10 0 -10 -13t-4.5 -24t-17 -61.5t-12.5 -62.5q-8 -10 -8 -36q-6 -11 -6 -25z" />
<glyph horiz-adv-x="0" />
<glyph unicode="&#xd;" horiz-adv-x="242" />
<glyph unicode=" "  horiz-adv-x="242" />
<glyph unicode="&#x09;" horiz-adv-x="242" />
<glyph unicode="&#xa0;" horiz-adv-x="242" />
<glyph unicode="!" horiz-adv-x="210" d="M237 464l13 35q18 30 52 113t36 98t17 12q5 4 16 4q5 -5 14.5 -15.5t9.5 -27t-2.5 -24.5t-4.5 -13.5t-7.5 -16t-8.5 -15.5q-4 -10 -20 -37q-29 -56 -29 -57.5t-13 -31.5q-31 -52 -31 -64q-5 -13 -8 -16q-5 0 -5 -8v-3q0 -14 -19 -53q-34 -97 -36.5 -129.5t-4 -36.5 t-9.5 -8q-19 -3 -29 10q-21 27 -3 105q14 28 14 42q12 43 34 84q4 0 8.5 7t4.5 22t11 24zM104 88q18 11 26.5 12t26.5 -7q30 -19 26.5 -42t-40.5 -41q-34 -14 -59 5q-36 35 20 73z" />
<glyph unicode="&#x22;" horiz-adv-x="237" d="M377 655q2 -1 9.5 -4.5t10.5 -5t8.5 -5.5t8.5 -7q12 -15 -12 -79q-6 -17 -8 -24q-9 -32 -51 -80q0 -4 -9.5 -6t-14.5 -4q-14 -1 -23 7q-2 9 23 48.5t30.5 55.5t8.5 28q7 28 6.5 43t2.5 25.5t10 7.5zM257 655q2 -1 9.5 -4.5t10.5 -5t8.5 -5.5t8.5 -7q12 -15 -12 -79 q-6 -17 -8 -24q-9 -32 -51 -80q0 -4 -9.5 -6t-14.5 -4q-14 -1 -23 7q-2 9 23 48.5t30.5 55.5t8.5 28q7 28 6.5 43t2.5 25.5t10 7.5z" />
<glyph unicode="#" horiz-adv-x="559" d="M283 272q-5 0 -5 -8v-3q0 -7 -6 -25l161 3q10 30 12 33q10 0 10 22t11 31l10 38q3 4 8 18q-98 -2 -158 -2q-38 -79 -38 -90.5t-5 -16.5zM246 325l10 38l7 15h-56q-20 0 -35 5q-21 0 -29 14q-11 15 -3 19q20 14 147 18q35 87 75 193.5t40 115.5q0 16 16 16q5 5 16 5 l16 -16q11 -10 11 -27t-1 -22.5t-2 -10t-5 -13.5t-7 -16t-12 -25.5t-14.5 -30.5t-34 -79t-37.5 -88q44 2 161 4q113 280 113 299.5t16 19.5q5 5 16 5l16 -16q11 -10 11 -27t-1 -22.5t-2 -10t-5 -13.5t-7 -16t-12 -25.5t-15 -31.5q-53 -120 -70 -161h50q26 0 35 -2.5 t20 -12.5q16 -15 11 -28.5t-27 -9.5l-88 -6h-23q-39 -81 -39 -93t-5 -17q-5 0 -5 -8v-3q0 -3 -5 -21q30 1 60.5 1t39.5 -2.5t20 -12.5q16 -15 11 -28.5t-27 -9.5l-63 -5l-60 -2q-75 -248 -75 -275.5t-1.5 -34.5t-8.5 -11q-29 -8 -39.5 24t1.5 88q11 29 11 42q4 22 51 167 q-102 -2 -160 -2q-74 -248 -74 -274.5t-1.5 -33.5t-8.5 -11q-29 -8 -39.5 24t1.5 88q11 29 11 42q5 25 50 164h-46q-20 0 -35 5q-21 0 -29 14q-11 15 -3 19q19 12 132 18q11 34 14 38q10 0 10 22t11 31z" />
<glyph unicode="$" d="M308 393l23 -25q15 25 82 163q-48 -12 -74 -42q-48 -30 -48 -62q5 -19 17 -34zM335 272q-4 0 -6 -11q0 -16 -21 -47l-46 -113q12 1 20 6q67 20 82 46q11 10 12.5 16t0.5 27t-4.5 30.5t-14 27t-18.5 25.5q-1 -3 -5 -7zM477 537q-66 -118 -66 -122.5t-15.5 -30t-28.5 -51.5 q20 -20 20 -22v-4q2 0 16 -19.5t14 -23.5q3 -6 9 -15q5 -3 9.5 -30.5t4.5 -42.5q0 -41 -100 -92q-51 -25 -98 -31q-46 -116 -48 -138t-4.5 -29.5t-11.5 -9.5q-27 -6 -31 26t14 87q15 21 17 44l6 15q-54 0 -64 7q-9 3 -21 12q-41 20 -44 59q0 9 20 21t40 2q-13 -23 -7.5 -35 t36.5 -17t60 -1q66 157 82 182q4 0 9 7t5.5 14.5t1.5 12.5q-23 37 -39 46q-3 3 -8 12.5t-8 12.5q-24 24 -11 59q17 50 84 98q29 20 37 21.5t16 4.5q31 14 45.5 14t18.5 2q64 136 66 148q6 16 20 13q6 6 16 2l14 -14q17 -29 -6 -73q-4 -7 -17 -28l-26 -45q48 -13 61 -39 q7 -15 -14 -30q-10 -3 -34 8t-40 13z" />
<glyph unicode="%" horiz-adv-x="600" d="M337 402q55 63 53 120q0 21 -4 24q-24 13 -51 -12q-35 -28 -77 -117q-17 -41 3 -54q26 -14 76 39zM209 423q-4 18 23.5 64.5t61 74.5t66.5 35q17 5 25 4t19 -13q33 -14 37 -52q6 -63 -41 -131q-29 -41 -77 -70q-33 -22 -63 -23q-14 0 -31 15q-31 31 -25 59l1 18 q-3 3 1 10q5 0 3 9zM476 33q55 63 54 120q-1 21 -5 24q-24 13 -51 -12q-35 -28 -77 -117q-17 -41 3 -54q26 -14 76 39zM349 53q-4 18 23.5 64.5t61 74.5t66.5 35q17 5 25 4t19 -13q33 -14 37 -52q6 -63 -41 -131q-29 -41 -77 -70q-33 -22 -63 -23q-14 0 -31 15 q-31 31 -25 59l1 18q-3 3 1 10q5 0 3 9zM362 210q0 -12 -34 -41q-159 -190 -179 -231q-13 -31 -24 -32q-27 4 -25.5 35t33.5 76q22 18 25 28q8 13 84.5 99t78.5 90q4 -1 9 4t9.5 18t21.5 17q1 2 4.5 7t4 7.5t4.5 7t5 7.5q27 23 142.5 141.5t121.5 130t18 5.5q7 4 16 0 q1 -6 9 -21q8 -17 -16 -52q-3 -3 -10 -9.5t-12 -11.5t-19 -17.5t-23.5 -22t-41.5 -40.5t-60 -58t-29 -29q-11 -2 -20 -20q-73 -73 -74.5 -75.5t-14.5 -7.5z" />
<glyph unicode="&#x26;" horiz-adv-x="564" d="M302 223q-16 14 -31 40q-5 0 -24.5 -21t-28.5 -36q-29 -21 -53 -62q-7 -11 -9 -14q-19 -44 10 -63q87 -27 210 64q-36 42 -51.5 63t-22.5 29zM457 558q-4 7 -33 18.5t-45 10.5q-38 3 -96.5 -81t-2.5 -149q8 9 62 53q127 105 115 148zM339 635q34 9 76 -6q39 -5 52.5 -9 t24.5 -17q38 -29 38 -61t-75 -99l-40 -41q0 -5 -5.5 -11.5t-12.5 -9.5q-83 -72 -84.5 -78.5t52 -75t62.5 -68.5q23 22 70 63.5t71 63.5q37 39 45 43.5t19 -5.5q12 -2 13.5 -12.5t-2 -19.5t-5.5 -11q-21 -27 -91.5 -90.5t-80.5 -74.5q48 -57 77 -79.5t52 -29.5q59 -20 62 -61 q3 -31 -74 3l-40 21q-39 11 -126 115q-83 -46 -107.5 -56t-51.5 -18q-66 -6 -121 13q-11 3 -32 19.5t-30 26.5q-12 7 0 49q6 19 56.5 86t99.5 116q-38 51 -37.5 99.5t42.5 122.5q25 41 75 85q18 15 20 12q3 -5 8 -5z" />
<glyph unicode="'" horiz-adv-x="117" d="M247 655q2 -1 9.5 -4.5t10.5 -5t8.5 -5.5t8.5 -7q12 -15 -12 -79q-6 -17 -8 -24q-9 -32 -51 -80q0 -4 -9.5 -6t-14.5 -4q-14 -1 -23 7q-2 9 23 48.5t30.5 55.5t8.5 28q7 28 6.5 43t2.5 25.5t10 7.5z" />
<glyph unicode="(" horiz-adv-x="330" d="M217 199q-5 0 -9 -34t-7 -55q-2 -66 8 -100t38 -64q23 -20 48 -21l34 -21q-6 -22 -15 -28t-27 -4q-42 8 -75 38t-46 73q-19 42 -18.5 109.5t16.5 123t18 80.5q4 13 37.5 89t45.5 108q21 46 75.5 124.5t75.5 96t27 18.5q4 10 15.5 17.5t21.5 7.5q23 13 36.5 7t19 -27.5 t3 -25.5t-22.5 -13q-35 -13 -47 -27q-22 -28 -37 -37q-18 -7 -18 -16q-11 -26 -36 -58q-8 -13 -27.5 -46t-32.5 -56t-23 -35q0 -15 -15 -39q-6 -22 -21 -53t-28.5 -74.5t-13.5 -57.5z" />
<glyph unicode=")" horiz-adv-x="330" d="M246 187q5 5 5 24q16 8 14 35q0 1 5 12q12 29 14 53q16 51 21 90t8 90t4 72t1 29v20q0 24 -10 39q-10 32 -17 32q-6 0 -7.5 10.5t1.5 20.5q-1 5 3.5 9.5t16 4t23.5 -15.5q5 5 15 -15q28 -65 29.5 -81.5t-3.5 -88.5q-1 -100 -28 -229q-13 -52 -45.5 -135.5t-47.5 -107.5 q4 0 -30 -49.5t-43 -64.5q-23 -32 -53 -49.5t-50 -11.5q-40 11 -41 38q0 11 5 21q8 -8 29 -2q19 -1 27 3.5t24 22.5q42 60 45 68q20 15 36 40q0 22 18 51q6 13 15 29q16 31 16 36z" />
<glyph unicode="*" horiz-adv-x="363" d="M435 436q7 -4 -2 -16.5t-11 -12.5q-10 -6 -23.5 5.5t-20 23.5t-8.5 20q-8 22 -14 38l-2 37q-3 3 -39 -28t-63 -58q-40 -37 -52 -35q-11 1 -11 11q-2 3 -1.5 13.5t3.5 17.5q10 12 56 58.5t54 53t8 9.5t-8 11q-7 10 -6 13t-4 4q-6 9 -6 17v10q-6 4 -6.5 19.5t3.5 19.5 q3 0 9 -5q3 0 20 -24q15 -31 28 -31q14 21 17 45q10 14 23 36l26 41q3 10 8 11q10 12 13 10q12 -10 16 -21l10 -16q-39 -50 -52 -93q-4 -12 -2 -12q1 1 25.5 9.5t36.5 11.5q10 0 24 9q15 5 24 0q14 -14 14 -37q-35 -18 -80 -31.5t-47 -20.5q-12 0 0 -17q1 -3 3 -35 q3 -11 5.5 -22t5.5 -22q4 0 4 6q0 4 6.5 4t12.5 -9.5t3 -11.5v-6z" />
<glyph unicode="+" horiz-adv-x="446" d="M264 179q-37 -1 -71.5 -1t-49.5 5q-21 0 -29 14q-11 15 -3 19q10 7 47 11q32 7 103 10q-1 36 -1 76t2.5 49t12.5 20q15 16 28.5 11t9.5 -27l5 -63l2 -64q72 2 94 2t31 -2.5t20 -12.5q16 -15 11 -28.5t-27 -9.5l-63 -5l-65 -2q2 -74 2 -90t-5 -31q0 -21 -14 -29 q-15 -11 -19 -3q-7 10 -11 47q-6 26 -10 104z" />
<glyph unicode="," horiz-adv-x="198" d="M120.5 -40.5q-20.5 -24.5 -25 -24.5t-11.5 -7t-23.5 -7t-18.5 1q-5 0 -9 9q0 8 14 24q48 48 64 78q7 22 15 59q0 20 5 25q20 20 27 -27l2 -12q6 -35 -15 -84q-4 -10 -24.5 -34.5z" />
<glyph unicode="-" horiz-adv-x="326" d="M158 227q63 14 110.5 14t56.5 -2.5t20 -12.5q16 -15 11 -28.5t-27 -9.5q-126 -10 -148.5 -10t-37.5 5q-21 0 -29 14q-11 15 -3 19q10 7 47 11z" />
<glyph unicode="." horiz-adv-x="198" d="M114 130q18 11 26.5 12t26.5 -7q30 -19 26.5 -42t-40.5 -41q-34 -14 -59 5q-36 35 20 73z" />
<glyph unicode="/" horiz-adv-x="330" d="M306 374q-5 0 -6 -9t-27 -50q-45 -82 -114 -214t-74 -155.5t-8 -30.5t-10 -9q-30 -2 -34 31.5t20 85.5q18 34 22.5 45.5t86.5 160.5t88 157q9 -2 14 19q6 23 17 28q9 18 9.5 20.5t4 7.5t4.5 8q22 27 83 123.5t64 110t20 10.5q5 4 16 2q3 -6 12.5 -19t2.5 -38 q-2 -17 -11.5 -29.5t-14 -19t-17 -22.5t-21 -27.5t-17.5 -23.5q-20 -25 -20.5 -27.5t-7 -12.5t-10.5 -18q-11 -14 -36.5 -50t-29 -44t-6.5 -10z" />
<glyph unicode="0" d="M440 446q-11 9 -21 9t-29 -7.5t-26.5 -12t-16 -1.5t-8.5 8q0 19 -29 -6q-15 -13 -29 -30q-16 -16 -29.5 -35.5t-13.5 -22t-9 -25.5q-7 -11 -19 -38.5t-15 -39.5v-54q0 -41 14 -68l24 -30q11 -10 18.5 -11.5t25.5 2.5q24 0 38 14q19 13 43 40q39 46 72 141q14 21 14 59.5 t5 56.5q0 27 -1.5 35t-7.5 16zM374 529q14 4 43.5 4t59 -17t29.5 -32q0 -9 -1 -10.5t-9 0.5h-10l10 -29q10 -22 10 -43t-11 -72.5t-17 -64.5t-6 -26l-25 -55q-9 -10 -5 -14q0 -4 -10.5 -22.5t-13.5 -18.5q-5 0 -5 -4q0 -11 -44 -55q-15 -16 -44.5 -32.5t-42.5 -16.5t-39 14 t-41 27q-33 32 -49.5 83t-7.5 106.5t45.5 118t85 105t98.5 54.5z" />
<glyph unicode="1" d="M373 505q84 52 90.5 50.5t18 -10t12.5 -16.5q6 -7 -4.5 -29t-34 -91t-33.5 -104.5t-22 -68t-19 -59.5q-20 -47 -37 -127q-4 -10 -9 -26q-10 -31 -14 -34q-9 -7 -32 16q-6 10 -5 17q1 16 33 144q8 4 29.5 78t40.5 131l21 76q-53 -29 -108 -69.5t-68 -47.5 q-27 -21 -33 -23.5t-15 2.5q-28 24 -16 45q3 1 37 25t38 25.5t8 4.5t10.5 8.5t11.5 8.5q3 4 17 14t39.5 28.5t43.5 31.5z" />
<glyph unicode="2" d="M372 522l29 -5q12 1 31.5 -19t29.5 -41q28 -43 -20 -114q-11 -13 -61.5 -68.5t-60.5 -63.5q-18 -9 -60.5 -59.5t-39.5 -50.5q-1 -4 2 -3.5t23 7t81 14.5t68 3l5 -2q4 6 25 4t44 -9t24.5 -12.5t9.5 -14.5q23 -20 -11 -19q-14 1 -37 5q-26 0 -35 -1.5t-50 -4.5 q-29 4 -65 -9t-86 -26t-58 -10t-21 14t-16.5 17.5t0 20t7.5 13.5q3 -3 16.5 15.5t14.5 23.5q1 3 14 12q0 1 15.5 19t27.5 29q104 100 108 119q5 6 16 13t24 20q4 20 31 47q17 25 22 42t2 19.5t-25 9.5q-59 20 -116 -20q-7 -2 -17 -5q-22 -8 -26 -7t-7 4.5t-7.5 9t-7.5 8.5 l-10 21l31 17q83 54 136 37z" />
<glyph unicode="3" d="M354 481h-4q-7 3 -38.5 -4t-32.5 -10.5t-21 -10.5t-26.5 -6t-16 18t-6.5 25t62 36q19 5 63.5 7.5t65.5 0.5q90 -10 102 -75q5 -22 -0.5 -32.5t-34.5 -36.5q-71 -45 -82.5 -52t-24.5 -15q-33 -21 -33 -24q14 -9 25 -18q51 -19 87 -68q44 -98 -62 -161q-60 -34 -134 -39 q-40 0 -70.5 12.5t-28.5 29.5q1 15 7 17.5t28 -1.5q49 -10 109 7t88.5 45.5t25.5 53.5q-4 45 -89 69q-39 11 -56.5 9t-36.5 8q-9 10 -18 28q-1 6 13.5 15.5t103 58t114.5 70.5q19 24 18 31t-26 12q-71 6 -71 0z" />
<glyph unicode="4" d="M215 368l5 14q9 19 55.5 87.5t61.5 83.5q24 12 29 5q4 -9 8 -25t1 -16q-5 0 -5 -5.5t-32 -43.5q-58 -79 -91 -140q-16 -50 -10 -56q17 -9 80 10q48 10 59 15q21 0 21 10q0 3 7 19q45 94 53 107q11 24 25 56.5t17 32.5q15 0 22 -15q8 -9 9 -13t-6 -24.5t-10 -25.5 q-17 -31 -24 -47q-75 -150 -100.5 -226.5t-29.5 -95t2 -37.5q2 -27 -19 -41q-19 -10 -26 10q-8 9 -7.5 21.5t7 41t15.5 68.5t10 44l17 51q-20 0 -44 -10q-50 -12 -77.5 -7t-43.5 32q-8 8 -11.5 29.5t4.5 29.5q4 11 11 25q17 32 17 36z" />
<glyph unicode="5" d="M269 390q0 -7 21.5 -9.5t29.5 -4.5q19 -3 48 -21q40 -24 59 -70.5t12.5 -92t-24.5 -73.5q-46 -64 -125 -94t-123 -1q-18 13 -18 22q-4 6 -8 5.5t-9 11.5t-2 25q5 11 19.5 9t16.5 -13q3 -19 47 -17.5t90.5 28.5t71.5 60q17 40 19.5 67t-1.5 29q-2 11 -6.5 23.5t-22.5 28.5 t-35 23q-34 7 -59 3l-41 1q-8 2 -24 15.5t-16 20.5q3 15 30 58.5t49 65.5q62 69 148 64q31 -1 42.5 -5t23.5 -19q8 -13 7 -24q-2 -24 -27 -14q-26 17 -90 -3q-21 -8 -44.5 -25.5t-28.5 -28.5q-3 -2 -5 -4q-2 -4 -6 -4q-6 -6 -6 -11l-8 -10q-2 0 -4 3q0 -5 -0.5 -10t-0.5 -9z " />
<glyph unicode="6" d="M423 293q-2 0 -5 1q-34 10 -55 6.5t-59.5 -12.5t-50 -14t-18.5 -7q-14 -11 -26.5 -13t-20.5 -20t-19 -70.5t-4 -63.5q2 -16 21 -20q16 -4 27.5 -3.5t35.5 10.5q22 6 26 5q22 15 60.5 39t68 65.5t24.5 69.5q1 5 -2 15t-3 12zM262 439q14 9 25.5 23t52 39t85.5 31 q15 2 13 -5q3 -6 14 -8q1 0 12 -17q3 -14 -17 -33q-22 -16 -29 -8q0 5 -9.5 7t-47 -22t-58.5 -48q-22 -20 -25 -28l-33 -38q3 -5 14 -2.5t13 6.5q0 4 22.5 10.5t45.5 8.5q11 4 42 -2.5t39 -10.5t19 -18q35 -34 34 -82q0 -32 -17 -53q-13 -21 -34.5 -47.5t-33.5 -34.5l-11 -7 q-2 -11 -48 -36q-84 -46 -132 -40q-23 3 -43 23q-26 19 -31 51q-7 25 -6.5 33.5t9.5 51t15 61t23 42.5q19 53 34 70q22 33 36 47z" />
<glyph unicode="7" d="M209 297l59 -2q18 0 28.5 -1.5t15 2t20.5 23.5q4 7 24.5 37t30.5 49q66 93 51 108q-6 5 -26 4t-73 -22t-67 -24.5t-25 2.5q-19 3 -13 34q4 18 131 50q88 13 100 -8q8 -1 9 -5q8 -15 15 -27t8.5 -18.5t-0.5 -22.5q-7 -24 -21 -36q-12 -17 -26 -31q-1 -3 -5 -9t-4 -8 l-55 -83q-19 -17 -14.5 -22t13.5 -9q35 -16 43 -40q1 -20 -5 -23q-6 -6 -16 -5.5t-13 4.5q-4 8 -22.5 15.5t-24.5 7.5q-14 -8 -42.5 -63.5t-31.5 -61t-7.5 -12.5t-8.5 -15.5t-7 -30t2 -22.5q12 3 17 -13q8 -11 -12 -26t-36 -11q-22 4 -36 38q-7 33 70 178q25 41 21.5 44.5 t-19.5 3.5q-34 8 -36 11q-23 12 -19 23q2 4 7 5q21 5 0 12zM209 297q-1 1 -2 1q1 0 2 -1z" />
<glyph unicode="8" d="M347 185q-20 41 -27 51.5t-18 16.5q-14 -8 -20 -22q-18 -22 -28 -41l-22 -22q0 -8 -17 -39.5t-25 -55t-7 -38.5t9 -16q13 -1 45 14t57 32q76 62 53 120zM427 483q-131 46 -156 -41q-12 -38 2 -66q11 -4 15 -17q0 -9 8 -9q2 -12 19 -11.5t32 10.5q20 18 36.5 21t21.5 -8 q3 -5 27 11.5t34 27.5q9 16 6 39q1 15 -6.5 23t-38.5 20zM311 560q93 -13 136 -31q18 -7 42 -26.5t25 -24.5t4.5 -10t8 -15t2.5 -34t-11 -38q-25 -28 -31 -30.5t-11 -6.5q-12 -12 -19 -13q-13 -17 -18 -17q-12 8 -12 0q-1 -4 -27 -15.5t-31 -9.5t-13 -3q-13 2 15 -32 q58 -106 31 -143q-19 -43 -41 -71t-35 -26q-8 -5 -14 -9q-4 -13 -20 -11q-9 4 -29 -9.5t-49 -18t-38 1.5q-14 2 -40 26q-14 30 -10 56q0 35 12 54q12 34 50 91t58 81.5t18.5 34.5t-20.5 36q-3 8 -7.5 15t-2.5 7q-4 4 -8 14q-15 15 -14.5 43.5t14.5 56.5q30 69 85 77z" />
<glyph unicode="9" d="M455 508q-14 20 -57 4q-25 -5 -64 -30q-6 -6 -13 -5t-7 -4q5 -9 -12 -23q-25 -27 -35 -56.5t1 -39.5q22 -24 67.5 -0.5t77.5 73.5q30 40 33 42q22 25 9 39zM281 19l2 34q4 55 50 188q15 36 13 44t-26 6q-46 -8 -79.5 24t-30.5 77q1 24 28.5 66t68.5 74t81 39.5t66.5 -3 t45.5 -41t14 -47.5q-11 -52 -38 -81q-23 -20 -58 -89t-52 -118t-22 -75t-5 -41.5t5 -16.5l21 -6q12 -18 -26 -60q-19 -21 -26 -20t-16 9t-9 12q1 4 0.5 4.5t-4.5 0.5z" />
<glyph unicode=":" horiz-adv-x="198" d="M190 340q18 11 26.5 12t26.5 -7q30 -19 26.5 -42t-40.5 -41q-34 -14 -59 5q-36 35 20 73zM120 130q18 11 26.5 12t26.5 -7q30 -19 26.5 -42t-40.5 -41q-34 -14 -59 5q-36 35 20 73z" />
<glyph unicode=";" horiz-adv-x="198" d="M190 340q18 11 26.5 12t26.5 -7q30 -19 26.5 -42t-40.5 -41q-34 -14 -59 5q-36 35 20 73zM127.5 -40.5q-20.5 -24.5 -25 -24.5t-11.5 -7t-23.5 -7t-19.5 1q-4 0 -8 9q0 8 14 24q48 48 64 78q7 22 15 59q0 20 5 25q20 20 27 -27l2 -12q6 -35 -15 -84q-4 -10 -24.5 -34.5z " />
<glyph unicode="&#x3c;" horiz-adv-x="446" d="M451 374q-6 -13 -15.5 -19t-29.5 -16q-56 -28 -93 -50t-54 -31.5t-25.5 -14.5t-17.5 -11q-16 -12 -14 -27q20 -44 180 -93q63 -16 75 -37q5 -10 -8 -17q-40 -11 -80 -3q-28 8 -35.5 9.5t-16 4.5t-13 4.5t-10.5 4.5q-13 6 -21 13q-60 19 -106 72l-37 44l-7 30 q10 2 24.5 12t15.5 10q26 21 127 78q41 19 86 50q22 17 30.5 17t14.5 -6.5t18 -12t12 -11.5z" />
<glyph unicode="=" horiz-adv-x="446" d="M166 182q73 14 138.5 14t75.5 -2.5t24 -15t8.5 -26t-27.5 -9.5q-174 -10 -196.5 -10t-43.5 5q-22 0 -30 14q-17 18 5 24q13 3 46 6zM221 324q73 14 138.5 14t75.5 -2.5t24.5 -15t9.5 -26t-29 -9.5q-154 -10 -186.5 -10t-54.5 5q-21 0 -29 14q-17 18 5 24q13 3 46 6z" />
<glyph unicode="&#x3e;" horiz-adv-x="446" d="M158 95q9 4 31 13q57 23 96 42.5t56.5 27.5t26.5 12.5t19 11.5q17 11 15 26q-19 46 -174 104q-69 24 -72 46q-1 8 10 13q48 8 107 -13q15 -5 21.5 -7t15.5 -6q16 -7 30 -19q57 -24 100 -81l34 -46l5 -30q-9 0 -25 -9.5t-17 -9.5q-20 -15 -131 -68q-52 -20 -68 -31 q-42 -29 -53 -28q-8 -1 -13.5 5.5t-11.5 10t-10 5.5q-9 5 -5.5 14t13.5 17z" />
<glyph unicode="?" horiz-adv-x="374" d="M183 88q18 11 26.5 12t26.5 -7q30 -19 26.5 -42t-40.5 -41q-34 -14 -59 5q-36 35 20 73zM297 542l5 -27q-6 -2 -25.5 -1t-28.5 5q-14 19 -15 26.5t-0.5 15t0.5 12.5q29 89 94 122l50 24q9 0 33 3q4 -1 9 0q12 1 12 -4h29q45 -13 68 -39q15 -45 -4 -124t-58 -122 q-1 -1 -36 -33t-48 -46q-32 -18 -58.5 -54.5t-40.5 -76.5q-11 -24 -15 -28t-18.5 -3.5t-22 11.5t-7.5 23.5t1.5 20t4 14t8 18.5t8.5 21q11 19 33.5 44.5t39.5 37.5l17 12q0 4 14 15t24 16q23 16 33 25q31 32 41 58t23 91q2 34 0.5 47.5t-12.5 21.5q-32 17 -82 -10.5 t-72 -76.5q-8 -24 -4 -39z" />
<glyph unicode="@" horiz-adv-x="643" d="M461 262q-37 10 -56 0q-29 -12 -58.5 -68t-25.5 -90q7 -15 20.5 -20.5t29.5 1.5q16 10 35.5 28t21.5 24t10 21q21 33 26 63q0 1 8 22q0 12 -11 19zM369 -96q0 -29 -66 -29t-132 52q-31 29 -55 70q-31 43 -15 134q8 41 19 62l4 16q0 14 14 33.5t28 38.5t17 23.5t14.5 19 t15 19t13.5 16t15 16.5q24 24 32 30t18.5 14.5t31 23.5t63 33.5t63.5 21.5q97 14 163 -47q61 -48 78 -124q6 -21 3.5 -66t-11.5 -64q-21 -45 -60.5 -88.5t-61.5 -49.5q-16 0 -40.5 7t-29 12t-25.5 17q-37 -40 -69 -54.5t-45 -11.5q-31 8 -42.5 15t-31.5 34q-7 18 -7 34 t10 49q10 43 44 91q28 42 82 64q12 6 34.5 6t37.5 -10q9 -1 21.5 -17t19.5 -32q4 -22 2 -35q-8 -39 -15 -62.5t-3 -33.5q-2 -8 15 -13.5t22 -5.5q17 0 36 22q17 17 22 23t12 14t9.5 12.5t7.5 11.5q5 10 13 33q2 16 2 34q0 54 -25 99q-41 74 -130 74q-50 0 -87 -16 q-26 -9 -76.5 -49t-75.5 -69q-83 -100 -98 -206q-5 -40 8 -66q22 -44 71 -75q57 -23 120 -19q8 -2 10.5 -5t1.5 -11z" />
<glyph unicode="A" horiz-adv-x="502" d="M448 305h2q2 6 12 109q8 77 15 186q-10 0 -47.5 -50t-66.5 -107q-27 -49 -33 -49q-7 -7 -33 -54t-21 -51q37 8 62 9q60 14 77 16t24 -2q5 -7 9 -7zM538 593q0 -11 -0.5 -22t-2 -28t-2.5 -29.5t-3 -33.5t-3 -37t-12 -121q-22 -216 -17 -307q1 -7 0 -18t-1 -12 q-9 -10 -33 -4t-27 20q-5 4 -5 8.5t4 80.5l5 162l-13 -1q-20 0 -89 -8t-86 -13q-21 0 -45 -43q-6 -15 -15.5 -31.5t-9.5 -18.5l-16 -19q0 -11 -21 -56q-19 -43 -61 -107l-16 12q-16 8 -19 17.5t5.5 30t27 56t52 100t33.5 74.5q-4 15 15 24q23 23 38 49q12 28 105 186 q37 66 95 144q23 31 40 30.5t41 -18.5q31 -23 35 -50q1 -6 1 -17z" />
<glyph unicode="B" horiz-adv-x="512" d="M351 578q0 -15 -16 -31l-9 -18q0 -3 -17 -41q-63 -140 -63 -160q70 12 91 20q26 15 42 30t51 58.5t51 73.5q22 35 24.5 53.5t-10.5 30.5q-12 14 -52.5 16t-64.5 -6q-27 -8 -27 -26zM370 666q1 0 10 1q24 2 44 1q67 -6 104 -39t36 -88q-1 -25 -35 -73.5t-74 -84.5t-57 -44 q1 -1 38 -14q84 -30 104 -110q10 -44 -22 -117l-15 -22q-1 -4 -18 -30.5t-30 -42.5q-88 -76 -181 -77q-51 0 -75.5 16t-38.5 27t-21 22q-14 22 12 38q10 6 42 -26q40 -37 116 -17q76 23 133 94q29 38 34.5 89t-10.5 66q-56 77 -174 46q-20 -3 -58 -12q-14 -4 -19.5 -17 t-46 -127t-55.5 -121q-10 -4 -28 21q-19 30 -2 59q8 13 16 43q13 39 75.5 194t92.5 223t20 71q0 3 -3 9t-2 9q0 6 28 18t41 10q19 0 19 5z" />
<glyph unicode="C" horiz-adv-x="482" d="M498 94q0 -29 -55 -62q-20 -20 -48 -31q-37 -27 -87 -46t-85 -11q-21 8 -32 13t-26 21q-44 43 -41 159q0 89 31 169q1 2 14 33t24 56t54 87q61 94 106 129q17 14 72 52q33 24 74 14.5t58 -45.5q22 -42 2 -112.5t-62 -109.5q-15 -11 -23.5 -9t-24.5 16q-12 22 -10 23t4 1 q9 11 26.5 42.5t23.5 49.5q3 20 5.5 28.5t3.5 16t1.5 11t1 8t0 7.5t-1.5 6q0 4 -6.5 10.5t-34.5 -8.5q-24 -10 -61 -45t-67 -76q-87 -114 -108 -178l-11 -26q3 -16 -12 -46q-17 -70 -12.5 -142t27.5 -94q25 -18 109 17q14 5 50 20t61 38q26 19 42 19q13 5 15.5 4t2.5 -9z " />
<glyph unicode="D" horiz-adv-x="578" d="M269.5 697q50.5 9 81 6.5t44.5 -6t22.5 -6.5t25.5 -9.5t25 -9.5q51 -20 104 -76.5t68 -118.5q6 -22 8.5 -56t-4.5 -47.5t2 -16.5q-2 -4 -8.5 -26t-9.5 -30q-6 -63 -56 -148q-6 -1 -7 -4q0 -5 -11 -19q-3 -2 -12.5 -14.5t-13.5 -15.5q-1 -7 -6 -11.5t-9 -4.5q0 -3 -3 -4 q-18 -26 -65.5 -64t-84.5 -54q-5 -4 -42 -21q-8 -7 -40.5 -19.5t-64 -18t-70.5 5.5q-15 3 -22 11t-8.5 9.5t-6 8t-7.5 9.5q-26 37 -16 52q9 15 34 -17q28 -29 87 -21q70 13 103 38l117 78q2 5 21 12q5 4 31 30.5t30 29.5q1 5 3.5 13.5t2.5 12.5q12 13 36 62.5t33 85.5 q19 97 -1.5 156.5t-73.5 105.5q-21 17 -69.5 37.5t-54 18.5t-14 -21t-22 -55.5t-26 -70t-31 -85t-28.5 -78.5q-4 -16 -12 -39q-18 -53 -18 -58q-18 -27 -32 -138q-10 -40 -11.5 -46.5t-3 -10t-2.5 -6.5q-2 -5 -4 -5l-4 -4q0 -12 -18 -5t-25 14q-7 23 4 60q18 75 41.5 144 t44 140t36.5 101q33 94 41 113l7 33l-11 5q-18 -6 -27 0q-10 -3 -27.5 8.5t-19.5 21.5l-3 17q2 12 52.5 21z" />
<glyph unicode="E" horiz-adv-x="548" d="M234 40l40 -3q24 0 42 8q106 18 132 36q11 5 18 5q-2 -3 0 -3q4 2 18 17q26 22 51 29.5t26 3.5q9 -16 -14.5 -47.5t-70.5 -57.5q-93 -50 -226 -52q-27 2 -44 12q-36 23 -60 42q-61 61 -38 162q10 49 25 80q22 53 97 170l6 8q0 7 29 62q25 27 14 42q-5 8 24 29t51 34 q23 18 46.5 20.5t26.5 -9.5q9 -3 33.5 2.5t32.5 6.5q7 9 67 16l55 2q20 7 34 -24q7 -19 -5 -28t-91.5 -19t-118 -18t-56 -20t-39.5 -46q-9 -6 -40 -68q-70 -95 -65 -101q21 -6 26 -6q8 4 48 11q159 41 180 44q29 17 49 -18q10 -21 -19 -33t-130.5 -39.5t-135 -29.5t-36.5 17 q-7 3 -16 -10.5t-16 -36t-13 -48.5q-13 -58 -4.5 -82.5t22 -37.5t45.5 -22z" />
<glyph unicode="F" horiz-adv-x="466" d="M107 -10q-12 9 -14 16q-2 15 27.5 107.5t42 117t18.5 46.5t8 26q-2 11 -1 14.5t9 12.5q14 12 30 47l50 143q9 32 5 32q-1 0 -29.5 -3.5t-29.5 -3.5q-26 -4 -26 14q5 35 36 38q77 18 85 16q13 9 13 14q0 10 15 11t22 -9q7 -12 87 5q72 6 89 1q9 2 21 3q24 1 28 3 q41 -7 44 -11q6 -6 4 -12l7 -5q15 -8 10 -23q-1 -9 -9.5 -10.5t-45.5 -0.5q-72 10 -181 -5q-51 -4 -61 -16q-18 -21 -53.5 -113t-37.5 -95q34 -10 186 4q46 9 53.5 5t12 -19.5t0.5 -23.5q-9 -21 -181 -24q-62 -1 -86 2q-9 -7 -9 -18q-18 -32 -53 -124t-35 -110 q-8 -20 -11.5 -39.5t-6.5 -21.5q-1 -3 -12 -3t-21 12z" />
<glyph unicode="G" horiz-adv-x="498" d="M357 280q-15 23 6 44q12 8 63.5 6.5t82.5 -16.5q42 -20 27 -100q-9 -39 -61 -117q-23 -32 -68.5 -69.5t-73.5 -48.5q-102 -45 -151 -10q-27 17 -42.5 48t-13.5 64q-1 118 41 249q43 125 79.5 186t70.5 96t53 46q48 28 122 16q57 -15 78 -34q2 -4 9 -13q24 -31 -1 -58 q-15 -15 -27 -1q-10 16 -19.5 22.5t-23 13.5t-14.5 7q-16 11 -49.5 7t-53 -20.5t-45.5 -48t-40 -58.5q-60 -105 -85 -197.5t-30 -129.5t-6.5 -57t0 -39.5t8 -31t17.5 -18.5q24 -16 77 3q33 4 75 38.5t70 78.5q52 96 44 122q-4 11 -20.5 12t-50 1t-48.5 7z" />
<glyph unicode="H" horiz-adv-x="564" d="M546 155l-26 -89q-23 -106 -23 -109q-5 -5 -31 6q-20 11 -23 23.5t3.5 26t32.5 111.5q12 34 28 95t18 63v10q0 5 -81.5 4.5t-136.5 -7.5h-73q-5 -11 -30.5 -92.5t-39.5 -150t-34 -129.5q-10 5 -21 5q-15 4 -22.5 17.5t-3.5 29.5q8 8 8 38q5 10 11.5 42.5t35.5 136.5 t36 111v11q0 15 11 31q10 30 10 41l58 141v5q2 2 25 53.5t31 68.5t12 24.5t7 12.5t3 8q8 11 23.5 5.5t23.5 -21.5l10 -16l-36 -72q-37 -65 -37 -78q-23 -58 -31.5 -85t-16.5 -45q-16 -36 -16 -39q0 3 55 4q174 1 193 4l52 5l78 239q15 43 24 55.5t18 12.5t18.5 -4.5 t12.5 -11.5q23 -21 -5 -62q-16 -28 -28.5 -65t-16.5 -45q0 -21 -7 -28t-17 -31.5t-10 -37t-10 -22.5q-45 -156 -62 -200z" />
<glyph unicode="I" horiz-adv-x="400" d="M497 637q56 6 75.5 3.5t26.5 -16.5q12 -42 -18 -39q-17 -4 -82 -6q-71 -6 -76 -14q-3 -3 -7 -9t-6 -8q2 -11 -10 -46t-24 -74q-32 -98 -38.5 -112t-9.5 -32q-20 -69 -42.5 -139t-31.5 -104q22 2 74.5 7t67.5 3.5t20 -14.5q26 -35 -10 -43q-18 -4 -56 -3q-83 -3 -105.5 -6 t-24.5 -12q0 -15 -28 -4q-13 18 -91 15q-21 -3 -39 6t-14 22q2 26 83 27l53 1l10 20q8 23 17.5 55t22.5 71q34 104 37 116q15 32 33 107q46 144 38 147q-10 1 -54.5 -3.5t-49.5 -7.5q-5 -7 -17 -3t-15 14q-3 17 6.5 24t47 18.5t75.5 15.5t58 21q21 7 35 6q12 -8 69 -4z" />
<glyph unicode="J" horiz-adv-x="306" d="M326 301l-62 -186q0 -20 -13 -33q-56 -139 -64 -152q-14 -23 -14 -27.5t-5 -4.5q-6 -4 -6 -10q-5 -12 -31 -37t-47 -34.5t-55 0t-58 35.5q-14 16 -8 35t14 19q11 0 25 -19q54 -48 114 45q5 12 26 59q55 120 59 134t9 20q0 1 5 16t8 28l42 119q10 46 19.5 68.5t25.5 71 t24 73.5t13.5 41.5l10.5 31.5q9 32 7 35l-56 -10q-12 -5 -30.5 -5t-18.5 7v5q-5 -4 -13.5 5.5t-7.5 17.5q0 16 71 25l72 10q5 4 25 -3.5t28 -15.5q10 -20 5.5 -39t-23.5 -71.5t-25.5 -71t-21.5 -61.5q-34 -96 -44 -121z" />
<glyph unicode="K" horiz-adv-x="494" d="M88 46q7 0 7 10.5t3 20.5t8 25q7 26 15 46q15 36 15 44t13 28q10 27 10 49q20 44 23 54.5t11 32t16 45t14.5 38.5t18.5 43q22 53 27 53v11q0 3 3.5 10t9.5 19.5t11 20.5q12 20 17 42q6 11 11 16q29 20 43 -9.5t-1 -51.5q-103 -217 -103 -239l34 25q26 26 83 69l123 100 q20 10 55 36q78 56 84 55q11 5 24 -10t11 -28q2 -10 -4.5 -17.5t-40 -24.5t-39.5 -28q-28 -22 -66 -49q-85 -55 -105 -84q-3 0 -7.5 -3t-7.5 -2q-14 -9 -19 -15q-10 -23 -25 -22q-23 -14 -76 -55q9 -82 40 -135q29 -64 59 -94q45 -49 68 -49q9 -3 25 -14q32 -22 13 -48 q-4 -10 -10.5 -12.5t-33.5 6.5q-16 -1 -55 30t-60 57q-61 86 -76 141q-5 23 -13.5 48.5t-9.5 32.5v19l-12 -30q0 -1 -5 -15q-17 -41 -32 -94q-51 -180 -64 -190q-7 -5 -26 9q-12 7 -13.5 15t4.5 29q0 7 5 39z" />
<glyph unicode="L" horiz-adv-x="426" d="M193 254v-3q-2 0 -3.5 -7t-3.5 -10q-7 -6 -7 -29q-11 -27 -18 -68t-5 -61q4 -33 55 -53q23 -9 34 -9q23 -5 92 14q11 3 26 5t31 8q41 11 47 7q11 -9 6 -24q-3 -8 -32 -24t-56 -24q-31 -14 -75 -18t-67 4q-39 10 -71 39.5t-41 62.5q-3 22 -3.5 54t2.5 40q3 2 2.5 10 t7 30.5t4.5 35.5q5 11 10 16q7 8 5 17.5t8 23.5l9 15q1 7 15.5 44.5t19.5 45.5v2q4 10 11 21q6 40 63 131q82 133 107 135q11 1 22 -10t14 -21q7 -24 -2 -26q-13 -9 -52 -65t-63 -100l-39 -81q-24 -51 -45 -110q-8 -8 -8 -18z" />
<glyph unicode="M" horiz-adv-x="720" d="M349 556q16 19 16 35t8.5 33.5t17.5 15.5q23 0 35 -15q1 -2 4 -6t4 -5.5t3 -5.5t3 -7t2 -8t0.5 -10.5t-1 -13t-2 -20.5t-7 -45t-5.5 -37q-30 -90 -52 -228.5t-13 -150.5q6 -6 12 -1.5t18 27.5t43 61q7 13 34 57q103 170 184 312q9 13 28 44q35 58 49 68q21 19 43.5 -3.5 t24.5 -66.5q2 -67 -40 -197q-14 -69 -40 -146q-2 -14 -8 -42q-10 -54 -8 -66q-15 -28 -15 -108q-10 -68 -13 -70q-13 4 -13 -5q-3 -10 -14 -3t-16 14q-11 25 -7 83q31 182 73 366q22 78 35 149q0 6 -10 -8t-10 -18q-32 -45 -40 -59.5t-19.5 -37t-20 -37t-32.5 -59t-34 -61 t-29 -53.5q-10 -24 -36 -57l-25 -41q0 -5 -20.5 -34t-47 -57.5t-46.5 -34t-47 17.5q-20 23 -23.5 59.5t6.5 104.5q7 34 16 90q20 117 26 130q2 22 -1 22q-4 1 -12 -12q-78 -130 -105 -189q-74 -137 -109 -203t-38 -70q-15 0 -38 25q-4 13 -1 22.5t23 53.5q31 61 41 69 q12 16 14 35q13 18 37 65q38 59 72 129q20 34 38 65.5t30 51.5t19 31.5t15 23.5q17 25 24 31z" />
<glyph unicode="N" horiz-adv-x="566" d="M340.5 650q25.5 0 35.5 -30q25 -58 20 -252q-4 -125 11 -182q8 -46 22 -99.5t22 -53.5q32 0 111 317q17 57 26 132q32 121 32 134v22q4 0 8.5 13t4.5 33t14 34q4 11 26.5 5.5t27.5 -20.5q3 -21 -28 -153q0 -12 -12.5 -66.5t-16.5 -77.5q-10 -65 -18 -63 q-41 -176 -105 -322q-51 -117 -113 -37q-33 43 -48 108q-5 24 -17 89q-20 52 -17 124q1 25 4.5 70t4.5 68q-1 71 -8 71.5t-25 -50.5t-35 -92q-43 -101 -53 -122t-19 -58q-66 -176 -79 -228q-8 -20 -14 -30q-14 -22 -38 4q-14 15 -14.5 26.5t7.5 39t27 73t27 86.5 q34 79 44.5 113.5t18.5 51t22 44.5t23.5 51.5t21 59t17.5 53.5q16 51 39 84q18 30 43.5 30z" />
<glyph unicode="O" horiz-adv-x="496" d="M511.5 516q-1.5 44 -20.5 65q-27 29 -68 10q-29 -12 -91 -85.5t-61 -92.5q0 -8 -5 -15q-27 -28 -58 -130t-33.5 -157.5t-2 -57t15.5 -27.5q6 -10 20.5 -15t29.5 -2q34 4 64.5 26.5t80 79.5t67.5 90t45 126q18 72 18 106.5t-1.5 78.5zM388 642q47 28 65 21 q56 -12 84 -45.5t43 -109.5t1.5 -143t-77.5 -172q-70 -138 -167.5 -200.5t-162.5 -12.5q-35 27 -46 42q-29 42 1 194q6 6 5 15.5t2 19.5t9 29.5t10 39.5q45 136 111 223q74 77 122 99z" />
<glyph unicode="P" horiz-adv-x="472" d="M241 287l-1 -19q0 -3 1.5 -7t31.5 0q64 9 138 54q36 25 70 68q56 93 46 134q-5 26 -27 49q-42 44 -117 31q-16 -5 -23.5 -14t-19.5 -38q-23 -44 -42 -96q-21 -74 -38.5 -117t-18.5 -45zM146 185l5 33q12 0 22 41q2 9 5 19q6 20 7 24q8 26 27 65q30 111 56 168 q4 10 8.5 21t6.5 16.5t3 10.5q3 8 -1 12q-18 13 19 44q16 19 28 22t36 1t76 -2q6 -3 21 -8q35 -13 35 -16q0 -8 12 -9t34 -23q54 -58 44 -122q-4 -40 -12 -50q-16 -12 -16 -20.5t-25.5 -42.5t-48.5 -56q-26 -30 -62 -53q-118 -53 -165 -51q-2 0 -21 -3t-23 -8.5t-12 -26.5 t-8 -32q-6 -11 -26.5 -74t-26 -85t-10.5 -25t-16.5 -3t-19.5 13q-11 6 -6.5 31.5t32.5 107.5q5 21 11 40q11 35 11 41z" />
<glyph unicode="Q" horiz-adv-x="490" d="M256 150q5 12 11.5 14t25.5 -3q23 0 42 -48q2 -9 13 -33q61 86 109 221q3 8 15.5 39t19.5 50q20 60 20 112q6 43 -2.5 64t-33.5 33q-51 18 -111 -29t-101 -148q-63 -134 -85.5 -224t-7.5 -156q2 -32 17 -47t39 -8q40 6 79 45q-10 20 -22 43q-26 46 -30 55q-8 8 2 20z M517 283q-6 0 -6 -6q7 -23 -25 -85q-42 -114 -100 -182q10 -22 16 -30q2 -7 13 -24t14 -27q23 -37 22.5 -44.5t-6.5 -9t-20.5 -2t-31 11.5t-20.5 26q-6 6 -7 12t-3.5 7.5t-9.5 10.5q-4 5 -13 26q-94 -69 -172 -15q-27 18 -37 39q-25 50 -28 108t15 140q10 38 33 105.5 t27 67.5q3 3 3 15.5t31 61.5t55 70q33 44 96 76q31 20 74 23t68 -11.5t45 -54.5q16 -19 19.5 -32.5t5.5 -34t3 -24.5q1 -57 -20.5 -137.5t-40.5 -80.5z" />
<glyph unicode="R" horiz-adv-x="498" d="M477 581q-60 16 -89 13.5t-36 -30.5q0 -3 -20.5 -47t-29.5 -68q-63 -128 -64.5 -136.5t1.5 -11.5q41 3 116 34q72 33 129 82.5t54 96.5q0 19 -20 40t-41 27zM321 654q105 24 190 -21q118 -69 78 -171q-16 -40 -81 -94.5t-121 -78.5q-29 -14 -108 -39q-18 -5 -40 -5l2 -1 q23 -51 89 -124q31 -36 85 -82.5t93 -65.5q8 -9 2 -25t-13 -18q-19 -7 -52 14q-94 56 -187 163q-44 50 -65 102l-2 -5q-30 -102 -91 -263q-9 -26 -42 1q-16 16 -16 24t28 71q6 36 29 83q5 17 78.5 196.5t104.5 246.5q12 32 -12 32q-24 26 -1 39z" />
<glyph unicode="S" horiz-adv-x="486" d="M562 694q38 -2 64.5 -23.5t31.5 -56.5q10 -36 -18 -85q-38 -69 -94 -81q-10 -2 -14 2q-17 20 33 76q68 100 26 106q-11 3 -55.5 -5t-44.5 -13l-4 -5q-4 1 -74 -41.5t-72 -47.5q-2 -11 -23 -20q-30 -18 -73 -92q-17 -23 -24 -49.5t0 -42.5q5 -17 31 -41.5t65 -47.5 q110 -61 129 -103q34 -48 20 -97q-8 -17 -25 -33.5t-29 -15.5q-9 -2 -18.5 -7.5t-15.5 -9.5t-47.5 -8.5t-76.5 -2.5l-40 12q2 5 -2 9t-14 5q-44 28 -60 71q-8 15 -7 18.5t12 8.5q11 7 16.5 4.5t13.5 -19.5q19 -35 78 -44t113 16q37 15 46 31.5t-7 42.5q-3 11 -9 16 q-18 18 -38 36q-22 10 -51.5 24t-65 43.5t-47.5 51.5q-24 22 -29 68.5t14 83.5q12 27 53 75t63 63l32 30q1 1 11 5q25 10 48 31q128 62 178 62z" />
<glyph unicode="T" horiz-adv-x="458" d="M489 577q-36 -3 -51 -3q-4 -30 -23 -66q-3 -11 -8 -24q-9 -29 -9 -33q-6 -8 -34 -94.5t-30 -91.5l-48 -131q-20 -38 -31 -79t-18 -66t-9.5 -29.5t-7.5 -4t-9.5 0.5t-14.5 13t-9 30.5t16.5 69.5t28.5 81q3 14 7.5 28.5t4.5 16.5q11 13 16.5 40t72.5 236q9 15 17 38 q8 5 8 21q16 34 18 36v1q-149 -14 -167 -15q-45 -5 -38 23q5 21 42 27q20 5 94 14q65 9 195 18q9 0 43 -4.5t48 -9.5q40 -9 48 -40q4 -14 -8 -19q-2 -1 -3 -2q-37 -11 -59 -2q-7 6 -12 9q-12 7 -70 11z" />
<glyph unicode="U" horiz-adv-x="482" d="M379 124q40 53 40 60t13 22q18 18 88 165q61 195 67 224.5t17 61.5q6 2 40 -15q9 -11 4 -33q-26 -123 -43 -169.5t-29.5 -76.5t-19 -45.5t-22 -50.5t-21.5 -49v-6q-12 -7 -22 -25.5t-14 -20.5l-9 -23q-1 -6 -12 -12.5t-13.5 -13.5t-3.5 -9q-36 -53 -81 -96 q-79 -78 -138 -64q-71 25 -89 97.5t13 229.5q15 73 51.5 174.5t66.5 154t42 64.5t24 10q28 -8 33 -32.5t-19 -41.5q-12 -13 -34 -56t-30 -58q-62 -178 -78 -268q-21 -97 -21 -171q2 -4 5.5 -10t5 -9.5t4.5 -7.5q3 -5 11 -8q33 -16 81 12q6 11 21 18q3 -4 4.5 -2.5t3.5 6.5 q-1 5 9 15q15 6 55 59z" />
<glyph unicode="V" horiz-adv-x="490" d="M238 616q-6 49 17 58t34 1q15 -9 13 -33q8 -47 -11 -138t-22.5 -160t-6.5 -127q-5 -78 -4.5 -102t4.5 -45.5t9 -21.5q13 3 35 58q4 11 22 46t35 82q13 29 36.5 72.5t34.5 70t50 99.5q48 74 69 114q30 49 46 66.5t31 17.5q9 5 16 -2q20 -20 13 -43t-59 -99.5t-79 -128.5 t-31 -61q-9 -22 -15 -31q-13 -12 -60 -108l-73 -168q-4 -12 -13.5 -34t-9.5 -26q-11 -17 -29.5 -26.5t-29.5 -4.5q-9 2 -10 17t-7 20.5t-23 9.5q-16 16 -20.5 41.5t-9.5 125.5q8 131 19 209q-1 15 2.5 49t1.5 44q5 15 9.5 50.5t8.5 50.5q7 54 7 57z" />
<glyph unicode="W" horiz-adv-x="720" d="M745 280q-4 -8 -4 -15.5t-52.5 -102t-81.5 -131.5t-62.5 -60.5t-46.5 -23.5q-29 -2 -38 22q-18 18 -22 41q-12 126 16 256q13 59 21.5 90.5t5 31.5t-15.5 -22.5t-29 -57.5q-55 -115 -125 -233q-5 -6 -32 -45.5t-44 -54.5q-45 -43 -80 -12q-17 20 -11 45q-3 25 5.5 102.5 t16.5 128t28 144t26 123.5q7 15 17 51.5t11 41.5q0 20 9.5 28.5t21 6t18.5 -12.5q29 -31 7 -84q-45 -110 -72 -290q-32 -192 -23.5 -194.5t22.5 12t25 38.5q59 98 141 254t87 164.5t13 23t13 23.5t11.5 20t10.5 17.5t8 12.5q10 14 14 15q33 -2 47 -34q3 -11 -3 -25 q-14 -38 -27 -91q-19 -50 -25 -81t-22 -102q-31 -146 -31.5 -199t6.5 -71q2 -9 12 -10.5t18 7.5q51 66 100.5 158t133.5 291q43 124 53 138q24 34 49 14q11 -11 10 -33q-10 -35 -46.5 -130.5t-49 -122t-21.5 -40.5t-13 -22z" />
<glyph unicode="X" horiz-adv-x="524" d="M353 439l4 -40q0 -11 17 -71q16 18 37 39q65 67 78 83q107 127 122 165q3 7 5.5 11.5t3 6t2 3.5t2.5 3l2 2q4 2 7 2q19 -1 25 -17q15 -34 -33 -103q-23 -23 -26 -39q-77 -93 -98 -110q-62 -53 -80 -76q-20 -22 -24 -24q-1 -4 -5 -8q20 -85 51.5 -149.5t57.5 -79.5 q2 -2 10.5 -2.5t10.5 2.5q15 3 20.5 -8.5t6.5 -30.5q3 -11 -16 -19.5t-41 -5.5q-39 3 -80 78q-48 66 -77 159q-43 -41 -132 -138t-96 -110.5t-27 -8.5q-5 -3 -15 0q-3 6 -6 21q-7 11 0 28.5t10.5 22.5t6.5 9t11 12t14 13.5t22.5 20.5t27 25.5t23.5 22.5t21 19t8 9t3.5 6 t9 10t9.5 12q17 13 93 87q-8 41 -15 91t-14 57q-2 5 4 7q2 2 -5 25.5t-14 88.5q-7 74 -11 88q3 8 13 18q22 16 42.5 -5t20.5 -53t6 -38q-2 -4 1.5 -44t6.5 -50q-4 -12 0 -17z" />
<glyph unicode="Y" horiz-adv-x="504" d="M636 638q7 11 21 13q6 -2 9.5 -14.5t7.5 -20t3 -14.5t-22 -28q-22 -19 -70 -69t-76 -85q-91 -105 -121 -132l-21 -21q-5 -18 -17 -70q-6 -20 -17 -56q-15 -52 -26 -87t-19.5 -70t-13.5 -45t-12.5 -8t-33.5 20q-11 11 -9 20.5t3 14.5q3 14 11 40q2 60 30 111q0 31 31 105 l16 48q-56 74 -65 141q-15 51 -9 162q0 42 17 73q3 6 3 7q16 20 29 -15q9 -26 8 -63q6 -219 50 -247q15 -4 26 4q33 24 113.5 118.5t110 127t43.5 40.5z" />
<glyph unicode="Z" horiz-adv-x="522" d="M364.5 36.5q91.5 5.5 108 5.5t29.5 -18q13 -5 12.5 -14t-13.5 -19q-5 0 -24 -3q-50 -10 -77 -8t-126 -9q-72 -11 -152 -7q-42 3 -49.5 11t-9.5 18q-5 28 19 53q101 109 254 246q79 68 155.5 148t86.5 117q8 27 -10.5 34.5t-90 12.5t-189.5 -15q-6 -2 -16 3t-10 10 q8 11 -4 21q-6 12 8 26q6 3 31 6t42 6t68 4t70 -1t39 -3.5t30 -2.5t26.5 -3.5t25.5 -5.5t20 -8q30 -14 34 -55q1 -12 -8.5 -34t-11.5 -28q-18 -34 -71 -96t-144 -146.5t-153 -137.5t-113 -101q-17 -21 12 -24q33 -3 71.5 4.5t130 13z" />
<glyph unicode="[" horiz-adv-x="330" d="M218 -102q0 -9 -33 -9q-8 -4 -29 -10t-34 -11.5t-21.5 -5.5t-19.5 9q-37 16 -13 50q13 9 13 26.5t28 117.5t36 112q0 18 31 65q31 101 81.5 225.5t74.5 161.5q8 34 8 35q0 20 10.5 28.5t38.5 8.5q22 3 52 5q69 6 134 34q20 9 27 6t15 -15q14 -16 12 -23t-23 -16 q-73 -24 -151 -34q-45 -12 -49 -17.5t-24.5 -45.5t-20.5 -43q-5 -5 -29 -54.5t-26 -59.5t-12 -32q-25 -59 -40.5 -107t-19.5 -57q0 -17 -10.5 -35t-17.5 -45l-12 -24q0 -8 -9 -40q-2 -2 -5 -11q-9 -34 -22 -71t-13 -56l-5 -28l30 6q108 15 140 15q26 5 32.5 4t18.5 -14 q8 -19 5 -22q-6 -8 -111 -23h-37z" />
<glyph unicode="\" horiz-adv-x="330" d="M326 115l3 -36q0 -3 7 -25.5t11.5 -36.5t13 -31t11.5 -25.5t0 -17.5q2 -24 -15 -35l-18 -12q-11 0 -13 6q-18 4 -14 18q-1 13 -24.5 105t-29.5 109q-9 29 -6 32q-7 16 -5 22q-7 5 -5 30q-2 24 -9 24q-5 21 -30 165t-24 155.5t0 18t-3 15.5t-3 15q-3 58 11.5 88.5 t41.5 18.5q9 -9 3 -44q-1 -22 23 -183.5t27 -188.5q14 -44 8 -56q-2 -10 3 -12q6 -6 5.5 -12.5t11 -49t19.5 -57.5z" />
<glyph unicode="]" horiz-adv-x="330" d="M338 732l23 -2q71 17 86 6q4 0 10 -6t6 -15q7 -14 7.5 -17.5t-7.5 -14.5t-27.5 -53t-19 -49t-6.5 -8q-5 -1 -4.5 -8t-4 -21.5t-8.5 -14.5q-5 -1 -5 -10t-8 -32t-15.5 -43.5t-12 -31.5t-7.5 -17.5t-5 -15.5q-10 -23 -14 -61q-18 -26 -25 -56l-6 -28q0 -6 -10 -41.5 t-17 -48.5q0 -14 -18 -70q-12 -62 -16 -70l-9 -15q0 -17 -5 -21l-3 -16l1 -4q-4 0 -4 -25.5t-9 -31t-50 -2.5h-35q-24 0 -33 2q-33 -3 -57 1q-12 -1 -29 1.5t-23 4.5l-25 20l12 5q7 9 57.5 18t62.5 6l34 -2l36 3l10 27q5 27 5 41q14 11 12 27q2 5 20 64q1 11 12 45.5 t14 47.5t13 43t12 39q1 9 8.5 30t8.5 32q8 27 41 126t48 147q14 27 22 63q-196 -13 -198.5 -9t-6.5 3.5t-8 3.5q-18 21 28 33q78 21 142 21z" />
<glyph unicode="^" horiz-adv-x="446" d="M403 295q-1 3 -6 17t-44 99q-11 18 -23.5 44t-18.5 33q-17 21 -67 -40q-31 -36 -59 -99q-22 -63 -51 -47q-15 10 9 72q7 13 14 28.5t11 22.5q7 15 18 28q20 35 63 70t72 32q25 -3 101 -183q17 -41 18 -43q10 -22 -9.5 -36t-27.5 2z" />
<glyph unicode="_" horiz-adv-x="446" d="M349 55q26 0 35 -2.5t20 -12.5q16 -15 11 -28.5t-27 -9.5q-126 -10 -271 -10q-20 0 -35 5q-21 0 -29 14q-11 15 -3 19q10 7 47 11q63 14 252 14z" />
<glyph unicode="`" horiz-adv-x="353" d="M300 594q20 -7 43.5 -60.5t24 -62.5t-6 -18.5t-14.5 -11.5q-12 -8 -16.5 -5t-10.5 21q-4 8 -24 37q-42 64 -28 81q24 21 32 19z" />
<glyph unicode="a" horiz-adv-x="437" d="M357 285q-18 40 -40 40t-67 -52.5t-82 -123.5l-25 -57q0 -11 25.5 1.5t42.5 26.5q86 74 124 129zM97.5 48.5q-6.5 6.5 -6.5 13t-5 12.5q-17 17 54 147q6 6 15.5 21t12.5 17q0 4 3 7.5t7 3.5v6q0 9 33 44q88 92 136 54q6 -8 83 -76l-18 -50q-22 -65 13 -122q5 -11 20 -21 t30 -12q22 -4 22 -23t-18 -23q-67 -9 -114 82q-14 19 -18 44q-15 -21 -32 -38q-141 -142 -208 -99q-3 6 -9.5 12.5z" />
<glyph unicode="b" horiz-adv-x="435" d="M181 341l11 34q5 4 18.5 43.5t25.5 65.5q36 80 50 119q6 9 13 21q14 26 19 28q8 2 20.5 -3t19 -15t3.5 -19t-39.5 -86t-55.5 -126t-34 -93t-20 -57l-5 -22l25 24q12 9 38 32t32.5 27t29.5 14q39 17 76 17t62 -42q24 -45 -7 -97q-15 -11 -16 -23t-51 -67 q-26 -27 -68.5 -54t-58.5 -32.5t-26 -7.5q-25 -3 -32 -5q-20 2 -24.5 5t-10.5 16q-12 13 -10 23q12 0 14 4q0 6 19 4t70 28t102 77q37 48 46.5 70t2.5 37q-2 10 -29.5 7t-55.5 -22q-108 -67 -145 -150l-5 -10q0 -4 -11.5 -10t-19.5 -6q-16 7 -19 22q-14 10 -14 17.5t14 57.5 q8 38 20.5 79t17.5 45q8 14 8 30z" />
<glyph unicode="c" horiz-adv-x="355" d="M360.5 249q-9.5 -14 -19.5 -14t-10 -6q0 -9 -11.5 -2t-13 14t0 13t5.5 17q25 79 -23 59q-83 -47 -123 -202q-8 -28 -5 -42.5t5 -15.5q14 -4 38 -1.5t45.5 14t41.5 26.5t30 23.5t16 11.5q9 14 15.5 15t16.5 1q24 -8 25 -17q0 -2 -4 -4l-5 -5q4 -8 -35 -44t-50 -36t-11 -6 q0 -4 -30.5 -18.5t-49.5 -18.5q-45 -8 -75.5 15t-30.5 70q-4 44 19.5 109t67 117.5t66.5 62t49 9.5q18 -4 35.5 -15t17.5 -22l5 -5q9 0 14 -27t-3 -43q-4 -19 -13.5 -33z" />
<glyph unicode="d" horiz-adv-x="393" d="M192 92q30 7 84 52q3 2 12 9t12 11t9 11.5t9 13.5q27 53 -10 85q-10 10 -32.5 7t-42.5 -22q-60 -54 -80 -150q-4 -26 39 -17zM361 -19q-25 -6 -34 22q-18 51 -13 99l2 21l-39 -31q-63 -56 -121 -56q-85 15 -47 134q21 62 58 103q65 97 146 50q25 -12 32 -10t15 35 q27 115 95 259q16 35 34 33q22 0 34 -30q7 -16 -3 -33q-26 -45 -64 -147t-54 -160.5t-23 -140.5t-1 -106.5t3 -32t-20 -9.5z" />
<glyph unicode="e" horiz-adv-x="325" d="M309.5 272q17.5 18 17.5 31.5t-14 22t-33 3.5t-39 -23t-33 -35.5t-10 -20.5q4 -8 32 -9t45 6t34.5 25zM276.5 87q0.5 0 2 1t1.5 2q7 6 17.5 16.5t15.5 10.5t10.5 -5t7.5 -6q16 0 -4.5 -26t-50.5 -45q-32 -28 -75.5 -20.5t-69.5 43.5q-31 39 -23 125q4 56 48 114.5 t93 77.5q14 9 26 9.5t40.5 -3.5t44.5 -24q25 -25 25 -58q-4 -24 -31 -55t-65 -50q-56 -17 -91 7q-18 7 -24.5 -3t-11.5 -50q-8 -69 33 -76q4 -1 12 -2.5t10.5 -2t8.5 -1t10 0.5q8 2 15.5 6.5t11.5 6.5q8 4 10.5 5.5t3 1.5z" />
<glyph unicode="f" horiz-adv-x="291" d="M141 29l-8 -98q-3 -30 -10 -37q-9 -6 -35 24q-8 9 -9.5 17t1.5 34q5 15 5 42q0 33 14.5 91.5t18.5 86.5q19 63 19 82t14 27q1 8 15 33q42 117 60 149q18 50 29 63q7 17 38 50t55 53q37 19 59 19t29 -3q11 -3 26 -18q13 -15 15.5 -20t2.5 -19q-4 -21 -20 -54t-24 -34 q-12 -4 -17.5 2.5t-5.5 21.5l-7 20q0 15 7 25q5 10 2 15t-13 2q-9 -5 -44.5 -35.5t-35.5 -36.5q-5 -13 -19 -30q-18 -25 -18 -34.5t-6 -9.5q-4 -14 -14 -32q-9 -24 -20 -35h1q-19 -50 -18.5 -55t30 -2t51.5 9t42 1q11 -7 18 -23t3 -22q-4 -11 -106 -30q-67 -13 -67 -17 q-10 0 -10 -13t-4.5 -24t-17 -61.5t-12.5 -62.5q-8 -10 -8 -36q-6 -11 -6 -25z" />
<glyph unicode="g" horiz-adv-x="355" d="M305 305q-1 16 -5.5 21t-16.5 3q-39 -6 -85 -64q-15 -20 -25.5 -49.5t-12 -56t8.5 -30.5q60 2 107 74q34 47 29 102zM251 383q19 10 45 2q24 -3 55 -30q24 -24 35 -53q13 -28 -6 -53q-13 -13 -22.5 -32t-11.5 -29q-1 -8 -51 -200q-45 -155 -90 -179q-27 -11 -58 3 q-52 23 -73 90q-9 31 -3.5 35t17.5 0t15.5 -14t16.5 -28t19 -19q28 -13 44 -2q16 13 27.5 33.5t25.5 65.5q42 148 52 167q-7 -6 -20 -18q-28 -26 -49 -34q-6 -8 -29.5 -9t-45.5 6q-21 11 -26 17t-13 24.5t-3 52.5t18 68q19 39 60 83t71 53z" />
<glyph unicode="h" horiz-adv-x="464" d="M447 204l-5 -53l-6 -32h16l22 -5q9 -11 16 -11q16 0 6 -15q-5 -7 -12 -12q-48 -31 -79 0t-16 91q5 43 4.5 64t-10.5 21q-23 0 -94.5 -52.5t-107.5 -106.5q-30 -38 -46.5 -39.5t-28 8.5t-12 17.5t3.5 26.5q27 114 59 201q12 44 30.5 90.5t31.5 83t25 69.5t18 48 q8 21 14 40q0 16 16 16q20 0 29.5 -28t-5 -58.5t-49 -127.5t-49.5 -129q0 -12 -21 -54q0 -4 -12.5 -44.5t-15.5 -60.5q15 26 51 58q55 47 68 56l31 21q0 5 8 5t8 6.5t23 12t38 5.5t22 -5t18 -22q28 -36 11 -85z" />
<glyph unicode="i" horiz-adv-x="187" d="M102 96l4 21q-1 6 8 33q18 40 48 141q0 12 16 13q12 4 18 0.5t16 -19.5q15 -15 -2.5 -54t-21.5 -60q-15 -33 -22.5 -63t-13.5 -40q-9 -41 -16.5 -48t-22 8.5t-16.5 35.5t5 32zM234 536q23 16 45 -19q8 -20 5 -31.5t-22 -34.5q-27 -36 -54 -13q-12 10 -13 25t1 16 q8 1 18.5 17.5t10 27t9.5 12.5z" />
<glyph unicode="j" horiz-adv-x="204" d="M174 310l5 42q4 4 14.5 0.5t19.5 -13.5t9.5 -20t-6.5 -72q0 -30 -15.5 -91.5t-19 -75.5t-6.5 -23.5t-3.5 -14.5t-13 -39.5t-14.5 -48.5t-16.5 -45.5t-34.5 -62t-33 -40.5q-21 -23 -56 -22t-59 26q-12 18 -19 41t-6 39t11 16q7 0 13 -7t6 -20.5t7.5 -25t19.5 -11.5 q11 -4 29.5 6.5t30.5 28t37 67t37 81.5q14 47 41 176q3 21 9 44.5t6 37t7 27.5zM296 541.5q0 -10.5 -10 -26.5q-25 -28 -40 -34.5t-28 4.5q-11 13 -8 34t20 42q27 32 56 8q10 -17 10 -27.5z" />
<glyph unicode="k" horiz-adv-x="365" d="M318 661q5 5 13 5t19 -15.5t11 -26.5q0 -40 -59 -160q-98 -211 -90 -219q23 9 63 37q18 12 47 30q42 24 45 28q17 7 25 5t18 -15q9 -14 3.5 -22.5t-26.5 -21.5t-55 -34t-55.5 -34t-23.5 -16q15 -30 29 -52q22 -33 22 -38q11 -32 33 -45.5t51.5 -1t37.5 -11.5 q4 -8 2.5 -11.5t-13.5 -15.5q-39 -39 -74 -21q-15 -1 -37.5 20t-62.5 73q0 7 -27 53q0 3 -11 21q-8 0 -11 1t-8 -4q-9 -9 -13 -16t-6 -10q-34 -89 -27 -112q0 -16 -5 -21.5t-21 -5.5q-12 4 -25 23.5t-13 35.5q3 6 7.5 21t12 38.5t13.5 42.5q8 13 21 53q10 19 34 77 t31.5 74.5t59.5 140.5t54 134q0 16 11 16z" />
<glyph unicode="l" horiz-adv-x="169" d="M167 335l10 38q16 31 56 139.5t40 122.5t16 14q5 5 16 5l16 -16q11 -10 11 -27t-1 -22.5t-2 -10t-5 -13.5t-7 -16t-12 -25.5t-14.5 -31.5t-12.5 -27.5t-11 -23t-4 -10.5t-1.5 -6.5t-4.5 -12t-8 -18.5q-40 -88 -40 -97.5t-5 -14.5q-5 0 -5 -8v-3q0 -10 -16 -53 q-43 -145 -43 -172.5t-1.5 -34.5t-8.5 -11q-29 -8 -39.5 24t1.5 88q11 29 11 42q3 19 20.5 68.5t22.5 59.5q10 0 10 22t11 31z" />
<glyph unicode="m" horiz-adv-x="560" d="M161 350q0 14 11.5 22t22.5 6q28 -6 29 -36q1 -16 -8 -39q-44 -108 -44 -118q1 -4 18 10.5t35.5 31.5t60 43t63.5 33q6 0 10 -1t6.5 -1.5t7 -4t6.5 -4.5q8 -9 18.5 -19.5t4.5 -36.5l-20 -63q75 64 100 77q49 25 73 -11q12 -12 12.5 -22t0.5 -13v-34q6 -78 9.5 -82.5 t26 -8t24.5 -14.5t-13 -21q-27 -16 -66 -1.5t-38 91.5q2 30 1.5 47t-7.5 17q-13 0 -56 -34q-53 -43 -94 -90q-5 -7 -8 -9.5t-8 -7t-8 -5.5t-8 -2q-7 -2 -29 16q-9 8 -5 23l23 66q32 77 25 77q-9 -1 -25 -9.5t-20 -16.5q-3 0 -14 -11t-18 -15q-5 -8 -33 -35.5t-37.5 -36 t-23 -25.5t-22 -28.5t-10.5 -11.5q-31 0 -39 30q-7 15 -1 43t11 48t7.5 32.5t4.5 21.5t3 12.5t4.5 13.5t9.5 24t16.5 41t10.5 41z" />
<glyph unicode="n" d="M358 285q24 11 33 11t29.5 -18t24.5 -30q0 -11 3.5 -23.5t2.5 -48.5t-8 -40q0 -5 5 -5v-5q-11 0 -1.5 -18.5t18.5 -27.5t7 -19.5t-18 -14.5q-39 0 -55 37q-6 21 -8 48.5t1.5 33.5t3 32.5t-9 30t-24.5 -6.5q-118 -74 -167 -116q-13 -14 -31 -44q-3 -5 -8 -5q-10 -5 -29 11 q-22 24 -23 27q0 8 6.5 37t10.5 37q4 0 10 13t10 19q3 15 26 69q23 39 27 80q-1 4 2 7.5t7 3.5q18 17 37.5 -9t16 -51.5t-32.5 -72.5q-14 -34 -14 -38q40 27 56 38q8 9 43 32t49 26z" />
<glyph unicode="o" horiz-adv-x="353" d="M331 233q6 16 5.5 43.5t-8.5 31.5q-28 16 -66 -15q-50 -43 -99 -152q-21 -50 3 -70q30 -25 99 50q43 49 66 112zM138 240q67 111 156 132q21 6 30.5 5t23.5 -16q23 -10 33.5 -24t13.5 -41q8 -78 -52 -164q-23 -33 -43 -50.5t-53 -37.5q-39 -26 -78 -29q-17 0 -39 19 q-38 39 -32 74l2 23q-5 5 -2.5 8t3.5 4q6 0 4 9.5t8 37t25 50.5z" />
<glyph unicode="p" horiz-adv-x="378" d="M344 265q-14 19 -52 6q-67 -23 -98 -91q-30 -63 -12 -70q15 0 60.5 15.5t69 35.5t35 47t-2.5 57zM79 -6l7 36q5 27 39 128t58 163q21 49 21 79q0 5 11 17q12 12 32 -3q3 -2 8.5 -10.5t7 -15t0.5 -28.5t-17 -49q82 34 125.5 9.5t43.5 -85.5q0 -18 -10.5 -43.5t-20.5 -34.5 q-6 0 -16 -21q-13 -16 -43 -33.5t-42 -13.5q-5 0 -5 -6q0 -7 -37.5 -16.5t-55.5 -9.5t-27 8q-7 -7 -7 -15.5t-10 -37.5t-16 -29q-6 -5 0 -11q0 -21 -6 -31q0 -26 -10 -48q0 -12 -3.5 -23.5t-7.5 -11.5q-6 -2 -6.5 -28t-9.5 -40t-21 -14q-1 0 -4.5 -0.5t-5.5 0.5 q-22 5 -11 59q11 42 11 58l5 32q11 18 11 47q0 12 12 22z" />
<glyph unicode="q" horiz-adv-x="377" d="M356 324q-9 11 -37.5 -4.5t-48.5 -30.5q-72 -55 -96 -111l-11 -29q52 -15 131 60q25 23 46 63t16 52zM273 128q-86 -41 -109 -41t-42.5 23.5t-19.5 51.5t54 102q11 19 44.5 47.5t50 38.5t38.5 20q18 11 26 11q39 9 69 0q28 -19 38 -64q0 -17 -4 -30t-23 -55 q-14 -22 -25.5 -45.5t-11.5 -28.5q-5 -14 -43 -96q-1 -6 -9 -34q-18 -69 -28 -115q-18 -96 0 -122q4 -12 -6 -15.5t-26 4.5q-21 14 -27.5 48t7 112.5t41.5 158.5q9 16 6 29z" />
<glyph unicode="r" horiz-adv-x="360" d="M142 19q-8 0 -24 16q-10 8 -13 15q-6 14 20 125q3 25 35 105t52 109q20 15 39 -4q10 -8 4 -27q-8 -26 -32.5 -79.5t-21.5 -53.5t9 4q11 19 53.5 52t53.5 38.5t23.5 10.5t14.5 6q22 11 46.5 8t30.5 -18q0 -10 12 -16l5 -6q0 -9 -26 -10.5t-58 -15.5q-4 -3 -16.5 -9.5 t-17 -9.5t-15.5 -9t-16.5 -10t-14.5 -10t-15.5 -11t-14.5 -11q-31 -26 -58 -72q-7 -7 -14.5 -36.5t-7.5 -36.5q-4 -16 -14.5 -30t-18.5 -14z" />
<glyph unicode="s" horiz-adv-x="341" d="M247 80l-18 7q0 9 -29 22q-55 45 -50 52v5q-7 0 -15.5 19.5t-8.5 37t15.5 49.5t39.5 55t69 52q92 60 131 37q30 -18 42 -50q0 -63 -18 -63q-5 0 -5 -8t-15 -21q-44 -32 -50 -5q-5 10 -9 10q-6 3 -6 13l6 11q6 0 20 23.5t14 30.5t-1.5 8t-9.5 1q-78 -35 -97 -53 q-4 -7 -5 -8.5t-5 -1.5q0 8 -32 -37q-7 -10 -21 -31q-7 -7 -7.5 -20t-1 -15t0 -4.5t1 -4t3 -4t4.5 -4t7 -5.5t9 -7q91 -68 97 -91q17 -31 11 -46t-27.5 -25t-62.5 -13.5t-62 0.5q-18 7 -35 20.5t-23 23.5q0 14 6.5 15t61.5 -4q22 0 50 5.5t31 12.5q3 2 -5 11z" />
<glyph unicode="t" horiz-adv-x="331" d="M132.5 365q-4.5 6 -4.5 12.5t8.5 18t15 11t30 0t31.5 3.5t11 11q9 25 25 54q30 58 48 73t43 -6q8 -12 8.5 -15.5t-6.5 -17.5t-20.5 -36.5t-18.5 -32.5q-17 -24 -5 -26t59.5 5.5t52.5 -27.5q3 -24 -5 -29t-46 -5q-32 -5 -60.5 -5.5t-34.5 -2.5q-12 -3 -19 -19 q-3 -2 -7 -11q-6 -12 -25 -47q-27 -80 -35.5 -134.5t-3.5 -64t35 -12.5q51 -6 110 29l27 16q10 16 21 -10q0 -11 -1.5 -17t-11 -17t-29.5 -22q-76 -48 -146 -34q-16 3 -32.5 21.5t-21.5 34.5l-5 8q-6 5 -4 51.5t7 66t18 54.5t16 46l27 58l-40 11q-7 1 -11.5 7z" />
<glyph unicode="u" horiz-adv-x="370" d="M301 93v19q-6 -15 -22 -27q-23 -23 -46 -34q-35 -22 -55 -23t-40 22q-33 27 -23 73q3 70 43 158q32 63 46 84q32 11 37 -20q12 -19 -27 -93q-60 -142 -27 -155q11 -7 31.5 1t51 43.5t50 82.5t22.5 83q-5 25 17 38q4 6 10.5 9.5t9.5 -0.5l16 1q3 0 6 -6t6 -8 q23 -19 -22 -123q-32 -67 -32.5 -104t28.5 -62q15 -10 13 -37q-4 -14 -22 -18.5t-33 5.5q-24 23 -36 68q-2 6 -2 23z" />
<glyph unicode="v" horiz-adv-x="331" d="M125 348q11 7 24 5q22 -8 40 -122q4 -34 10 -55.5t6 -23.5q12 -26 23 -15q21 21 56.5 69.5t46.5 62.5q39 53 52 57q16 2 23 -3q13 -10 -15 -49q-6 -8 -12.5 -21.5t-13 -25.5t-36 -52t-35 -45.5t-13.5 -12.5q-25 -21 -34 -35q-24 -23 -38 -28t-26 7q-11 8 -27.5 67t-23 97 t-18.5 74q-10 36 11 49z" />
<glyph unicode="w" horiz-adv-x="517" d="M364 207.5q-10 -42.5 -10 -61t3 -24.5t6 -7t10 -1q47 0 115 104q29 45 29 52t9 18q11 16 23 22t27 -9q6 -6 6 -32q-5 -18 -17 -46.5t-19 -36.5q-19 -15 -32 -37q-28 -33 -40 -43t-15 -13q-31 -31 -66.5 -39.5t-55.5 7.5q-31 16 -31 54l-5 21q-15 0 -26.5 -20.5 t-45.5 -45.5t-52 -25q-23 0 -38 39.5t-11 88.5q0 33 6.5 64t7.5 35q10 72 25 87q7 9 21 8q30 -2 27 -54q-2 -32 -11 -44q-2 -5 -7.5 -50.5t-7.5 -56.5q-5 -33 12 -35q22 -2 64.5 59t59.5 109.5t23 52.5q16 10 38 -5q23 -23 0 -69q-12 -24 -22 -66.5z" />
<glyph unicode="x" horiz-adv-x="343" d="M221 269q0 -27 48 6l26 26q6 5 34.5 25t35.5 23q12 8 27 -6.5t15 -28.5t-6 -21t-26 -18q-58 -42 -96 -75l-26 -21l16 -27q16 -32 26 -37q8 -11 39.5 -35t34 -24t22.5 -10q12 -12 12 -27.5t-12 -15.5q-16 0 -21 6q-31 0 -82 44.5t-51 56.5q0 4 -0.5 4.5t-4.5 0.5 q-6 5 -6 11q0 10 -10 10q-27 -21 -67 -61t-51 -40t-26.5 12.5t-15.5 24.5q32 38 69 70l64 63l-11 38q-18 39 -26 63q-12 16 -12.5 21t7.5 17q9 9 13 10.5t18 -5.5q8 0 25.5 -33.5t17.5 -46.5z" />
<glyph unicode="y" horiz-adv-x="341" d="M377.5 375q3.5 0 14.5 -6q18 -20 16 -37t-24 -59q-18 -53 -32 -69q-33 -76 -59.5 -129t-38.5 -84q-64 -102 -90 -133q-55 -49 -88 -58.5t-76 5.5t-48 40q-2 10 8.5 19t17.5 0q80 -54 158 53q51 84 73 125q-20 6 -38 35t-15 42v11q-11 0 -16.5 52.5t-3 80t6.5 93.5 q-1 22 11 30q36 15 42 -37q3 -27 0 -76q-10 -156 35 -189q20 47 28.5 63.5t9.5 22t5 13t20 39.5q26 75 32 85.5t9.5 18t5.5 11.5t5 9.5t5 8.5t5 6q4 5 9 7q9 7 12.5 7z" />
<glyph unicode="z" horiz-adv-x="315" d="M248 87q72 3 96 3q33 0 42.5 -3.5t17 -14.5t4.5 -16q-2 0 -15 -2q-26 -3 -58 -4.5t-142 -15.5t-126.5 -13t-32.5 17q-23 10 27 62q38 47 67.5 70.5t111.5 79.5q28 23 43.5 33.5t20.5 14.5q-49 5 -74 3q-42 0 -52 3h-15q-10 0 -31.5 10.5t-22.5 19.5q11 5 16 11 q17 11 21 7q30 0 62 2q83 -1 107.5 -6.5t45.5 -23.5q27 -27 -1 -58q-11 -13 -14 -13q-38 -26 -63 -41q-42 -25 -45 -30q-20 -10 -31 -21q-13 -16 -36 -32l-52 -50q79 10 129 8z" />
<glyph unicode="{" horiz-adv-x="330" d="M167 -119q-28 12 -26 61v28q6 5 8 26q18 70 47 131q27 50 27 74q0 32 -50 42q-30 0 -20 29q4 12 16.5 19t25.5 3q23 0 53 33q62 67 73 219q4 57 19 89.5t52 68.5q13 19 25.5 25t20 10t9.5 5q45 16 67 3q7 -3 15.5 -20t4.5 -20q-2 0 -13 -2.5t-23 -2.5q-38 -9 -72 -39 q-22 -29 -28.5 -41.5t-7.5 -24.5q-10 -26 -12 -39q-4 -19 -9.5 -75t-13 -75.5t-10.5 -26.5q-27 -74 -69 -111q-17 -10 -18.5 -14t7.5 -15q0 -1 5 -13t5 -20q7 -17 1 -39.5t-30 -76.5q-19 -38 -19 -55q-7 -10 -19 -55q-4 -24 -7 -37t-3 -15q0 -19 45 -12q17 5 23 4t13 -10 q23 -20 -20 -33q-22 -12 -47.5 -13t-35.5 7q-9 14 -9 8z" />
<glyph unicode="|" horiz-adv-x="330" d="M227 325l10 38q17 32 81.5 200t64.5 182t16 14q5 5 16 5l16 -16q11 -10 11 -27t-1 -22.5t-2 -10t-5 -13.5t-7 -16t-12 -25.5t-14.5 -31t-25 -57.5t-36 -83.5t-16.5 -40.5t-1.5 -6.5t-4.5 -12t-8 -18.5q-40 -88 -40 -97.5t-5 -14.5q-5 0 -5 -8v-3q0 -10 -16 -53 q-83 -279 -83 -304.5t-1.5 -32.5t-8.5 -11q-29 -8 -39.5 24t1.5 88q11 29 11 42q4 19 41 134t42 124q10 0 10 22t11 31z" />
<glyph unicode="}" horiz-adv-x="330" d="M212 46l2 71q0 15 -2 55.5t-1 56.5t9 32q12 11 9 33q-8 20 -6.5 36.5t10.5 22.5q10 12 19 21t14.5 15.5t8.5 10t7 9.5q8 12 15 26q55 87 71 152v10q8 20 -14 52q-8 16 -20 23.5t-32.5 13t-22.5 16t8 20.5q7 11 25 10.5t25.5 -8.5t13.5 -8t26.5 -20.5t28.5 -34.5 q7 -6 12 -42q5 -18 3.5 -29.5t-21.5 -75t-32 -77.5q-11 -7 -11 -11.5t-18.5 -35t-31.5 -43.5l-11 -19l-7 -4q-12 -8 3 -45q2 -5 5.5 -11t5.5 -10q0 -14 -5 -14q-21 -11 -24.5 -27.5t-2.5 -89.5q4 -86 -7 -112q-16 -70 -23 -70l-3 -4q0 -20 -29 -35t-62 -16.5t-51 5.5t-18 18 l6 11q7 -5 7 0q14 4 37 13q42 7 55 20.5t21 48.5t8 40z" />
<glyph unicode="~" horiz-adv-x="446" d="M357 201q-37 0 -78 28q-1 1 -21.5 16t-37 20.5t-39.5 -14.5t-34 -21q-2 -7 -9.5 -14t-10.5 -2q-11 3 -18 10t-6 16t26.5 31.5t70.5 39.5q48 7 83 -28q50 -45 80 -32q8 1 25.5 6.5t21.5 8.5l26 7q7 12 26 13q23 9 18 -18q0 -10 -16 -29l-75 -32q-18 -6 -32 -6z" />
<glyph unicode="&#xa1;" horiz-adv-x="210" d="M159 35l-13 -35q-18 -30 -52 -113t-36 -98t-17 -12q-5 -4 -16 -4q-5 5 -14.5 15.5t-9.5 27t2.5 24.5t4.5 13.5t7.5 16t8.5 16.5q4 9 20 36q29 56 29 57.5t13 31.5q31 52 31 64q5 13 8 16q5 0 5 8v3q0 14 19 53q34 97 36.5 129.5t4 36.5t9.5 8q19 3 29 -11q21 -26 3 -104 q-14 -28 -14 -42q-12 -43 -34 -84q-4 0 -8.5 -7t-4.5 -22t-11 -24zM292 411q-18 -11 -26.5 -12t-26.5 7q-30 19 -26.5 42t40.5 41q34 14 59 -5q36 -35 -20 -73z" />
<glyph unicode="&#xa2;" d="M329 330l15 33q11 16 50 94l-11 7q-17 0 -51 -49q-41 -42 -62 -119q-4 -11 -1 -28.5t5.5 -20t9.5 -2.5l18 33q4 0 9 7t6 14q0 24 12 31zM351 272q-4 0 -5 -6t-3 -16q54 10 74 19q30 19 54 14q16 -6 12 -18.5t-36.5 -29.5t-32.5 -28l-16 -4q-5 0 -31 -6.5t-34.5 -11.5 t-22.5 -5q-9 -20 -32 -70q-44 -98 -47 -122.5t-5.5 -32t-11.5 -9.5q-27 -6 -31 26t14 87q15 21 17 44q5 15 42 89q-6 2 -16 10q-57 52 1 195q11 23 36.5 60.5t34.5 42.5q16 5 37 16q35 17 73 -3q75 150 77 167q6 16 20 13q6 6 16 2l14 -14q17 -29 -6 -73q-4 -7 -16.5 -28 t-23.5 -41t-38 -61q13 -18 9 -30q0 -2 -5.5 -7t-18.5 -18t-23 -8q0 -5 -32.5 -61t-33.5 -64.5t-10 -17.5z" />
<glyph unicode="&#xa3;" d="M273 342l92 -1q26 0 35 -2.5t20 -12.5q16 -15 11 -28.5t-27 -9.5l-63 -5q-13 -2 -88 2q-12 -36 -15 -49.5t-12.5 -74t-11.5 -86.5l2 -25q37 -12 51 -18q35 -15 47 -16q26 -17 55 -17t48.5 6t21.5 14q4 0 7.5 4.5t3.5 9.5l24 5q31 0 24 -25q-8 -32 -59 -61 q-30 -15 -71 -11.5t-72 24.5q-12 12 -29 12q-5 3 -25.5 6t-25.5 4q-33 7 -65 -3t-79.5 0t-47.5 32q0 33 48 37.5t56.5 7.5t14.5 14q15 49 22.5 101t20.5 111l-43 1q-20 0 -35 5q-21 0 -29 14q-11 15 -3 19q10 7 47 11q27 5 78 5q20 65 44 117q91 185 158 196q57 17 98 -22 q2 11 20 -15t20 -40l10 -26q3 -2 3 -19q-2 -13 -25 -31q-21 -12 -36.5 -3t-13 33t-7.5 46t-24 26q-16 6 -65 -32q-9 -16 -23 -28q-13 -22 -30.5 -55t-56.5 -147z" />
<glyph unicode="&#xa4;" d="M363 393h-8q-3 0 -8.5 -2t-7.5 -3q-34 -11 -46.5 -26.5t-31.5 -50.5q-24 -35 -30 -64.5t11 -40.5q16 -22 70 -17q79 40 106 100q10 21 11 45q4 51 -53 58q-7 1 -13 1zM182 132q0 11 3 14t4 4.5t4.5 3t8 7t2.5 8.5t-4 2q-12 21 -16 23q-6 58 2 83q2 0 3 6q3 20 9 26 q-1 3 3 9l10 10q3 3 3 7q4 8 13 22q9 23 10 29t-3 18q-20 16 -35 37.5t-11 32.5l-7 11q-9 13 1 30q6 7 10 3q5 0 10 -8q9 -16 19 -26q4 0 10 -12q12 -23 39 -46q4 -4 4 -5q2 -2 10 4.5t16.5 11.5t45.5 9l28 -2q72 95 82 100.5t13.5 3.5t7.5 -9q7 -2 9.5 -12.5t0.5 -12t-3 -3 t-2.5 -3.5t-2.5 -4.5t-3 -5.5t-4 -7.5t-11 -20t-11 -20.5q-11 -3 -13.5 -10.5t-3.5 -9.5q4 -8 15 -17q20 -8 24 -39q8 -6 12 -26t1 -23l-4 -11q3 -7 -15 -42.5t-41 -62.5l-24 -25l13 -14q7 -13 27 -32t28 -19q5 -1 9 -22.5t0 -28.5q-11 -15 -38 16q-35 26 -58 72q3 11 -9 5 q-4 -2 -9 -5q-70 -31 -104 -25q-11 5 -14.5 4t-13.5 -11q-1 -6 -15 -24t-23 -26q-6 -16 -13 -22q-10 -11 -8 -17q-5 -5 -17 -10t-16 1q-9 -7 -13 10.5t2 23.5q3 4 6 4q-7 7 0 21t17 23q0 2 3 6.5t4 10.5q10 7 23 7z" />
<glyph unicode="&#xa5;" d="M426 116l-118 4q-21 -70 -26 -85.5t-13.5 -50.5t-13.5 -45t-12.5 -8t-33.5 20q-11 11 -9 20.5t3 14.5q3 14 11 40q2 47 21 93q-30 -3 -60 -3t-45 5q-21 0 -29 14q-11 15 -3 19q10 7 47 11q30 6 105 6q6 24 25 71l5 14q-58 2 -72.5 2t-29.5 5q-21 0 -29 14q-11 15 -3 19 q20 13 128 17q-40 60 -48 118q-15 51 -9 162q0 42 17 73q3 6 3 7q16 20 29 -15q9 -26 8 -63q6 -219 50 -247q15 -4 26 4q33 24 113.5 118.5t110 127t43.5 40.5q7 11 21 13q6 -2 9.5 -14.5t7.5 -20t3 -14.5t-22 -28q-22 -19 -70 -69t-76 -85q-61 -70 -98 -109h43 q26 0 35 -2.5t20 -12.5q16 -15 11 -28.5t-27 -9.5l-63 -5q-5 -1 -66 1q-2 -7 -14 -57l-9 -27q26 -1 58.5 -1t41.5 -2.5t20 -12.5q16 -15 11 -28.5t-27 -9.5z" />
<glyph unicode="&#xa6;" horiz-adv-x="330" d="M243 208q-83 -279 -83 -304.5t-1.5 -32.5t-8.5 -11q-29 -8 -39.5 24t1.5 88q11 29 11 42q3 16 29 97.5t43 130.5q1 15 28 1q31 -17 22 -30zM383 743q0 16 16 16q5 5 16 5l16 -16q11 -10 11 -27t-1 -22.5t-2 -10t-5 -13.5t-7 -16t-12 -25.5t-14.5 -31t-25 -57.5t-36 -83.5 t-16.5 -40.5t-1.5 -6.5t-4.5 -12.5q-6 -14 -20 -46q-5 -18 -30 -5.5t-23 28.5q1 3 16 37t69 175.5t54 151.5z" />
<glyph unicode="&#xa7;" horiz-adv-x="385" d="M326 303q-15 17 -27 33q-9 -7 -44 -45q-18 -23 -18 -41l11 -3q22 -19 57 -8.5t39 32.5q-8 2 -18 32zM313 413q0 -9 10 -29t18 -21q10 -22 32 -42q36 -58 26.5 -88t-68.5 -44q-42 -11 -78 4q7 -12 12 -16q13 -22 32 -37q36 -61 26.5 -90.5t-68.5 -40.5q-39 -9 -69.5 0.5 t-43.5 33t-2 31.5q6 1 16.5 -4.5t15.5 -7.5q23 -14 57.5 -2.5t38.5 30.5q0 1 -7.5 13.5t-10.5 21.5q-31 31 -49.5 67t-18.5 62q-12 36 27 73q19 28 59 62q-10 23 -10 43q-11 32 25 81q57 64 117 92q47 0 56 -3t21.5 -19.5t15.5 -32.5q0 -7 -5.5 -30t-9 -31t-6 -13t-2.5 -7 q-3 -19 -20.5 -11t-23.5 22q-8 32 -3 45q17 20 6 20q-3 0 -6 -1q-12 0 -44 -24q-39 -28 -59 -60q-9 -15 -8 -26.5t1 -20.5z" />
<glyph unicode="&#xa8;" horiz-adv-x="353" d="M273 528q16 16 28.5 9.5t17.5 -22.5q8 -15 6 -24.5t-16 -27.5q-34 -46 -59 4q-5 10 -3 15q9 31 20 40zM401 528q16 16 28.5 9.5t17.5 -22.5q8 -15 6 -24.5t-16 -27.5q-34 -46 -59 4q-5 10 -3 15q9 31 20 40z" />
<glyph unicode="&#xa9;" horiz-adv-x="496" d="M415 232l-16 -3q-18 0 -38.5 -8.5t-55.5 1.5q-6 0 -21 19q-26 40 12 117q6 25 47 76q12 7 49 16q25 -1 46.5 -19.5t16.5 -32.5q0 -1 -6.5 -8.5t-9.5 -12t-8 -5t-10 5.5t-5 14q-14 20 -28.5 17t-24.5 -15t-14 -25q-12 -13 -15.5 -31t-5.5 -29.5t-3.5 -18t0 -17t4.5 -12.5 q41 -14 103 34q9 7 13.5 -2.5t7.5 -10.5q-1 -17 -12.5 -30.5t-25.5 -19.5zM510 409q0 11 -38 64q-66 50 -126 25q-97 -29 -124 -138q-14 -46 -15 -60.5t12 -37.5q-2 -11 2.5 -25t5 -20t22.5 -33t39 -31q16 -14 50 -8t75 29q26 12 57 38.5t30 39.5q-2 5 0 11t6 7 q14 12 18.5 55.5t-5 62.5t-9.5 21zM579 345v-6q5 -8 0.5 -48.5t-8.5 -41.5q-5 -3 -3 -4t-3 -8q-13 -18 -26 -21q-2 -2 3 -3q3 -2 -14 -21t-44 -40.5t-47 -28.5l-8 -8q-7 -10 -31.5 -17.5t-43.5 -5.5q-135 -3 -171 101q-12 20 -15 40t-4.5 24t-2 8t-1.5 7.5t-0.5 23t2.5 22.5 q3 6 1 11q-8 17 18 81t37 70q2 0 2 3q0 14 98 65q123 61 216 -71q3 -10 12.5 -25.5t9.5 -19.5q13 -19 19.5 -47.5t2.5 -32.5q1 -2 1 -7z" />
<glyph unicode="&#xaa;" horiz-adv-x="350" d="M367 591q-15 0 -48.5 -46.5t-55.5 -92t-28 -69.5q2 -4 18.5 7t26.5 20q58 60 97 117l17 29q-16 35 -27 35zM182 354q0 10 -3 14h1q-14 14 41 131q6 6 22 35q0 5 8 9v6q0 8 27 39.5t45 45t38 15.5t35 -11l36 -39l31 -31l-13 -44q-7 -22 -7 -49t20 -69q8 -15 31 -19 q23 -6 23 -21q0 -18 -20 -23q-26 -4 -52 16.5t-44 57.5q-8 13 -12 27q-3 -4 -10 -12t-8 -10q-88 -98 -142 -98q-20 0 -32 9l-2 1l-6 12q-7 7 -7 8z" />
<glyph unicode="&#xab;" horiz-adv-x="646" d="M614 427q-3 -14 -11.5 -21.5t-26.5 -21.5q-36 -28 -101 -85q-58 -53 -66.5 -67.5t-6.5 -26.5q11 -26 49.5 -63.5t101.5 -72.5q55 -27 64 -51q4 -12 -11 -16q-39 -4 -78 14q-21 12 -30 16t-17 8.5t-12 7.5t-9 7q-10 7 -18 17q-54 31 -88 93l-24 42l-7 30q8 2 31 21 q21 26 110 102q34 25 74 65q20 22 26 22q8 3 15.5 -2t15.5 -7q18 -4 19 -11zM414 427q-3 -14 -11.5 -21.5t-26.5 -21.5q-36 -28 -101 -85q-58 -53 -66.5 -67.5t-6.5 -26.5q11 -26 49.5 -63.5t101.5 -72.5q55 -27 64 -51q4 -12 -11 -16q-39 -4 -78 14q-21 12 -30 16t-17 8.5 t-12 7.5t-9 7q-10 7 -18 17q-54 31 -88 93l-24 42l-7 30q8 2 31 21q21 26 110 102q34 25 74 65q20 22 26 22q8 3 15.5 -2t15.5 -7q18 -4 19 -11z" />
<glyph unicode="&#xac;" horiz-adv-x="465" d="M427 311q26 0 35 -2.5t20 -12.5q20 -21 8 -33q3 -33 3 -65t-2.5 -41t-12.5 -20q-15 -16 -28.5 -11t-9.5 27l-8 102q-101 -7 -237 -7q-20 0 -35 5q-21 0 -29 14q-11 15 -3 19q10 7 47 11q63 14 252 14z" />
<glyph unicode="&#xad;" horiz-adv-x="326" d="M158 227q63 14 110.5 14t56.5 -2.5t20 -12.5q16 -15 11 -28.5t-27 -9.5q-126 -10 -148.5 -10t-37.5 5q-21 0 -29 14q-11 15 -3 19q10 7 47 11z" />
<glyph unicode="&#xae;" horiz-adv-x="496" d="M382 422l-13 -12q0 -6 -4.5 -15t-8.5 -11q-21 -67 -13 -69q15 4 28.5 15t18.5 21q6 3 20 22q4 7 4 24q4 8 -3 13q-3 4 -29 12zM331 447q0 11 32 8t37 -7q13 -1 25.5 -7t12.5 -9q17 -15 19 -36q0 -21 -14 -40q-16 -30 -50 -54l-12 -13q2 -6 15.5 -21t20.5 -18q9 4 13 0 t1 -20q-7 -14 -10 -15t-17 9q-15 3 -24 11.5t-21.5 18.5t-18 15t-19.5 6l-8 -21q0 -12 -6 -33q-4 -11 -14.5 -11.5t-18.5 8.5t-4.5 25t17.5 52q0 22 4 22q7 44 35 81q0 11 1 15q2 7 -4.5 15t8.5 19zM510 409q0 11 -38 64q-66 50 -126 25q-97 -29 -124 -138 q-14 -46 -15 -60.5t12 -37.5q-2 -11 2.5 -25t5 -20t22.5 -33t39 -31q16 -14 50 -8t75 29q26 12 57 38.5t30 39.5q-2 5 0 11t6 7q14 12 18.5 55.5t-5 62.5t-9.5 21zM579 345v-6q5 -8 0.5 -48.5t-8.5 -41.5q-5 -3 -3 -4t-3 -8q-13 -18 -26 -21q-2 -2 3 -3q3 -2 -14 -21 t-44 -40.5t-47 -28.5l-8 -8q-7 -10 -31.5 -17.5t-43.5 -5.5q-135 -3 -171 101q-12 20 -15 40t-4.5 24t-2 8t-1.5 7.5t-0.5 23t2.5 22.5q3 6 1 11q-8 17 18 81t37 70q2 0 2 3q0 14 98 65q123 61 216 -71q3 -10 12.5 -25.5t9.5 -19.5q13 -19 19.5 -47.5t2.5 -32.5q1 -2 1 -7z " />
<glyph unicode="&#xaf;" horiz-adv-x="353" d="M383 465l-82 -4q-20 0 -32 4q-22 0 -30 13.5t-0.5 19t60.5 13t98.5 7.5t61.5 -12q14 -15 9.5 -27.5t-25.5 -10.5q-30 -3 -60 -3z" />
<glyph unicode="&#xb0;" horiz-adv-x="283" d="M362 671q-49 0 -68 -31t-19 -72q0 -90 47 -90q22 0 53 34.5t30 77t-10.5 62t-32.5 19.5zM335 724q58 0 96.5 -31.5t38.5 -90.5q0 -33 -9 -58t-17.5 -35.5t-32.5 -38.5q-37 -44 -78 -44q-54 0 -79 25q-13 13 -17 19.5t-10.5 18t-10.5 25.5q-9 38 -9 51t9 41q15 52 47 80 q5 5 15.5 13t13.5 11q31 14 43 14z" />
<glyph unicode="&#xb1;" horiz-adv-x="446" d="M410 81q26 0 35 -2.5t20 -12.5q16 -15 11 -28.5t-27 -9.5q-126 -10 -271 -10q-20 0 -35 5q-21 0 -29 14q-11 15 -3 19q10 7 47 11q63 14 252 14zM318 354l2 -45q72 2 94 2t31 -2.5t20 -12.5q16 -15 11 -28.5t-27 -9.5l-63 -5l-64 -2q1 -27 1 -53t-5 -38q0 -17 -14 -23 q-15 -8 -20.5 -1.5t-9.5 36.5q-7 25 -10 77q-36 -1 -71 -1t-50 5q-21 0 -29 14q-11 15 -3 19q10 7 47 11q32 7 103 10q-1 27 -1 57t2.5 37t12.5 16q15 12 28.5 9t9.5 -21z" />
<glyph unicode="&#xb2;" horiz-adv-x="320" d="M197 399q14 24 14 30l14 10h-2l21 21h-1q43 45 48 51q42 42 44 51q6 8 12 11l19 17q7 16 23 36l18 36q2 7 0 9q-9 10 -39 10t-58 -19q-11 -2 -20 -7t-22 -2l-15 18l-9 17l27 16q70 43 106 28l22 -4q12 -1 27 -16q32 -32 32 -59.5t-24 -61.5q-6 -9 -45 -52t-47 -49.5 t-28 -25.5q-57 -56 -51 -56l3 -2q32 11 75 16.5t53 2.5q21 6 66 -9q8 -3 11 -8.5t6 -8.5q33 -30 -40 -16l-58 -6h-6q-21 3 -47 -6.5t-66.5 -19t-48.5 -6.5q-20 9 -29 26q0 6 5.5 17t9.5 11z" />
<glyph unicode="&#xb3;" horiz-adv-x="320" d="M457 437q0 -53 -60 -95q-45 -29 -103 -32q-32 0 -57 11t-24 26.5t7 18t27 -0.5q36 -9 79.5 5.5t62.5 36t19 43.5q0 36 -59 54q-27 9 -45 11q-13 -4 -30 7q-1 1 -17 25q-1 7 11.5 16.5t58.5 37.5q78 47 106 72h-1q13 18 10 23.5t-11 7.5q-48 4 -53 -2q-6 2 -28.5 -2.5 t-23.5 -7.5t-19 -9t-21 -5q-6 1 -14.5 16t-8.5 24q8 13 48 32q38 10 101 7h1q71 -8 81 -66q3 -16 -2 -27q-13 -26 -40 -46l-61 -41l-28 -22l17 -13q37 -18 67 -61q10 -27 10 -44z" />
<glyph unicode="&#xb4;" horiz-adv-x="353" d="M432 585q17 10 41 -28q4 -10 -14 -28t-44.5 -39.5t-34.5 -32.5q-10 -17 -15.5 -19t-17.5 6q-7 6 -10.5 19.5t-2 21t42.5 51.5t55 49z" />
<glyph unicode="&#xb5;" horiz-adv-x="370" d="M301 93v19q-6 -15 -22 -27q-23 -23 -46 -34q-32 -20 -51 -22.5t-38 14.5l-11 -40q-55 -165 -64 -176q-11 4 -22 17.5t-11 24t16 60.5q53 166 64.5 226.5t41.5 125.5q32 63 46 84q32 11 37 -20q12 -19 -27 -93q-60 -142 -27 -155q11 -7 31.5 1t51 43.5t50 82.5t22.5 83 q-5 25 17 38q4 6 10.5 9.5t9.5 -0.5l16 1q3 0 6 -6t6 -8q23 -19 -22 -123q-32 -67 -32.5 -104t28.5 -62q15 -10 13 -37q-4 -14 -22 -18.5t-33 5.5q-24 23 -36 68q-2 6 -2 23z" />
<glyph unicode="&#xb6;" horiz-adv-x="424" d="M398 264q0 2 1 6t2 10.5t3 11t6 12.5q5 12 10 26l11 16q-5 0 6.5 22t25.5 71q29 61 38 76q12 38 12 47q-47 9 -52 -9q-4 -10 -31 -56q-5 -13 -19 -44t-17 -41q-17 -34 -28 -63q-17 -34 -23 -57q-2 -4 -28 -68t-40 -86q-2 -6 -4.5 -19t-3.5 -16t-52 -143q-7 -10 -12 -11 t-22 4q-25 22 -8 45q0 1 11 32q24 85 51 128q2 6 6 22q10 36 30 63l15 48q-5 1 -25 1t-42 4q-65 24 -53 113q1 3 5.5 18t6 19.5t6.5 17.5t8.5 19.5t9.5 16.5q11 18 28 30q42 30 67.5 43t77.5 34q32 0 81 7q68 -5 98.5 -17t26.5 -33t-7.5 -26.5t-17 -33t-21.5 -40.5 q-16 -32 -35 -85q-18 -34 -27 -64q-7 -12 -13 -23q-4 -26 -31 -78q-30 -71 -34 -94q-3 -6 -14.5 -34t-19.5 -42l-12 -42h-19q-2 1 -7 3q-12 5 -17 11q-3 11 2 39q17 32 19 33q4 3 5.5 17t16.5 37l8 26q0 6 11.5 28t15.5 38q11 30 14 30z" />
<glyph unicode="&#xb7;" horiz-adv-x="187" d="M184 346q23 16 45 -19q8 -20 5 -31.5t-22 -34.5q-27 -36 -54 -13q-12 10 -13 25t1 16q8 1 18.5 17.5t10 27t9.5 12.5z" />
<glyph unicode="&#xb8;" horiz-adv-x="353" d="M135.5 -139q6.5 0 13.5 1q13 0 21 15t-19.5 47.5t-33.5 38.5q-8 11 -10 17.5t1 17.5q7 22 76 55l33 -23q-56 -27 -56 -47q6 -9 19 -25q30 -35 34 -52q9 -34 -6 -56q-37 -51 -147 -15q-15 5 -17 17.5t7.5 21t18 6t19 -6t16 -5.5t15 -4.5t16 -2.5z" />
<glyph unicode="&#xb9;" horiz-adv-x="320" d="M389 726q61 43 76 41q19 -10 24 -24q2 -11 -12 -49.5t-34.5 -109.5t-22.5 -75t-2 -9q-8 -22 -14 -51q-17 -41 -25 -89q-16 -46 -20 -50q-11 -11 -33 13q-8 10 0 44l18 77q8 4 52 172l15 55q-20 -13 -55 -42q-11 -7 -30.5 -24t-34.5 -26q-21 -19 -27.5 -21.5t-16.5 3.5 q-26 23 -15 43q7 2 31.5 22t27.5 21t22 17h-1q8 8 27 22.5t22 17t7 4.5z" />
<glyph unicode="&#xba;" horiz-adv-x="283" d="M373 511q4 12 4 36t-4 28h1q-20 13 -50.5 -17t-71.5 -131q-8 -26 -8 -36q0 -27 16 -27q23 0 59 45t54 102zM188 426q2 2 2 3l6 2q-2 5 -3 8q3 33 28 79q55 98 126 118q19 7 28 5.5t21 -14.5q36 -20 40 -61q6 -69 -42 -148q-18 -29 -34.5 -44t-44.5 -35h1q-30 -23 -66 -26 q-17 0 -41 24q-26 30 -20 64v18l2 -1q-5 5 -1 9z" />
<glyph unicode="&#xbb;" horiz-adv-x="708" d="M385 20q3 14 11.5 21.5t26.5 20.5q36 29 101 86q58 53 66.5 67.5t6.5 26.5q-11 26 -49.5 63.5t-101.5 72.5q-55 27 -64 51q-4 12 11 16q39 4 78 -14q21 -12 30 -16t17 -8.5t12 -7.5t9 -7q10 -7 18 -17q54 -31 88 -93l24 -42l7 -30q-8 -2 -31 -21q-21 -26 -110 -102 q-34 -25 -74 -65q-20 -22 -26 -22q-8 -3 -15.5 2t-15.5 7q-18 4 -19 11zM185 20q3 14 11.5 21.5t26.5 20.5q36 29 101 86q58 53 66.5 67.5t6.5 26.5q-11 26 -49.5 63.5t-101.5 72.5q-55 27 -64 51q-4 12 11 16q39 4 78 -14q21 -12 30 -16t17 -8.5t12 -7.5t9 -7q10 -7 18 -17 q54 -31 88 -93l24 -42l7 -30q-8 -2 -31 -21q-21 -26 -110 -102q-34 -25 -74 -65q-20 -22 -26 -22q-8 -3 -15.5 2t-15.5 7q-18 4 -19 11z" />
<glyph unicode="&#xbc;" horiz-adv-x="800" d="M748 208h4q0 2 1 15l56 131q13 33 20 33q17 0 20 -14v1q14 -18 -5 -56q-93 -215 -111 -299q-3 -14 2 -29q2 -28 -20 -38q-20 -8 -27 12v-1q-11 17 12 111q6 24 7 33l13 37q-7 -2 -22 -8q-26 -6 -47 -6q-36 0 -51 29q-6 8 -9 25t3 25q21 53 22 55.5t1 6.5q7 16 43 71 q37 59 47 69q22 15 31 1q8 -27 5 -33q-10 -23 -29 -42h1q-43 -67 -65 -114q-13 -39 -10 -42q16 -4 50 8q35 8 46 14q12 0 12 5zM349 626q61 43 76 41q19 -10 24 -24q2 -11 -12 -49.5t-34.5 -109.5t-22.5 -75t-2 -9q-8 -22 -14 -51q-17 -41 -25 -89q-16 -46 -20 -50 q-11 -11 -33 13q-8 10 0 44l18 77q8 4 52 172l15 55q-20 -13 -55 -42q-11 -7 -30.5 -24t-34.5 -26q-21 -19 -27.5 -21.5t-16.5 3.5q-26 23 -15 43q7 2 31.5 22t27.5 21t22 17h-1q8 8 27 22.5t22 17t7 4.5zM504 290q0 -12 -34 -41q-159 -191 -179 -231q-13 -31 -24 -32 q-27 4 -25.5 35t33.5 76q22 18 25 28q8 13 84.5 99t78.5 90q4 -1 9 4t9.5 18t21.5 17q1 2 4.5 7t4 7.5t4.5 7t5 7.5q27 23 142.5 141.5t121.5 130t18 5.5q7 4 16 0q1 -6 9 -21q8 -17 -16 -52q-3 -3 -10 -9.5t-12 -11.5t-19 -17.5t-23.5 -22t-41.5 -40.5t-60 -58t-29 -29 q-11 -2 -20 -20q-73 -73 -74.5 -75.5t-14.5 -7.5z" />
<glyph unicode="&#xbd;" horiz-adv-x="800" d="M511 49q14 24 14 30l14 10h-2l21 21h-1q43 45 48 51q42 42 44 51q6 8 12 11l19 17q7 16 23 36l18 36q2 7 0 9q-9 10 -39 10t-58 -19q-11 -2 -20 -7t-22 -2l-15 18l-9 17l27 16q70 43 106 28l22 -4q12 -1 27 -16q32 -32 32 -59.5t-24 -61.5q-6 -9 -45 -52t-47 -49.5 t-28 -25.5q-57 -56 -51 -56l3 -2q32 11 75 16.5t53 2.5q21 6 66 -9q8 -3 11 -8.5t6 -8.5q33 -30 -40 -16l-58 -6h-6q-21 3 -47 -6.5t-66.5 -19t-48.5 -6.5q-20 9 -29 26q0 6 5.5 17t9.5 11zM349 626q61 43 76 41q19 -10 24 -24q2 -11 -12 -49.5t-34.5 -109.5t-22.5 -75 t-2 -9q-8 -22 -14 -51q-17 -41 -25 -89q-16 -46 -20 -50q-11 -11 -33 13q-8 10 0 44l18 77q8 4 52 172l15 55q-20 -13 -55 -42q-11 -7 -30.5 -24t-34.5 -26q-21 -19 -27.5 -21.5t-16.5 3.5q-26 23 -15 43q7 2 31.5 22t27.5 21t22 17h-1q8 8 27 22.5t22 17t7 4.5zM473 290 q0 -12 -34 -41q-159 -191 -179 -231q-13 -31 -24 -32q-27 4 -25.5 35t33.5 76q22 18 25 28q8 13 84.5 99t78.5 90q4 -1 9 4t9.5 18t21.5 17q1 2 4.5 7t4 7.5t4.5 7t5 7.5q27 23 142.5 141.5t121.5 130t18 5.5q7 4 16 0q1 -6 8 -21q9 -17 -16 -52q-2 -3 -9 -9.5t-12 -11.5 t-19 -17.5t-23.5 -22t-41.5 -40.5t-60 -58t-29 -29q-11 -2 -20 -20q-73 -73 -74.5 -75.5t-14.5 -7.5z" />
<glyph unicode="&#xbe;" horiz-adv-x="800" d="M748 208h4q0 2 1 15l56 131q13 33 20 33q17 0 20 -14v1q14 -18 -5 -56q-93 -215 -111 -299q-3 -14 2 -29q2 -28 -20 -38q-20 -8 -27 12v-1q-11 17 12 111q6 24 7 33l13 37q-7 -2 -22 -8q-26 -6 -47 -6q-36 0 -51 29q-6 8 -9 25t3 25q21 53 22 55.5t1 6.5q7 16 43 71 q37 59 47 69q22 15 31 1q8 -27 5 -33q-10 -23 -29 -42h1q-43 -67 -65 -114q-13 -39 -10 -42q16 -4 50 8q35 8 46 14q12 0 12 5zM417 337q0 -53 -60 -95q-45 -29 -103 -32q-32 0 -57 11t-24 26.5t7 18t27 -0.5q36 -9 79.5 5.5t62.5 36t19 43.5q0 36 -59 54q-27 9 -45 11 q-13 -4 -30 7q-1 1 -17 25q-1 7 11.5 16.5t58.5 37.5q78 47 106 72h-1q13 18 10 23.5t-11 7.5q-48 4 -53 -2q-6 2 -28.5 -2.5t-23.5 -7.5t-19 -9t-21 -5q-6 1 -14.5 16t-8.5 24q8 13 48 32q38 10 101 7h1q71 -8 81 -66q3 -16 -2 -27q-13 -26 -40 -46l-61 -41l-28 -22l17 -13 q37 -18 67 -61q10 -27 10 -44zM518 290q0 -12 -34 -41q-159 -191 -179 -231q-13 -31 -24 -32q-27 4 -25.5 35t33.5 76q22 18 25 28q8 13 84.5 99t78.5 90q4 -1 9 4t9.5 18t21.5 17q1 2 4.5 7t4 7.5t4.5 7t5 7.5q27 23 142.5 141.5t121.5 130t18 5.5q7 4 16 0q1 -6 9 -21 q8 -17 -16 -52q-3 -3 -10 -9.5t-12 -11.5t-19 -17.5t-23.5 -22t-41.5 -40.5t-60 -58t-29 -29q-11 -2 -20 -20q-73 -73 -74.5 -75.5t-14.5 -7.5z" />
<glyph unicode="&#xbf;" horiz-adv-x="374" d="M372 417q-18 -11 -26.5 -12t-26.5 7q-30 19 -26.5 42t40.5 41q34 14 59 -5q36 -35 -20 -73zM258 -37l-5 27q6 2 25.5 1t28.5 -5q14 -19 15 -26.5t0.5 -15t-0.5 -12.5q-29 -89 -94 -122l-50 -24q-9 0 -33 -3q-4 1 -9 1q-12 -2 -12 3h-29q-45 13 -68 39q-15 45 4 124 t58 122q1 1 36 33t48 46q32 18 58.5 54.5t40.5 76.5q11 24 15.5 28t18.5 3.5t21.5 -11.5t7.5 -23.5t-1.5 -20t-4 -14t-8 -18.5t-8.5 -21q-11 -19 -33.5 -44.5t-39.5 -37.5l-17 -12q0 -4 -14 -15t-24 -16q-23 -16 -33 -25q-31 -32 -41 -58t-23 -91q-2 -34 -0.5 -47.5 t12.5 -21.5q32 -17 82 10.5t72 76.5q8 24 4 39z" />
<glyph unicode="&#xc0;" horiz-adv-x="502" d="M506 864q19 -7 42.5 -60.5t24 -62.5t-6 -18.5t-14.5 -11.5q-12 -8 -16.5 -5t-10.5 21q-4 8 -23 37q-43 64 -29 81q24 21 33 19zM448 305h2q2 6 12 109q8 77 15 186q-10 0 -47.5 -50t-66.5 -107q-27 -49 -33 -49q-7 -7 -33 -54t-21 -51q37 8 62 9q60 14 77 16t24 -2 q5 -7 9 -7zM538 593q0 -11 -0.5 -22t-2 -28t-2.5 -29.5t-3 -33.5t-3 -37t-12 -121q-22 -216 -17 -307q1 -7 0 -18t-1 -12q-9 -10 -33 -4t-27 20q-5 4 -5 8.5t4 80.5l5 162l-13 -1q-20 0 -89 -8t-86 -13q-21 0 -45 -43q-6 -15 -15.5 -31.5t-9.5 -18.5l-16 -19q0 -11 -21 -56 q-19 -43 -61 -107l-16 12q-16 8 -19 17.5t5.5 30t27 56t52 100t33.5 74.5q-4 15 15 24q23 23 38 49q12 28 105 186q37 66 95 144q23 31 40 30.5t41 -18.5q31 -23 35 -50q1 -6 1 -17z" />
<glyph unicode="&#xc1;" horiz-adv-x="502" d="M568 855q17 10 41 -28q4 -10 -14 -28t-44.5 -39.5t-34.5 -32.5q-10 -17 -15.5 -19t-17.5 6q-7 6 -10.5 19.5t-2 21t42.5 51.5t55 49zM448 305h2q2 6 12 109q8 77 15 186q-10 0 -47.5 -50t-66.5 -107q-27 -49 -33 -49q-7 -7 -33 -54t-21 -51q37 8 62 9q60 14 77 16t24 -2 q5 -7 9 -7zM538 593q0 -11 -0.5 -22t-2 -28t-2.5 -29.5t-3 -33.5t-3 -37t-12 -121q-22 -216 -17 -307q1 -7 0 -18t-1 -12q-9 -10 -33 -4t-27 20q-5 4 -5 8.5t4 80.5l5 162l-13 -1q-20 0 -89 -8t-86 -13q-21 0 -45 -43q-6 -15 -15.5 -31.5t-9.5 -18.5l-16 -19q0 -11 -21 -56 q-19 -43 -61 -107l-16 12q-16 8 -19 17.5t5.5 30t27 56t52 100t33.5 74.5q-4 15 15 24q23 23 38 49q12 28 105 186q37 66 95 144q23 31 40 30.5t41 -18.5q31 -23 35 -50q1 -6 1 -17z" />
<glyph unicode="&#xc2;" horiz-adv-x="502" d="M388 740q2 9 9 18t40.5 38t52.5 39q19 16 31 -2q16 -13 44.5 -42t37.5 -41t-4 -30q-14 -20 -41 13q-20 24 -54 53q-17 -10 -49.5 -38t-41.5 -31t-14.5 0t-9 8.5t-1.5 14.5zM448 305h2q2 6 12 109q8 77 15 186q-10 0 -47.5 -50t-66.5 -107q-27 -49 -33 -49q-7 -7 -33 -54 t-21 -51q37 8 62 9q60 14 77 16t24 -2q5 -7 9 -7zM538 593q0 -11 -0.5 -22t-2 -28t-2.5 -29.5t-3 -33.5t-3 -37t-12 -121q-22 -216 -17 -307q1 -7 0 -18t-1 -12q-9 -10 -33 -4t-27 20q-5 4 -5 8.5t4 80.5l5 162l-13 -1q-20 0 -89 -8t-86 -13q-21 0 -45 -43 q-6 -15 -15.5 -31.5t-9.5 -18.5l-16 -19q0 -11 -21 -56q-19 -43 -61 -107l-16 12q-16 8 -19 17.5t5.5 30t27 56t52 100t33.5 74.5q-4 15 15 24q23 23 38 49q12 28 105 186q37 66 95 144q23 31 40 30.5t41 -18.5q31 -23 35 -50q1 -6 1 -17z" />
<glyph unicode="&#xc3;" horiz-adv-x="502" d="M650 766q-66 -37 -76 -37t-16 1t-9.5 2t-10.5 5t-9 5t-11 7.5t-10.5 7.5t-21.5 18t-30.5 17t-23 -17t-22.5 -18q-2 -13 -10 -16q-10 2 -17 9.5t-6 17t17 31.5t46 37q13 5 34 -0.5t31.5 -14.5t19 -17.5t11.5 -11t9.5 -7t10.5 -5.5q16 -2 47.5 16t43 22.5t19.5 -4.5 t7 -16.5t-8 -17.5t-15 -14zM448 305h2q2 6 12 109q8 77 15 186q-10 0 -47.5 -50t-66.5 -107q-27 -49 -33 -49q-7 -7 -33 -54t-21 -51q37 8 62 9q60 14 77 16t24 -2q5 -7 9 -7zM538 593q0 -11 -0.5 -22t-2 -28t-2.5 -29.5t-3 -33.5t-3 -37t-12 -121q-22 -216 -17 -307 q1 -7 0 -18t-1 -12q-9 -10 -33 -4t-27 20q-5 4 -5 8.5t4 80.5l5 162l-13 -1q-20 0 -89 -8t-86 -13q-21 0 -45 -43q-6 -15 -15.5 -31.5t-9.5 -18.5l-16 -19q0 -11 -21 -56q-19 -43 -61 -107l-16 12q-16 8 -19 17.5t5.5 30t27 56t52 100t33.5 74.5q-4 15 15 24q23 23 38 49 q12 28 105 186q37 66 95 144q23 31 40 30.5t41 -18.5q31 -23 35 -50q1 -6 1 -17z" />
<glyph unicode="&#xc4;" horiz-adv-x="502" d="M457 828q16 16 28.5 9.5t17.5 -22.5q8 -15 6 -24.5t-16 -27.5q-34 -46 -59 4q-5 10 -3 15q9 31 20 40zM585 828q16 16 28.5 9.5t17.5 -22.5q8 -15 6 -24.5t-16 -27.5q-34 -46 -59 4q-5 10 -3 15q9 31 20 40zM448 305h2q2 6 12 109q8 77 15 186q-10 0 -47.5 -50 t-66.5 -107q-27 -49 -33 -49q-7 -7 -33 -54t-21 -51q37 8 62 9q60 14 77 16t24 -2q5 -7 9 -7zM538 593q0 -11 -0.5 -22t-2 -28t-2.5 -29.5t-3 -33.5t-3 -37t-12 -121q-22 -216 -17 -307q1 -7 0 -18t-1 -12q-9 -10 -33 -4t-27 20q-5 4 -5 8.5t4 80.5l5 162l-13 -1 q-20 0 -89 -8t-86 -13q-21 0 -45 -43q-6 -15 -15.5 -31.5t-9.5 -18.5l-16 -19q0 -11 -21 -56q-19 -43 -61 -107l-16 12q-16 8 -19 17.5t5.5 30t27 56t52 100t33.5 74.5q-4 15 15 24q23 23 38 49q12 28 105 186q37 66 95 144q23 31 40 30.5t41 -18.5q31 -23 35 -50 q1 -6 1 -17z" />
<glyph unicode="&#xc5;" horiz-adv-x="502" d="M537 814q-38 0 -38 -50q0 -11 8.5 -22.5t16.5 -11.5q40 0 38.5 42t-25.5 42zM480.5 823.5q19.5 31.5 51.5 31.5t53 -15t21 -49t-21.5 -67.5t-56.5 -33.5q-60 0 -67 70q0 32 19.5 63.5zM448 305h2q2 6 12 109q8 77 15 186q-10 0 -47.5 -50t-66.5 -107q-27 -49 -33 -49 q-7 -7 -33 -54t-21 -51q37 8 62 9q60 14 77 16t24 -2q5 -7 9 -7zM538 593q0 -11 -0.5 -22t-2 -28t-2.5 -29.5t-3 -33.5t-3 -37t-12 -121q-22 -216 -17 -307q1 -7 0 -18t-1 -12q-9 -10 -33 -4t-27 20q-5 4 -5 8.5t4 80.5l5 162l-13 -1q-20 0 -89 -8t-86 -13q-21 0 -45 -43 q-6 -15 -15.5 -31.5t-9.5 -18.5l-16 -19q0 -11 -21 -56q-19 -43 -61 -107l-16 12q-16 8 -19 17.5t5.5 30t27 56t52 100t33.5 74.5q-4 15 15 24q23 23 38 49q12 28 105 186q37 66 95 144q23 31 40 30.5t41 -18.5q31 -23 35 -50q1 -6 1 -17z" />
<glyph unicode="&#xc6;" horiz-adv-x="784" d="M298 261q96 5 137 5q5 19 10 23.5t13 28.5q0 11 6 25q15 25 15 33q15 22 19 33q55 97 69 138q-36 4 -60 4q-4 5 -42.5 -35t-46 -50.5t-14.5 -21t-19 -27.5t-21 -30q-86 -114 -66 -126zM672 50l30 5q8 11 20 11q3 0 17 -16t13 -20q0 -9 -16.5 -17.5t-42.5 -19t-45.5 -18.5 t-31.5 -13q-26 -10 -69 -10t-72.5 5.5t-52.5 23.5q-31 23 -35.5 60.5t14.5 108.5q7 39 16 56h-12q-25 -4 -144 3q-37 -46 -57 -80q-34 -63 -55 -88q-36 -54 -46 -54q-20 0 -30 9q-35 17 15 76l15 21q2 7 35.5 56.5t41.5 53.5q21 20 3 38q-13 5 -1.5 14.5t22.5 9.5q4 2 8.5 4 t5.5 3q5 3 6 7.5t31.5 51t44.5 61.5q10 18 35 56q7 5 41 55q26 23 54 58q10 17 42 51q23 22 33.5 26.5t24 -1t25.5 -8.5t33.5 -6.5t34.5 -6.5q46 17 86 20q9 6 49 7.5t75 -1.5q23 0 61 -18q8 -8 12 -30q0 -7 -59 -7t-101 -6t-45 -6l-35 -6q-4 0 -35 -51.5t-32 -58.5 q0 -12 -25 -46.5t-9 -41.5q90 14 141 14q25 7 44 -4q11 -2 17 -7q13 -12 -3 -19q-13 -13 -116.5 -37t-116.5 -21q-4 10 -6 5.5t-8 -22t-17 -42.5q-30 -67 -45 -150q-10 -26 -4 -43.5t36 -31.5q55 -10 130 9q14 8 33.5 17.5t21.5 10.5z" />
<glyph unicode="&#xc7;" horiz-adv-x="482" d="M499 94q0 -29 -55 -62q-20 -20 -48 -31q-62 -47 -129 -57q-29 -16 -29 -33q6 -9 20 -25q29 -35 33 -52q9 -34 -7 -56q-36 -51 -146 -15q-15 5 -17 17.5t7.5 21t18 6t19 -6t16 -5.5t15 -4.5t16 -2.5t13.5 1q13 0 21 15t-19.5 47.5t-36.5 41t-8 24t25 32.5q-49 19 -67 65 q-18 48 -16 122q0 89 31 169q1 2 14 33t24 56t54 87q61 94 106 129q17 14 72 52q33 24 74 14.5t58 -45.5q22 -42 2 -112.5t-62 -109.5q-15 -11 -23.5 -9t-24.5 16q-12 22 -10 23t4 1q9 11 26.5 42.5t23.5 49.5q3 20 5.5 28.5t3.5 16t1.5 11t1 8t0 7.5t-1.5 6q0 4 -6.5 10.5 t-34.5 -8.5q-24 -10 -61 -45t-67 -76q-87 -114 -108 -178l-11 -26q3 -16 -12 -46q-17 -70 -12.5 -142t27.5 -94q25 -18 109 17q14 5 50 20t61 38q26 19 42 19q13 5 15.5 4t2.5 -9z" />
<glyph unicode="&#xc8;" horiz-adv-x="548" d="M528 864q19 -7 42.5 -60.5t24 -62.5t-6 -18.5t-14.5 -11.5q-12 -8 -16.5 -5t-10.5 21q-4 8 -23 37q-43 64 -29 81q24 21 33 19zM234 40l40 -3q24 0 42 8q106 18 132 36q11 5 18 5q-2 -3 0 -3q4 2 18 17q26 22 51 29.5t26 3.5q9 -16 -14.5 -47.5t-70.5 -57.5 q-93 -50 -226 -52q-27 2 -44 12q-36 23 -60 42q-61 61 -38 162q10 49 25 80q22 53 97 170l6 8q0 7 29 62q25 27 14 42q-5 8 24 29t51 34q23 18 46.5 20.5t26.5 -9.5q9 -3 33.5 2.5t32.5 6.5q7 9 67 16l55 2q20 7 34 -24q7 -19 -5 -28t-91.5 -19t-118 -18t-56 -20t-39.5 -46 q-9 -6 -40 -68q-70 -95 -65 -101q21 -6 26 -6q8 4 48 11q159 41 180 44q29 17 49 -18q10 -21 -19 -33t-130.5 -39.5t-135 -29.5t-36.5 17q-7 3 -16 -10.5t-16 -36t-13 -48.5q-13 -58 -4.5 -82.5t22 -37.5t45.5 -22z" />
<glyph unicode="&#xc9;" horiz-adv-x="548" d="M590 855q17 10 41 -28q4 -10 -14 -28t-44.5 -39.5t-34.5 -32.5q-10 -17 -15.5 -19t-17.5 6q-7 6 -10.5 19.5t-2 21t42.5 51.5t55 49zM234 40l40 -3q24 0 42 8q106 18 132 36q11 5 18 5q-2 -3 0 -3q4 2 18 17q26 22 51 29.5t26 3.5q9 -16 -14.5 -47.5t-70.5 -57.5 q-93 -50 -226 -52q-27 2 -44 12q-36 23 -60 42q-61 61 -38 162q10 49 25 80q22 53 97 170l6 8q0 7 29 62q25 27 14 42q-5 8 24 29t51 34q23 18 46.5 20.5t26.5 -9.5q9 -3 33.5 2.5t32.5 6.5q7 9 67 16l55 2q20 7 34 -24q7 -19 -5 -28t-91.5 -19t-118 -18t-56 -20t-39.5 -46 q-9 -6 -40 -68q-70 -95 -65 -101q21 -6 26 -6q8 4 48 11q159 41 180 44q29 17 49 -18q10 -21 -19 -33t-130.5 -39.5t-135 -29.5t-36.5 17q-7 3 -16 -10.5t-16 -36t-13 -48.5q-13 -58 -4.5 -82.5t22 -37.5t45.5 -22z" />
<glyph unicode="&#xca;" horiz-adv-x="548" d="M450 740q2 9 9 18t40.5 38t52.5 39q19 16 31 -2q16 -13 44.5 -42t37.5 -41t-4 -30q-14 -20 -41 13q-20 24 -54 53q-17 -10 -49.5 -38t-41.5 -31t-14.5 0t-9 8.5t-1.5 14.5zM234 40l40 -3q24 0 42 8q106 18 132 36q11 5 18 5q-2 -3 0 -3q4 2 18 17q26 22 51 29.5t26 3.5 q9 -16 -14.5 -47.5t-70.5 -57.5q-93 -50 -226 -52q-27 2 -44 12q-36 23 -60 42q-61 61 -38 162q10 49 25 80q22 53 97 170l6 8q0 7 29 62q25 27 14 42q-5 8 24 29t51 34q23 18 46.5 20.5t26.5 -9.5q9 -3 33.5 2.5t32.5 6.5q7 9 67 16l55 2q20 7 34 -24q7 -19 -5 -28 t-91.5 -19t-118 -18t-56 -20t-39.5 -46q-9 -6 -40 -68q-70 -95 -65 -101q21 -6 26 -6q8 4 48 11q159 41 180 44q29 17 49 -18q10 -21 -19 -33t-130.5 -39.5t-135 -29.5t-36.5 17q-7 3 -16 -10.5t-16 -36t-13 -48.5q-13 -58 -4.5 -82.5t22 -37.5t45.5 -22z" />
<glyph unicode="&#xcb;" horiz-adv-x="548" d="M479 828q16 16 28.5 9.5t17.5 -22.5q8 -15 6 -24.5t-16 -27.5q-34 -46 -59 4q-5 10 -3 15q9 31 20 40zM607 828q16 16 28.5 9.5t17.5 -22.5q8 -15 6 -24.5t-16 -27.5q-34 -46 -59 4q-5 10 -3 15q9 31 20 40zM234 40l40 -3q24 0 42 8q106 18 132 36q11 5 18 5q-2 -3 0 -3 q4 2 18 17q26 22 51 29.5t26 3.5q9 -16 -14.5 -47.5t-70.5 -57.5q-93 -50 -226 -52q-27 2 -44 12q-36 23 -60 42q-61 61 -38 162q10 49 25 80q22 53 97 170l6 8q0 7 29 62q25 27 14 42q-5 8 24 29t51 34q23 18 46.5 20.5t26.5 -9.5q9 -3 33.5 2.5t32.5 6.5q7 9 67 16l55 2 q20 7 34 -24q7 -19 -5 -28t-91.5 -19t-118 -18t-56 -20t-39.5 -46q-9 -6 -40 -68q-70 -95 -65 -101q21 -6 26 -6q8 4 48 11q159 41 180 44q29 17 49 -18q10 -21 -19 -33t-130.5 -39.5t-135 -29.5t-36.5 17q-7 3 -16 -10.5t-16 -36t-13 -48.5q-13 -58 -4.5 -82.5t22 -37.5 t45.5 -22z" />
<glyph unicode="&#xcc;" horiz-adv-x="400" d="M426 864q20 -7 43.5 -60.5t24 -62.5t-6 -18.5t-14.5 -11.5q-12 -8 -16.5 -5t-10.5 21q-4 8 -24 37q-42 64 -28 81q24 21 32 19zM497 637q56 6 75.5 3.5t26.5 -16.5q12 -42 -18 -39q-17 -4 -82 -6q-71 -6 -76 -14q-3 -3 -7 -9t-6 -8q2 -11 -10 -46t-24 -74 q-32 -98 -38.5 -112t-9.5 -32q-20 -69 -42.5 -139t-31.5 -104q22 2 74.5 7t67.5 3.5t20 -14.5q26 -35 -10 -43q-18 -4 -56 -3q-83 -3 -105.5 -6t-24.5 -12q0 -15 -28 -4q-13 18 -91 15q-21 -3 -39 6t-14 22q2 26 83 27l53 1l10 20q8 23 17.5 55t22.5 71q34 104 37 116 q15 32 33 107q46 144 38 147q-10 1 -54.5 -3.5t-49.5 -7.5q-5 -7 -17 -3t-15 14q-3 17 6.5 24t47 18.5t75.5 15.5t58 21q21 7 35 6q12 -8 69 -4z" />
<glyph unicode="&#xcd;" horiz-adv-x="400" d="M489 855q17 10 41 -28q4 -10 -14 -28t-44.5 -39.5t-34.5 -32.5q-10 -17 -15.5 -19t-17.5 6q-7 6 -10.5 19.5t-2 21t42.5 51.5t55 49zM497 637q56 6 75.5 3.5t26.5 -16.5q12 -42 -18 -39q-17 -4 -82 -6q-71 -6 -76 -14q-3 -3 -7 -9t-6 -8q2 -11 -10 -46t-24 -74 q-32 -98 -38.5 -112t-9.5 -32q-20 -69 -42.5 -139t-31.5 -104q22 2 74.5 7t67.5 3.5t20 -14.5q26 -35 -10 -43q-18 -4 -56 -3q-83 -3 -105.5 -6t-24.5 -12q0 -15 -28 -4q-13 18 -91 15q-21 -3 -39 6t-14 22q2 26 83 27l53 1l10 20q8 23 17.5 55t22.5 71q34 104 37 116 q15 32 33 107q46 144 38 147q-10 1 -54.5 -3.5t-49.5 -7.5q-5 -7 -17 -3t-15 14q-3 17 6.5 24t47 18.5t75.5 15.5t58 21q21 7 35 6q12 -8 69 -4z" />
<glyph unicode="&#xce;" horiz-adv-x="400" d="M349 740q2 9 9 18t40.5 38t52.5 39q19 16 31 -2q16 -13 44.5 -42t37.5 -41t-4 -30q-14 -20 -41 13q-20 24 -54 53q-17 -10 -49.5 -38t-41.5 -31t-14.5 0t-9 8.5t-1.5 14.5zM497 637q56 6 75.5 3.5t26.5 -16.5q12 -42 -18 -39q-17 -4 -82 -6q-71 -6 -76 -14q-3 -3 -7 -9 t-6 -8q2 -11 -10 -46t-24 -74q-32 -98 -38.5 -112t-9.5 -32q-20 -69 -42.5 -139t-31.5 -104q22 2 74.5 7t67.5 3.5t20 -14.5q26 -35 -10 -43q-18 -4 -56 -3q-83 -3 -105.5 -6t-24.5 -12q0 -15 -28 -4q-13 18 -91 15q-21 -3 -39 6t-14 22q2 26 83 27l53 1l10 20q8 23 17.5 55 t22.5 71q34 104 37 116q15 32 33 107q46 144 38 147q-10 1 -54.5 -3.5t-49.5 -7.5q-5 -7 -17 -3t-15 14q-3 17 6.5 24t47 18.5t75.5 15.5t58 21q21 7 35 6q12 -8 69 -4z" />
<glyph unicode="&#xcf;" horiz-adv-x="400" d="M378 828q16 16 28.5 9.5t17.5 -22.5q8 -15 6 -24.5t-16 -27.5q-34 -46 -59 4q-5 10 -3 15q9 31 20 40zM506 828q16 16 28.5 9.5t17.5 -22.5q8 -15 6 -24.5t-16 -27.5q-34 -46 -59 4q-5 10 -3 15q9 31 20 40zM497 637q56 6 75.5 3.5t26.5 -16.5q12 -42 -18 -39 q-17 -4 -82 -6q-71 -6 -76 -14q-3 -3 -7 -9t-6 -8q2 -11 -10 -46t-24 -74q-32 -98 -38.5 -112t-9.5 -32q-20 -69 -42.5 -139t-31.5 -104q22 2 74.5 7t67.5 3.5t20 -14.5q26 -35 -10 -43q-18 -4 -56 -3q-83 -3 -105.5 -6t-24.5 -12q0 -15 -28 -4q-13 18 -91 15q-21 -3 -39 6 t-14 22q2 26 83 27l53 1l10 20q8 23 17.5 55t22.5 71q34 104 37 116q15 32 33 107q46 144 38 147q-10 1 -54.5 -3.5t-49.5 -7.5q-5 -7 -17 -3t-15 14q-3 17 6.5 24t47 18.5t75.5 15.5t58 21q21 7 35 6q12 -8 69 -4z" />
<glyph unicode="&#xd0;" horiz-adv-x="578" d="M286 351q36 0 52 -12q14 -15 9.5 -27.5t-25.5 -10.5q-30 -3 -48.5 -3t-23.5 -1q-19 -61 -19 -63q-18 -27 -32 -138q-10 -40 -11.5 -46.5t-3 -10t-2.5 -6.5q-2 -5 -4 -5l-4 -4q0 -12 -18 -5t-25 14q-7 23 4 60q18 75 38 136t22 65h-15q-20 0 -32 4q-22 0 -30 13.5t-0.5 19 t42.5 9.5l51 7l2 6q28 95 44 125q33 94 41 113l7 33l-11 5q-18 -6 -27 0q-10 -3 -27.5 8.5t-19.5 21.5l-3 17q2 12 52.5 21t81 6.5t44.5 -6t22.5 -6.5t25.5 -9.5t25 -9.5q51 -20 104 -76.5t68 -118.5q6 -22 8.5 -56t-4.5 -47.5t2 -16.5q-2 -4 -8.5 -26t-9.5 -30 q-6 -63 -56 -148q-6 -1 -7 -4q0 -5 -11 -19q-3 -2 -12.5 -14.5t-13.5 -15.5q-1 -7 -6 -11.5t-9 -4.5q0 -3 -3 -4q-18 -26 -65.5 -64t-84.5 -54q-5 -4 -42 -21q-8 -7 -40.5 -19.5t-64 -18t-70.5 5.5q-15 3 -22 11t-8.5 9.5t-6 8t-7.5 9.5q-26 37 -16 52q9 15 34 -17 q28 -29 87 -21q70 13 103 38l117 78q2 5 21 12q5 4 31 30.5t30 29.5q1 5 3.5 13.5t2.5 12.5q12 13 36 62.5t33 85.5q19 97 -1.5 156.5t-73.5 105.5q-21 17 -69.5 37.5t-54 18.5t-13 -18.5t-21 -52t-24 -63.5t-29.5 -81t-27 -75h18z" />
<glyph unicode="&#xd1;" horiz-adv-x="566" d="M625 766q-66 -37 -76 -37t-16 1t-9.5 2t-10.5 5t-9 5t-11 7.5t-10.5 7.5t-21.5 18t-30.5 17t-23 -17t-22.5 -18q-2 -13 -10 -16q-10 2 -17 9.5t-6 17t17 31.5t46 37q13 5 34 -0.5t31.5 -14.5t19 -17.5t11.5 -11t9.5 -7t9.5 -5.5q17 -2 48.5 16t43 22.5t19.5 -4.5t7 -16.5 t-8 -17.5t-15 -14zM340.5 650q25.5 0 35.5 -30q25 -58 20 -252q-4 -125 11 -182q8 -46 22 -99.5t22 -53.5q32 0 111 317q17 57 26 132q32 121 32 134v22q4 0 8.5 13t4.5 33t14 34q4 11 26.5 5.5t27.5 -20.5q3 -21 -28 -153q0 -12 -12.5 -66.5t-16.5 -77.5q-10 -65 -18 -63 q-41 -176 -105 -322q-51 -117 -113 -37q-33 43 -48 108q-5 24 -17 89q-20 52 -17 124q1 25 4.5 70t4.5 68q-1 71 -8 71.5t-25 -50.5t-35 -92q-43 -101 -53 -122t-19 -58q-66 -176 -79 -228q-8 -20 -14 -30q-14 -22 -38 4q-14 15 -14.5 26.5t7.5 39t27 73t27 86.5 q34 79 44.5 113.5t18.5 51t22 44.5t23.5 51.5t21 59t17.5 53.5q16 51 39 84q18 30 43.5 30z" />
<glyph unicode="&#xd2;" horiz-adv-x="496" d="M499 864q20 -7 43.5 -60.5t24 -62.5t-6 -18.5t-14.5 -11.5q-12 -8 -16.5 -5t-10.5 21q-4 8 -24 37q-42 64 -28 81q24 21 32 19zM511.5 516q-1.5 44 -20.5 65q-27 29 -68 10q-29 -12 -91 -85.5t-61 -92.5q0 -8 -5 -15q-27 -28 -58 -130t-33.5 -157.5t-2 -57t15.5 -27.5 q6 -10 20.5 -15t29.5 -2q34 4 64.5 26.5t80 79.5t67.5 90t45 126q18 72 18 106.5t-1.5 78.5zM388 642q47 28 65 21q56 -12 84 -45.5t43 -109.5t1.5 -143t-77.5 -172q-70 -138 -167.5 -200.5t-162.5 -12.5q-35 27 -46 42q-29 42 1 194q6 6 5 15.5t2 19.5t9 29.5t10 39.5 q45 136 111 223q74 77 122 99z" />
<glyph unicode="&#xd3;" horiz-adv-x="496" d="M562 855q17 10 41 -28q4 -10 -14 -28t-44.5 -39.5t-34.5 -32.5q-10 -17 -15.5 -19t-17.5 6q-7 6 -10.5 19.5t-2 21t42.5 51.5t55 49zM511.5 516q-1.5 44 -20.5 65q-27 29 -68 10q-29 -12 -91 -85.5t-61 -92.5q0 -8 -5 -15q-27 -28 -58 -130t-33.5 -157.5t-2 -57 t15.5 -27.5q6 -10 20.5 -15t29.5 -2q34 4 64.5 26.5t80 79.5t67.5 90t45 126q18 72 18 106.5t-1.5 78.5zM388 642q47 28 65 21q56 -12 84 -45.5t43 -109.5t1.5 -143t-77.5 -172q-70 -138 -167.5 -200.5t-162.5 -12.5q-35 27 -46 42q-29 42 1 194q6 6 5 15.5t2 19.5t9 29.5 t10 39.5q45 136 111 223q74 77 122 99z" />
<glyph unicode="&#xd4;" horiz-adv-x="496" d="M422 740q2 9 9 18t40.5 38t52.5 39q19 16 31 -2q16 -13 44.5 -42t37.5 -41t-4 -30q-14 -20 -41 13q-20 24 -54 53q-17 -10 -49.5 -38t-41.5 -31t-14.5 0t-9 8.5t-1.5 14.5zM511.5 516q-1.5 44 -20.5 65q-27 29 -68 10q-29 -12 -91 -85.5t-61 -92.5q0 -8 -5 -15 q-27 -28 -58 -130t-33.5 -157.5t-2 -57t15.5 -27.5q6 -10 20.5 -15t29.5 -2q34 4 64.5 26.5t80 79.5t67.5 90t45 126q18 72 18 106.5t-1.5 78.5zM388 642q47 28 65 21q56 -12 84 -45.5t43 -109.5t1.5 -143t-77.5 -172q-70 -138 -167.5 -200.5t-162.5 -12.5q-35 27 -46 42 q-29 42 1 194q6 6 5 15.5t2 19.5t9 29.5t10 39.5q45 136 111 223q74 77 122 99z" />
<glyph unicode="&#xd5;" horiz-adv-x="496" d="M644 766q-66 -37 -76 -37t-16 1t-9.5 2t-10.5 5t-9 5t-11 7.5t-10.5 7.5t-21.5 18t-30.5 17t-23 -17t-22.5 -18q-2 -13 -10 -16q-10 2 -17 9.5t-6 17t17 31.5t46 37q13 5 34 -0.5t31.5 -14.5t19 -17.5t11.5 -11t9.5 -7t9.5 -5.5q17 -2 48.5 16t43 22.5t19.5 -4.5t7 -16.5 t-8 -17.5t-15 -14zM511.5 516q-1.5 44 -20.5 65q-27 29 -68 10q-29 -12 -91 -85.5t-61 -92.5q0 -8 -5 -15q-27 -28 -58 -130t-33.5 -157.5t-2 -57t15.5 -27.5q6 -10 20.5 -15t29.5 -2q34 4 64.5 26.5t80 79.5t67.5 90t45 126q18 72 18 106.5t-1.5 78.5zM388 642q47 28 65 21 q56 -12 84 -45.5t43 -109.5t1.5 -143t-77.5 -172q-70 -138 -167.5 -200.5t-162.5 -12.5q-35 27 -46 42q-29 42 1 194q6 6 5 15.5t2 19.5t9 29.5t10 39.5q45 136 111 223q74 77 122 99z" />
<glyph unicode="&#xd6;" horiz-adv-x="496" d="M451 828q16 16 28.5 9.5t17.5 -22.5q8 -15 6 -24.5t-16 -27.5q-34 -46 -59 4q-5 10 -3 15q9 31 20 40zM579 828q16 16 28.5 9.5t17.5 -22.5q8 -15 6 -24.5t-16 -27.5q-34 -46 -59 4q-5 10 -3 15q9 31 20 40zM511.5 516q-1.5 44 -20.5 65q-27 29 -68 10q-29 -12 -91 -85.5 t-61 -92.5q0 -8 -5 -15q-27 -28 -58 -130t-33.5 -157.5t-2 -57t15.5 -27.5q6 -10 20.5 -15t29.5 -2q34 4 64.5 26.5t80 79.5t67.5 90t45 126q18 72 18 106.5t-1.5 78.5zM388 642q47 28 65 21q56 -12 84 -45.5t43 -109.5t1.5 -143t-77.5 -172q-70 -138 -167.5 -200.5 t-162.5 -12.5q-35 27 -46 42q-29 42 1 194q6 6 5 15.5t2 19.5t9 29.5t10 39.5q45 136 111 223q74 77 122 99z" />
<glyph unicode="&#xd7;" horiz-adv-x="446" d="M148.5 310.5q-4.5 7.5 -4.5 26t12 24.5t26 -12l48 -41l61 -58q89 94 99.5 100.5t29 6.5t24.5 -12.5t-12 -25.5q-44 -51 -65.5 -73.5t-33.5 -35.5l76 -74q14 -14 21 -28q15 -15 10 -31q-1 -9 -4 -13t-9 -2q-10 2 -39 25q-27 17 -95 81q-82 -87 -102 -97q-15 -15 -31 -10 q-9 1 -13 4t-3 9q3 10 26 39q16 25 80 94l-78 77q-19 19 -23.5 26.5z" />
<glyph unicode="&#xd8;" horiz-adv-x="496" d="M400 430q0 1 21 34q27 27 82 97q-4 12 -11 20q-27 29 -68 10q-29 -12 -91 -85.5t-61 -92.5q0 -8 -5 -15q-25 -26 -54.5 -118.5t-37.5 -162.5q40 60 111.5 162t77.5 108q4 -1 9 4.5t10 20.5t17 18zM418 369q-4 2 -7 -7l-1 -2q0 -8 -31 -46q-142 -208 -191 -287l1 -1 q6 -10 20.5 -15t29.5 -2q34 4 64.5 26.5t80 79.5t67.5 90t38 103.5t22.5 96t1.5 77.5q-10 -13 -12 -17q-13 -12 -42 -45.5t-30 -36t-3 -5.5q-3 -8 -8 -9zM389 642q47 28 65 21q60 -14 89 -52q42 55 49 69q4 15 21 9q4 3 16 1q2 -6 11 -20q8 -15 -6 -48q-5 -13 -14.5 -23 t-13.5 -14.5t-15.5 -16t-19.5 -20.5q28 -102 13 -176t-79 -179q-70 -138 -167.5 -200.5t-162.5 -12.5l-10 8q-9 -16 -11 -22q-10 -35 -22 -37q-28 1 -30.5 30.5t20.5 72.5q-6 14 -6 29q-6 55 14 155q6 6 5 15.5t2 19.5t9 29.5t10 39.5q45 136 111 223q74 77 122 99z" />
<glyph unicode="&#xd9;" horiz-adv-x="482" d="M486 864q19 -7 42.5 -60.5t24 -62.5t-6 -18.5t-14.5 -11.5q-12 -8 -16.5 -5t-10.5 21q-4 8 -23 37q-43 64 -29 81q24 21 33 19zM379 124q40 53 40 60t13 22q18 18 88 165q61 195 67 224.5t17 61.5q6 2 40 -15q9 -11 4 -33q-26 -123 -43 -169.5t-29.5 -76.5t-19 -45.5 t-22 -50.5t-21.5 -49v-6q-12 -7 -22 -25.5t-14 -20.5l-9 -23q-1 -6 -12 -12.5t-13.5 -13.5t-3.5 -9q-36 -53 -81 -96q-79 -78 -138 -64q-71 25 -89 97.5t13 229.5q15 73 51.5 174.5t66.5 154t42 64.5t24 10q28 -8 33 -32.5t-19 -41.5q-12 -13 -34 -56t-30 -58 q-62 -178 -78 -268q-21 -97 -21 -171q2 -4 5.5 -10t5 -9.5t4.5 -7.5q3 -5 11 -8q33 -16 81 12q6 11 21 18q3 -4 4.5 -2.5t3.5 6.5q-1 5 9 15q15 6 55 59z" />
<glyph unicode="&#xda;" horiz-adv-x="482" d="M548 855q17 10 41 -28q4 -10 -14 -28t-44.5 -39.5t-34.5 -32.5q-10 -17 -15.5 -19t-17.5 6q-7 6 -10.5 19.5t-2 21t42.5 51.5t55 49zM379 124q40 53 40 60t13 22q18 18 88 165q61 195 67 224.5t17 61.5q6 2 40 -15q9 -11 4 -33q-26 -123 -43 -169.5t-29.5 -76.5 t-19 -45.5t-22 -50.5t-21.5 -49v-6q-12 -7 -22 -25.5t-14 -20.5l-9 -23q-1 -6 -12 -12.5t-13.5 -13.5t-3.5 -9q-36 -53 -81 -96q-79 -78 -138 -64q-71 25 -89 97.5t13 229.5q15 73 51.5 174.5t66.5 154t42 64.5t24 10q28 -8 33 -32.5t-19 -41.5q-12 -13 -34 -56t-30 -58 q-62 -178 -78 -268q-21 -97 -21 -171q2 -4 5.5 -10t5 -9.5t4.5 -7.5q3 -5 11 -8q33 -16 81 12q6 11 21 18q3 -4 4.5 -2.5t3.5 6.5q-1 5 9 15q15 6 55 59z" />
<glyph unicode="&#xdb;" horiz-adv-x="482" d="M408 740q2 9 9 18t40.5 38t52.5 39q19 16 31 -2q16 -13 44.5 -42t37.5 -41t-4 -30q-14 -20 -41 13q-20 24 -54 53q-17 -10 -49.5 -38t-41.5 -31t-14.5 0t-9 8.5t-1.5 14.5zM379 124q40 53 40 60t13 22q18 18 88 165q61 195 67 224.5t17 61.5q6 2 40 -15q9 -11 4 -33 q-26 -123 -43 -169.5t-29.5 -76.5t-19 -45.5t-22 -50.5t-21.5 -49v-6q-12 -7 -22 -25.5t-14 -20.5l-9 -23q-1 -6 -12 -12.5t-13.5 -13.5t-3.5 -9q-36 -53 -81 -96q-79 -78 -138 -64q-71 25 -89 97.5t13 229.5q15 73 51.5 174.5t66.5 154t42 64.5t24 10q28 -8 33 -32.5 t-19 -41.5q-12 -13 -34 -56t-30 -58q-62 -178 -78 -268q-21 -97 -21 -171q2 -4 5.5 -10t5 -9.5t4.5 -7.5q3 -5 11 -8q33 -16 81 12q6 11 21 18q3 -4 4.5 -2.5t3.5 6.5q-1 5 9 15q15 6 55 59z" />
<glyph unicode="&#xdc;" horiz-adv-x="482" d="M565 828q16 16 28.5 9.5t17.5 -22.5q8 -15 6 -24.5t-16 -27.5q-34 -46 -59 4q-5 10 -3 15q9 31 20 40zM437 828q16 16 28.5 9.5t17.5 -22.5q8 -15 6 -24.5t-16 -27.5q-34 -46 -59 4q-5 10 -3 15q9 31 20 40zM379 124q40 53 40 60t13 22q18 18 88 165q61 195 67 224.5 t17 61.5q6 2 40 -15q9 -11 4 -33q-26 -123 -43 -169.5t-29.5 -76.5t-19 -45.5t-22 -50.5t-21.5 -49v-6q-12 -7 -22 -25.5t-14 -20.5l-9 -23q-1 -6 -12 -12.5t-13.5 -13.5t-3.5 -9q-36 -53 -81 -96q-79 -78 -138 -64q-71 25 -89 97.5t13 229.5q15 73 51.5 174.5t66.5 154 t42 64.5t24 10q28 -8 33 -32.5t-19 -41.5q-12 -13 -34 -56t-30 -58q-62 -178 -78 -268q-21 -97 -21 -171q2 -4 5.5 -10t5 -9.5t4.5 -7.5q3 -5 11 -8q33 -16 81 12q6 11 21 18q3 -4 4.5 -2.5t3.5 6.5q-1 5 9 15q15 6 55 59z" />
<glyph unicode="&#xdd;" horiz-adv-x="504" d="M544 856q17 10 41 -28q4 -10 -14 -28t-44.5 -39.5t-34.5 -32.5q-10 -17 -15.5 -19t-17.5 6q-7 6 -10.5 19.5t-2 21t42.5 51.5t55 49zM636 638q7 11 21 13q6 -2 9.5 -14.5t7.5 -20t3 -14.5t-22 -28q-22 -19 -70 -69t-76 -85q-91 -105 -121 -132l-21 -21q-5 -18 -17 -70 q-6 -20 -17 -56q-15 -52 -26 -87t-19.5 -70t-13.5 -45t-12.5 -8t-33.5 20q-11 11 -9 20.5t3 14.5q3 14 11 40q2 60 30 111q0 31 31 105l16 48q-56 74 -65 141q-15 51 -9 162q0 42 17 73q3 6 3 7q16 20 29 -15q9 -26 8 -63q6 -219 50 -247q15 -4 26 4q33 24 113.5 118.5 t110 127t43.5 40.5z" />
<glyph unicode="&#xde;" horiz-adv-x="472" d="M482 427.5q7 44.5 -4 60t-36 20.5q-46 8 -93 -19q-16 -7 -76 -142.5t-55 -152.5q51 -1 86.5 16t70.5 50q39 39 78 92q22 31 29 75.5zM234 414q0 7 13 25q0 18 11 26q6 25 2 28q-9 26 16 27q6 0 11 10.5t7 11.5q52 136 52 151.5t23 15.5q5 5 16 5l16 -16q11 -10 11 -26.5 t-1 -22t-1.5 -10t-4.5 -13.5t-7 -14.5t-11 -23t-14 -29.5l33 6q40 0 72 -7q34 -16 54 -41.5t23 -50.5t-17.5 -85t-38.5 -74q10 1 -14 -23t-33 -27q-10 -23 -27 -32q-38 -24 -47 -38q0 11 -18 -4q-6 -5 -8 -6q-45 -27 -87 -35q-7 -6 -36 -6l-34 5l-21 -57q-5 -21 -15.5 -56.5 t-14 -53.5t-8.5 -28q-8 -19 -19 -10q-2 1 -14 4q-25 6 -25 21q-4 6 32.5 131t41.5 124q5 27 16 41q2 15 11 38.5t18 31.5q0 11 17 49t20 38z" />
<glyph unicode="&#xdf;" horiz-adv-x="398" d="M384 341q-6 0 -14 -16.5t-4 -24.5l-5 -6q-6 0 -4.5 -7t3 -12t4.5 -11.5t5.5 -11.5t6 -11t4.5 -9q11 -1 29 -49q1 -17 3.5 -36.5t3.5 -32.5q-9 -84 -90 -90q-13 -2 -23.5 -2t-14.5 1t-18.5 5.5t-31.5 10.5t-26.5 17.5t0.5 29.5q3 5 9 5l11 1q38 0 54.5 -4.5t22.5 -2.5 t10 8l26 3q1 0 0.5 5t1 6t3.5 4q10 15 6 26q-2 31 -19 53q-17 42 -32.5 63.5t-20.5 26.5q-7 8 11 41q0 1 19 25q58 78 61 84q17 10 33 25t16 20q-5 14 14 38q28 47 15 74q-16 10 -46.5 -4.5t-55.5 -43.5q-29 -36 -33 -37q-23 -30 -54 -89.5t-48 -109.5q4 -7 -2 -22.5 t-16 -22.5v-37l-6 -17q-7 0 -7 -1q-3 -22 -16.5 -56.5t-17 -49t-9.5 -59.5q-39 -116 -29 -146q-11 -39 -11 -65t-1 -31q-2 -11 -22 -9q-28 7 -35 45v29q11 20 10 63q9 22 9 44q26 107 37 141q10 48 41 128q-2 13 10 46t27 55q6 36 26 76q-3 4 -1 25q15 9 17 22q0 3 37 52 t57 73q44 42 90 54q35 7 43.5 7.5t28.5 -16t28 -32.5q30 -75 -36 -163q-15 -24 -25.5 -31.5t-18.5 -13.5t-15 -24q-5 -5 -14 -15.5t-11 -10.5z" />
<glyph unicode="&#xe0;" horiz-adv-x="437" d="M344 594q20 -7 43.5 -60.5t24 -62.5t-6 -18.5t-14.5 -11.5q-12 -8 -16.5 -5t-10.5 21q-4 8 -24 37q-42 64 -28 81q24 21 32 19zM357 285q-18 40 -40 40t-67 -52.5t-82 -123.5l-25 -57q0 -11 25.5 1.5t42.5 26.5q86 74 124 129zM97.5 48.5q-6.5 6.5 -6.5 13t-5 12.5 q-17 17 54 147q6 6 15.5 21t12.5 17q0 4 3 7.5t7 3.5v6q0 9 33 44q88 92 136 54q6 -8 83 -76l-18 -50q-22 -65 13 -122q5 -11 20 -21t30 -12q22 -4 22 -23t-18 -23q-67 -9 -114 82q-14 19 -18 44q-15 -21 -32 -38q-141 -142 -208 -99q-3 6 -9.5 12.5z" />
<glyph unicode="&#xe1;" horiz-adv-x="437" d="M474 585q17 10 41 -28q4 -10 -14 -28t-44.5 -39.5t-34.5 -32.5q-10 -17 -15.5 -19t-17.5 6q-7 6 -10.5 19.5t-2 21t42.5 51.5t55 49zM357 285q-18 40 -40 40t-67 -52.5t-82 -123.5l-25 -57q0 -11 25.5 1.5t42.5 26.5q86 74 124 129zM97.5 48.5q-6.5 6.5 -6.5 13t-5 12.5 q-17 17 54 147q6 6 15.5 21t12.5 17q0 4 3 7.5t7 3.5v6q0 9 33 44q88 92 136 54q6 -8 83 -76l-18 -50q-22 -65 13 -122q5 -11 20 -21t30 -12q22 -4 22 -23t-18 -23q-67 -9 -114 82q-14 19 -18 44q-15 -21 -32 -38q-141 -142 -208 -99q-3 6 -9.5 12.5z" />
<glyph unicode="&#xe2;" horiz-adv-x="437" d="M265 466q2 9 9 18t40.5 38t52.5 39q19 16 31 -2q16 -13 44.5 -42t37.5 -41t-4 -30q-14 -20 -41 13q-20 24 -54 53q-17 -10 -49.5 -38t-41.5 -31t-14.5 0t-9 8.5t-1.5 14.5zM357 285q-18 40 -40 40t-67 -52.5t-82 -123.5l-25 -57q0 -11 25.5 1.5t42.5 26.5q86 74 124 129z M97.5 48.5q-6.5 6.5 -6.5 13t-5 12.5q-17 17 54 147q6 6 15.5 21t12.5 17q0 4 3 7.5t7 3.5v6q0 9 33 44q88 92 136 54q6 -8 83 -76l-18 -50q-22 -65 13 -122q5 -11 20 -21t30 -12q22 -4 22 -23t-18 -23q-67 -9 -114 82q-14 19 -18 44q-15 -21 -32 -38q-141 -142 -208 -99 q-3 6 -9.5 12.5z" />
<glyph unicode="&#xe3;" horiz-adv-x="437" d="M510 466q-66 -37 -76 -37t-16 1t-9.5 2t-10.5 5t-9 5t-11 7.5t-10.5 7.5t-21.5 18t-30.5 17t-23 -17t-22.5 -18q-2 -13 -10 -16q-10 2 -17 9.5t-6 17t17 31.5t46 37q13 5 34 -0.5t31.5 -14.5t19 -17.5t11.5 -11t9.5 -7t10.5 -5.5q16 -2 47.5 16t43 22.5t19.5 -4.5 t7 -16.5t-8 -17.5t-15 -14zM357 285q-18 40 -40 40t-67 -52.5t-82 -123.5l-25 -57q0 -11 25.5 1.5t42.5 26.5q86 74 124 129zM97.5 48.5q-6.5 6.5 -6.5 13t-5 12.5q-17 17 54 147q6 6 15.5 21t12.5 17q0 4 3 7.5t7 3.5v6q0 9 33 44q88 92 136 54q6 -8 83 -76l-18 -50 q-22 -65 13 -122q5 -11 20 -21t30 -12q22 -4 22 -23t-18 -23q-67 -9 -114 82q-14 19 -18 44q-15 -21 -32 -38q-141 -142 -208 -99q-3 6 -9.5 12.5z" />
<glyph unicode="&#xe4;" horiz-adv-x="437" d="M317 528q16 16 28.5 9.5t17.5 -22.5q8 -15 6 -24.5t-16 -27.5q-34 -46 -59 4q-5 10 -3 15q9 31 20 40zM445 528q16 16 28.5 9.5t17.5 -22.5q8 -15 6 -24.5t-16 -27.5q-34 -46 -59 4q-5 10 -3 15q9 31 20 40zM357 285q-18 40 -40 40t-67 -52.5t-82 -123.5l-25 -57 q0 -11 25.5 1.5t42.5 26.5q86 74 124 129zM97.5 48.5q-6.5 6.5 -6.5 13t-5 12.5q-17 17 54 147q6 6 15.5 21t12.5 17q0 4 3 7.5t7 3.5v6q0 9 33 44q88 92 136 54q6 -8 83 -76l-18 -50q-22 -65 13 -122q5 -11 20 -21t30 -12q22 -4 22 -23t-18 -23q-67 -9 -114 82 q-14 19 -18 44q-15 -21 -32 -38q-141 -142 -208 -99q-3 6 -9.5 12.5z" />
<glyph unicode="&#xe5;" horiz-adv-x="437" d="M417 536q-38 0 -38 -50q0 -11 8.5 -22.5t16.5 -11.5q40 0 38.5 42t-25.5 42zM360.5 545.5q19.5 31.5 51.5 31.5t53 -15t21 -49t-21.5 -67.5t-56.5 -33.5q-60 0 -67 70q0 32 19.5 63.5zM357 285q-18 40 -40 40t-67 -52.5t-82 -123.5l-25 -57q0 -11 25.5 1.5t42.5 26.5 q86 74 124 129zM97.5 48.5q-6.5 6.5 -6.5 13t-5 12.5q-17 17 54 147q6 6 15.5 21t12.5 17q0 4 3 7.5t7 3.5v6q0 9 33 44q88 92 136 54q6 -8 83 -76l-18 -50q-22 -65 13 -122q5 -11 20 -21t30 -12q22 -4 22 -23t-18 -23q-67 -9 -114 82q-14 19 -18 44q-15 -21 -32 -38 q-141 -142 -208 -99q-3 6 -9.5 12.5z" />
<glyph unicode="&#xe6;" horiz-adv-x="574" d="M549.5 272q17.5 18 17.5 31.5t-14 22t-33 3.5t-39 -23t-33 -35.5t-10 -20.5q4 -8 32 -9t45 6t34.5 25zM352 285q-18 40 -40 40t-67 -52.5t-82 -123.5l-25 -57q0 -11 25.5 1.5t42.5 26.5q86 74 124 129zM405 159q-3 -5 -3 -11q-8 -69 33 -76q4 -1 12 -2.5t10.5 -2t8.5 -1 t10 0.5q8 2 15.5 6.5t11.5 6.5q8 4 10.5 5.5t3 1.5t2 1t1.5 2q7 6 17.5 16.5t15.5 10.5t10.5 -5t7.5 -6q16 0 -4.5 -26t-50.5 -45q-32 -28 -75.5 -20.5t-69.5 43.5q-28 35 -25 101q-4 12 -4 14q-15 -21 -32 -38q-141 -142 -208 -99q-3 6 -9.5 12.5t-6.5 13t-5 12.5 q-17 17 54 147q6 6 15.5 21t12.5 17q0 4 3 7.5t7 3.5v6q0 9 33 44q88 92 136 54l66 -62q40 46 81 63q14 9 26 9.5t40.5 -3.5t44.5 -24q25 -25 25 -58q-4 -24 -31 -55t-65 -50q-56 -17 -91 7q-17 7 -23.5 -0.5t-11.5 -37.5z" />
<glyph unicode="&#xe7;" horiz-adv-x="355" d="M360.5 249q-9.5 -14 -19.5 -14t-10 -6q0 -9 -11.5 -2t-13 14t0 13t5.5 17q25 79 -23 59q-83 -47 -123 -202q-8 -28 -5 -42.5t5 -15.5q14 -4 38 -1.5t45.5 14t41.5 26.5t30 23.5t16 11.5q9 14 15.5 15t16.5 1q24 -8 25 -17q0 -2 -4 -4l-5 -5q4 -8 -35 -44t-50 -36t-11 -6 q0 -4 -24 -15.5t-45 -18.5q-26 -16 -26 -31q6 -9 20 -25q29 -35 33 -52q9 -34 -7 -56q-36 -51 -146 -15q-15 5 -17 17.5t7.5 21t18 6t19 -6t16 -5.5t15 -4.5t16 -2.5t13.5 1q13 0 21 15t-19.5 47.5t-33.5 38.5q-7 10 -10 16q-6 16 14 35q-51 20 -51 82q-4 44 19.5 109 t67 117.5t66.5 62t49 9.5q18 -4 35.5 -15t17.5 -22l5 -5q9 0 14 -27t-3 -43q-4 -19 -13.5 -33z" />
<glyph unicode="&#xe8;" horiz-adv-x="325" d="M286 594q20 -7 43.5 -60.5t24 -62.5t-6 -18.5t-14.5 -11.5q-12 -8 -16.5 -5t-10.5 21q-4 8 -24 37q-42 64 -28 81q24 21 32 19zM309.5 272q17.5 18 17.5 31.5t-14 22t-33 3.5t-39 -23t-33 -35.5t-10 -20.5q4 -8 32 -9t45 6t34.5 25zM276.5 87q0.5 0 2 1t1.5 2 q7 6 17.5 16.5t15.5 10.5t10.5 -5t7.5 -6q16 0 -4.5 -26t-50.5 -45q-32 -28 -75.5 -20.5t-69.5 43.5q-31 39 -23 125q4 56 48 114.5t93 77.5q14 9 26 9.5t40.5 -3.5t44.5 -24q25 -25 25 -58q-4 -24 -31 -55t-65 -50q-56 -17 -91 7q-18 7 -24.5 -3t-11.5 -50q-8 -69 33 -76 q4 -1 12 -2.5t10.5 -2t8.5 -1t10 0.5q8 2 15.5 6.5t11.5 6.5q8 4 10.5 5.5t3 1.5z" />
<glyph unicode="&#xe9;" horiz-adv-x="325" d="M416 585q17 10 41 -28q4 -10 -14 -28t-44.5 -39.5t-34.5 -32.5q-10 -17 -15.5 -19t-17.5 6q-7 6 -10.5 19.5t-2 21t42.5 51.5t55 49zM309.5 272q17.5 18 17.5 31.5t-14 22t-33 3.5t-39 -23t-33 -35.5t-10 -20.5q4 -8 32 -9t45 6t34.5 25zM276.5 87q0.5 0 2 1t1.5 2 q7 6 17.5 16.5t15.5 10.5t10.5 -5t7.5 -6q16 0 -4.5 -26t-50.5 -45q-32 -28 -75.5 -20.5t-69.5 43.5q-31 39 -23 125q4 56 48 114.5t93 77.5q14 9 26 9.5t40.5 -3.5t44.5 -24q25 -25 25 -58q-4 -24 -31 -55t-65 -50q-56 -17 -91 7q-18 7 -24.5 -3t-11.5 -50q-8 -69 33 -76 q4 -1 12 -2.5t10.5 -2t8.5 -1t10 0.5q8 2 15.5 6.5t11.5 6.5q8 4 10.5 5.5t3 1.5z" />
<glyph unicode="&#xea;" horiz-adv-x="325" d="M207 466q2 9 9 18t40.5 38t52.5 39q19 16 31 -2q16 -13 44.5 -42t37.5 -41t-4 -30q-14 -20 -41 13q-20 24 -54 53q-17 -10 -49.5 -38t-41.5 -31t-14.5 0t-9 8.5t-1.5 14.5zM309.5 272q17.5 18 17.5 31.5t-14 22t-33 3.5t-39 -23t-33 -35.5t-10 -20.5q4 -8 32 -9t45 6 t34.5 25zM276.5 87q0.5 0 2 1t1.5 2q7 6 17.5 16.5t15.5 10.5t10.5 -5t7.5 -6q16 0 -4.5 -26t-50.5 -45q-32 -28 -75.5 -20.5t-69.5 43.5q-31 39 -23 125q4 56 48 114.5t93 77.5q14 9 26 9.5t40.5 -3.5t44.5 -24q25 -25 25 -58q-4 -24 -31 -55t-65 -50q-56 -17 -91 7 q-18 7 -24.5 -3t-11.5 -50q-8 -69 33 -76q4 -1 12 -2.5t10.5 -2t8.5 -1t10 0.5q8 2 15.5 6.5t11.5 6.5q8 4 10.5 5.5t3 1.5z" />
<glyph unicode="&#xeb;" horiz-adv-x="325" d="M259 528q16 16 28.5 9.5t17.5 -22.5q8 -15 6 -24.5t-16 -27.5q-34 -46 -59 4q-5 10 -3 15q9 31 20 40zM387 528q16 16 28.5 9.5t17.5 -22.5q8 -15 6 -24.5t-16 -27.5q-34 -46 -59 4q-5 10 -3 15q9 31 20 40zM309.5 272q17.5 18 17.5 31.5t-14 22t-33 3.5t-39 -23 t-33 -35.5t-10 -20.5q4 -8 32 -9t45 6t34.5 25zM276.5 87q0.5 0 2 1t1.5 2q7 6 17.5 16.5t15.5 10.5t10.5 -5t7.5 -6q16 0 -4.5 -26t-50.5 -45q-32 -28 -75.5 -20.5t-69.5 43.5q-31 39 -23 125q4 56 48 114.5t93 77.5q14 9 26 9.5t40.5 -3.5t44.5 -24q25 -25 25 -58 q-4 -24 -31 -55t-65 -50q-56 -17 -91 7q-18 7 -24.5 -3t-11.5 -50q-8 -69 33 -76q4 -1 12 -2.5t10.5 -2t8.5 -1t10 0.5q8 2 15.5 6.5t11.5 6.5q8 4 10.5 5.5t3 1.5z" />
<glyph unicode="&#xec;" horiz-adv-x="187" d="M196 594q19 -7 42.5 -60.5t24 -62.5t-6 -18.5t-14.5 -11.5q-12 -8 -16.5 -5t-10.5 21q-4 8 -23 37q-43 64 -29 81q24 21 33 19zM102 96l4 21q-1 6 8 33q18 40 48 141q0 12 16 13q12 4 18 0.5t16 -19.5q15 -15 -2.5 -54t-21.5 -60q-15 -33 -22.5 -63t-13.5 -40 q-9 -41 -16.5 -48t-22 8.5t-16.5 35.5t5 32z" />
<glyph unicode="&#xed;" horiz-adv-x="187" d="M325 585q17 10 41 -28q4 -10 -14 -28t-44.5 -39.5t-34.5 -32.5q-10 -17 -15.5 -19t-17.5 6q-7 6 -10.5 19.5t-2 21t42.5 51.5t55 49zM102 96l4 21q-1 6 8 33q18 40 48 141q0 12 16 13q12 4 18 0.5t16 -19.5q15 -15 -2.5 -54t-21.5 -60q-15 -33 -22.5 -63t-13.5 -40 q-9 -41 -16.5 -48t-22 8.5t-16.5 35.5t5 32z" />
<glyph unicode="&#xee;" horiz-adv-x="187" d="M116 466q2 9 9 18t40.5 38t52.5 39q19 16 31 -2q16 -13 44.5 -42t37.5 -41t-4 -30q-14 -20 -41 13q-20 24 -54 53q-17 -10 -49.5 -38t-41.5 -31t-14.5 0t-9 8.5t-1.5 14.5zM102 96l4 21q-1 6 8 33q18 40 48 141q0 12 16 13q12 4 18 0.5t16 -19.5q15 -15 -2.5 -54 t-21.5 -60q-15 -33 -22.5 -63t-13.5 -40q-9 -41 -16.5 -48t-22 8.5t-16.5 35.5t5 32z" />
<glyph unicode="&#xef;" horiz-adv-x="187" d="M168 528q16 16 28.5 9.5t17.5 -22.5q8 -15 6 -24.5t-16 -27.5q-34 -46 -59 4q-5 10 -3 15q9 31 20 40zM296 528q16 16 28.5 9.5t17.5 -22.5q8 -15 6 -24.5t-16 -27.5q-34 -46 -59 4q-5 10 -3 15q9 31 20 40zM102 96l4 21q-1 6 8 33q18 40 48 141q0 12 16 13q12 4 18 0.5 t16 -19.5q15 -15 -2.5 -54t-21.5 -60q-15 -33 -22.5 -63t-13.5 -40q-9 -41 -16.5 -48t-22 8.5t-16.5 35.5t5 32z" />
<glyph unicode="&#xf0;" horiz-adv-x="349" d="M333 236q4 15 1.5 43.5t-10.5 31.5q-30 17 -63 -18q-50 -46 -93 -157q-18 -52 9 -70q28 -19 96 55q36 48 60 115zM331 466l-36 -9q-20 0 -36 1q-21 -7 -31.5 4t-12.5 15.5t4 9.5q8 7 45 19q26 6 44 13q-12 23 -30 45q-8 8 -23 20t-21 22q-1 4 8 14q17 17 32.5 12.5 t19.5 -9.5q4 4 22 -19q36 -48 45 -68q25 6 35 8l12.5 2.5t8 1t8 0t6.5 -1.5q5 -1 16 -8q18 -15 14 -28.5t-26 -9.5q-4 0 -22.5 -6.5t-30.5 -8.5q26 -83 16 -179q-13 -132 -80 -210q-15 -18 -26 -26.5t-43 -32t-69 -25.5q-17 -3 -39 16q-41 39 -35 71q3 9 -1 23q-5 5 -2.5 8 t3.5 4q6 1 3.5 10.5t7 38.5t23.5 51q8 18 28 46.5t37 42.5q37 37 70 47.5t42.5 10t17.5 -8t10 -7.5q0 58 -14 101z" />
<glyph unicode="&#xf1;" d="M516 466q-66 -37 -76 -37t-16 1t-9.5 2t-10.5 5t-9 5t-11 7.5t-10.5 7.5t-21.5 18t-30.5 17t-23 -17t-22.5 -18q-2 -13 -10 -16q-10 2 -17 9.5t-6 17t17 31.5t46 37q13 5 34 -0.5t31.5 -14.5t19 -17.5t11.5 -11t9.5 -7t10.5 -5.5q16 -2 47.5 16t43 22.5t19.5 -4.5 t7 -16.5t-8 -17.5t-15 -14zM358 285q24 11 33 11t29.5 -18t24.5 -30q0 -11 3.5 -23.5t2.5 -48.5t-8 -40q0 -5 5 -5v-5q-11 0 -1.5 -18.5t18.5 -27.5t7 -19.5t-18 -14.5q-39 0 -55 37q-6 21 -8 48.5t1.5 33.5t3 32.5t-9 30t-24.5 -6.5q-118 -74 -167 -116q-13 -14 -31 -44 q-3 -5 -8 -5q-10 -5 -29 11q-22 24 -23 27q0 8 6.5 37t10.5 37q4 0 10 13t10 19q3 15 26 69q23 39 27 80q-1 4 2 7.5t7 3.5q18 17 37.5 -9t16 -51.5t-32.5 -72.5q-14 -34 -14 -38q40 27 56 38q8 9 43 32t49 26z" />
<glyph unicode="&#xf2;" horiz-adv-x="353" d="M302 594q19 -7 42.5 -60.5t24 -62.5t-6 -18.5t-14.5 -11.5q-12 -8 -16.5 -5t-10.5 21q-4 8 -23 37q-43 64 -29 81q24 21 33 19zM331 233q6 16 5.5 43.5t-8.5 31.5q-28 16 -66 -15q-50 -43 -99 -152q-21 -50 3 -70q30 -25 99 50q43 49 66 112zM138 240q67 111 156 132 q21 6 30.5 5t23.5 -16q23 -10 33.5 -24t13.5 -41q8 -78 -52 -164q-23 -33 -43 -50.5t-53 -37.5q-39 -26 -78 -29q-17 0 -39 19q-38 39 -32 74l2 23q-5 5 -2.5 8t3.5 4q6 0 4 9.5t8 37t25 50.5z" />
<glyph unicode="&#xf3;" horiz-adv-x="353" d="M431 585q17 10 41 -28q4 -10 -14 -28t-44.5 -39.5t-34.5 -32.5q-10 -17 -15.5 -19t-17.5 6q-7 6 -10.5 19.5t-2 21t42.5 51.5t55 49zM331 233q6 16 5.5 43.5t-8.5 31.5q-28 16 -66 -15q-50 -43 -99 -152q-21 -50 3 -70q30 -25 99 50q43 49 66 112zM138 240 q67 111 156 132q21 6 30.5 5t23.5 -16q23 -10 33.5 -24t13.5 -41q8 -78 -52 -164q-23 -33 -43 -50.5t-53 -37.5q-39 -26 -78 -29q-17 0 -39 19q-38 39 -32 74l2 23q-5 5 -2.5 8t3.5 4q6 0 4 9.5t8 37t25 50.5z" />
<glyph unicode="&#xf4;" horiz-adv-x="353" d="M222 466q2 9 9 18t40.5 38t52.5 39q19 16 31 -2q16 -13 44.5 -42t37.5 -41t-4 -30q-14 -20 -41 13q-20 24 -54 53q-17 -10 -49.5 -38t-41.5 -31t-14.5 0t-9 8.5t-1.5 14.5zM331 233q6 16 5.5 43.5t-8.5 31.5q-28 16 -66 -15q-50 -43 -99 -152q-21 -50 3 -70q30 -25 99 50 q43 49 66 112zM138 240q67 111 156 132q21 6 30.5 5t23.5 -16q23 -10 33.5 -24t13.5 -41q8 -78 -52 -164q-23 -33 -43 -50.5t-53 -37.5q-39 -26 -78 -29q-17 0 -39 19q-38 39 -32 74l2 23q-5 5 -2.5 8t3.5 4q6 0 4 9.5t8 37t25 50.5z" />
<glyph unicode="&#xf5;" horiz-adv-x="353" d="M467 466q-66 -37 -76 -37t-16 1t-9.5 2t-10.5 5t-9 5t-11 7.5t-10.5 7.5t-21.5 18t-30.5 17t-23 -17t-22.5 -18q-2 -13 -7 -15.5t-6 0.5q-9 3 -15 9.5t-5 16t17 31.5t46 37q13 5 34 -0.5t31.5 -14.5t19 -17.5t11.5 -11t9.5 -7t9.5 -5.5q17 -2 48.5 16t43 22.5t19.5 -4.5 t7 -16.5t-8 -17.5t-15 -14zM331 233q6 16 5.5 43.5t-8.5 31.5q-28 16 -66 -15q-50 -43 -99 -152q-21 -50 3 -70q30 -25 99 50q43 49 66 112zM138 240q67 111 156 132q21 6 30.5 5t23.5 -16q23 -10 33.5 -24t13.5 -41q8 -78 -52 -164q-23 -33 -43 -50.5t-53 -37.5 q-39 -26 -78 -29q-17 0 -39 19q-38 39 -32 74l2 23q-5 5 -2.5 8t3.5 4q6 0 4 9.5t8 37t25 50.5z" />
<glyph unicode="&#xf6;" horiz-adv-x="353" d="M274 528q16 16 28.5 9.5t17.5 -22.5q8 -15 6 -24.5t-16 -27.5q-34 -46 -59 4q-5 10 -3 15q9 31 20 40zM402 528q16 16 28.5 9.5t17.5 -22.5q8 -15 6 -24.5t-16 -27.5q-34 -46 -59 4q-5 10 -3 15q9 31 20 40zM331 233q6 16 5.5 43.5t-8.5 31.5q-28 16 -66 -15 q-50 -43 -99 -152q-21 -50 3 -70q30 -25 99 50q43 49 66 112zM138 240q67 111 156 132q21 6 30.5 5t23.5 -16q23 -10 33.5 -24t13.5 -41q8 -78 -52 -164q-23 -33 -43 -50.5t-53 -37.5q-39 -26 -78 -29q-17 0 -39 19q-38 39 -32 74l2 23q-5 5 -2.5 8t3.5 4q6 0 4 9.5t8 37 t25 50.5z" />
<glyph unicode="&#xf7;" horiz-adv-x="446" d="M334 426q23 16 45 -19q8 -20 5 -31.5t-22 -34.5q-27 -36 -54 -13q-12 10 -13 25t1 16q8 1 18.5 17.5t10 27t9.5 12.5zM244 106q23 16 45 -19q8 -20 5 -31.5t-22 -34.5q-27 -36 -54 -13q-12 10 -13 25t1 16q8 1 18.5 17.5t10 27t9.5 12.5zM410 241q26 0 35 -2.5t20 -12.5 q16 -15 11 -28.5t-27 -9.5q-126 -10 -271 -10q-20 0 -35 5q-21 0 -29 14q-11 15 -3 19q10 7 47 11q63 14 252 14z" />
<glyph unicode="&#xf8;" horiz-adv-x="353" d="M313 272q12 7 22 15q-2 18 -7 21q-28 16 -66 -15q-54 -46 -102 -159q89 93 153 138zM331 233q2 6 2 10l-65 -56q-35 -28 -111 -105q13 -30 57 -4q24 13 59 52.5t58 102.5zM138 240q67 111 156 132q21 6 30.5 5t23.5 -16q28 -12 39 -33q51 42 56 50q5 11 14 6t13 -16.5 t-7 -22.5q-7 -14 -16.5 -20t-19.5 -13q-24 -18 -31 -22q6 -74 -53 -158q-23 -33 -43 -50.5t-53 -37.5q-39 -26 -78 -29q-22 0 -49 30q-29 -29 -37.5 -44.5t-13.5 -15.5q-19 5 -15.5 25t29.5 46l19 18q-7 17 -4 34l2 23q-5 5 -2.5 8t3.5 4q6 0 4 9.5t8 37t25 50.5z" />
<glyph unicode="&#xf9;" horiz-adv-x="370" d="M280 596q20 -7 43.5 -60.5t24 -62.5t-6 -18.5t-14.5 -11.5q-12 -8 -16.5 -5t-10.5 21q-4 8 -24 37q-42 64 -28 81q24 21 32 19zM301 93v19q-6 -15 -22 -27q-23 -23 -46 -34q-35 -22 -55 -23t-40 22q-33 27 -23 73q3 70 43 158q32 63 46 84q32 11 37 -20q12 -19 -27 -93 q-60 -142 -27 -155q11 -7 31.5 1t51 43.5t50 82.5t22.5 83q-5 25 17 38q4 6 10.5 9.5t9.5 -0.5l16 1q3 0 6 -6t6 -8q23 -19 -22 -123q-32 -67 -32.5 -104t28.5 -62q15 -10 13 -37q-4 -14 -22 -18.5t-33 5.5q-24 23 -36 68q-2 6 -2 23z" />
<glyph unicode="&#xfa;" horiz-adv-x="370" d="M396 582q17 10 41 -28q4 -10 -14 -28t-44.5 -39.5t-34.5 -32.5q-10 -17 -15.5 -19t-17.5 6q-7 6 -10.5 19.5t-2 21t42.5 51.5t55 49zM301 93v19q-6 -15 -22 -27q-23 -23 -46 -34q-35 -22 -55 -23t-40 22q-33 27 -23 73q3 70 43 158q32 63 46 84q32 11 37 -20 q12 -19 -27 -93q-60 -142 -27 -155q11 -7 31.5 1t51 43.5t50 82.5t22.5 83q-5 25 17 38q4 6 10.5 9.5t9.5 -0.5l16 1q3 0 6 -6t6 -8q23 -19 -22 -123q-32 -67 -32.5 -104t28.5 -62q15 -10 13 -37q-4 -14 -22 -18.5t-33 5.5q-24 23 -36 68q-2 6 -2 23z" />
<glyph unicode="&#xfb;" horiz-adv-x="370" d="M232 466q2 9 9 18t40.5 38t52.5 39q19 16 31 -2q16 -13 44.5 -42t37.5 -41t-4 -30q-14 -20 -41 13q-20 24 -54 53q-17 -10 -49.5 -38t-41.5 -31t-14.5 0t-9 8.5t-1.5 14.5zM301 93v19q-6 -15 -22 -27q-23 -23 -46 -34q-35 -22 -55 -23t-40 22q-33 27 -23 73q3 70 43 158 q32 63 46 84q32 11 37 -20q12 -19 -27 -93q-60 -142 -27 -155q11 -7 31.5 1t51 43.5t50 82.5t22.5 83q-5 25 17 38q4 6 10.5 9.5t9.5 -0.5l16 1q3 0 6 -6t6 -8q23 -19 -22 -123q-32 -67 -32.5 -104t28.5 -62q15 -10 13 -37q-4 -14 -22 -18.5t-33 5.5q-24 23 -36 68 q-2 6 -2 23z" />
<glyph unicode="&#xfc;" horiz-adv-x="370" d="M284 528q16 16 28.5 9.5t17.5 -22.5q8 -15 6 -24.5t-16 -27.5q-34 -46 -59 4q-5 10 -3 15q9 31 20 40zM412 528q16 16 28.5 9.5t17.5 -22.5q8 -15 6 -24.5t-16 -27.5q-34 -46 -59 4q-5 10 -3 15q9 31 20 40zM301 93v19q-6 -15 -22 -27q-23 -23 -46 -34q-35 -22 -55 -23 t-40 22q-33 27 -23 73q3 70 43 158q32 63 46 84q32 11 37 -20q12 -19 -27 -93q-60 -142 -27 -155q11 -7 31.5 1t51 43.5t50 82.5t22.5 83q-5 25 17 38q4 6 10.5 9.5t9.5 -0.5l16 1q3 0 6 -6t6 -8q23 -19 -22 -123q-32 -67 -32.5 -104t28.5 -62q15 -10 13 -37 q-4 -14 -22 -18.5t-33 5.5q-24 23 -36 68q-2 6 -2 23z" />
<glyph unicode="&#xfd;" horiz-adv-x="341" d="M390 585q17 10 41 -28q4 -10 -14 -28t-44.5 -39.5t-34.5 -32.5q-10 -17 -15.5 -19t-17.5 6q-7 6 -10.5 19.5t-2 21t42.5 51.5t55 49zM377.5 375q3.5 0 14.5 -6q18 -20 16 -37t-24 -59q-18 -53 -32 -69q-33 -76 -59.5 -129t-38.5 -84q-64 -102 -90 -133q-55 -49 -88 -58.5 t-76 5.5t-48 40q-2 10 8.5 19t17.5 0q80 -54 158 53q51 84 73 125q-20 6 -38 35t-15 42v11q-11 0 -16.5 52.5t-3 80t6.5 93.5q-1 22 11 30q36 15 42 -37q3 -27 0 -76q-10 -156 35 -189q20 47 28.5 63.5t9.5 22t5 13t20 39.5q26 75 32 85.5t9.5 18t5.5 11.5t5 9.5t5 8.5t5 6 q4 5 9 7q9 7 12.5 7z" />
<glyph unicode="&#xfe;" horiz-adv-x="378" d="M344 265q-14 19 -52 6q-67 -23 -98 -91q-30 -63 -12 -70q15 0 60.5 15.5t69 35.5t35 47t-2.5 57zM79 -6l7 36q5 27 39 128q38 114 60 168v1q17 36 57.5 155t40.5 133t16 14q5 5 16 5l16 -16q11 -10 11 -37q-5 -13 -27.5 -79.5t-43.5 -122.5l-21 -67q80 32 122.5 7.5 t42.5 -84.5q0 -18 -10.5 -43.5t-20.5 -34.5q-6 0 -16 -21q-13 -16 -43 -33.5t-42 -13.5q-5 0 -5 -6q0 -7 -37.5 -16.5t-55.5 -9.5t-27 8q-7 -7 -7 -15.5t-10 -37.5t-16 -29q-6 -5 0 -11q0 -21 -6 -31q0 -26 -10 -48q0 -12 -3.5 -23.5t-7.5 -11.5q-6 -2 -6.5 -28t-9.5 -40 t-21 -14q-1 0 -4.5 -0.5t-5.5 0.5q-22 5 -11 59q11 42 11 58l5 32q11 18 11 47q0 12 12 22z" />
<glyph unicode="&#xff;" horiz-adv-x="341" d="M361 528q16 16 28.5 9.5t17.5 -22.5q8 -15 6 -24.5t-16 -27.5q-34 -46 -59 4q-5 10 -3 15q9 31 20 40zM233 528q16 16 28.5 9.5t17.5 -22.5q8 -15 6 -24.5t-16 -27.5q-34 -46 -59 4q-5 10 -3 15q9 31 20 40zM377.5 375q3.5 0 14.5 -6q18 -20 16 -37t-24 -59 q-18 -53 -32 -69q-33 -76 -59.5 -129t-38.5 -84q-64 -102 -90 -133q-55 -49 -88 -58.5t-76 5.5t-48 40q-2 10 8.5 19t17.5 0q80 -54 158 53q51 84 73 125q-20 6 -38 35t-15 42v11q-11 0 -16.5 52.5t-3 80t6.5 93.5q-1 22 11 30q36 15 42 -37q3 -27 0 -76q-10 -156 35 -189 q20 47 28.5 63.5t9.5 22t5 13t20 39.5q26 75 32 85.5t9.5 18t5.5 11.5t5 9.5t5 8.5t5 6q4 5 9 7q9 7 12.5 7z" />
<glyph unicode="&#x152;" horiz-adv-x="784" d="M486 387l33 60q0 13 7 30q15 43 -11 92.5t-72 41.5q-21 -4 -37.5 -19t-54.5 -63q-102 -125 -144 -232q-43 -122 -52 -199q5 -30 -1 -30q2 -12 11.5 -30t19 -27.5t30.5 -6.5q17 -3 57 6.5t50 17.5q18 7 30 7q3 2 34 16q-1 36 15 99q11 63 23 63q13 69 19.5 75t14.5 30 q0 11 6 25q15 25 15 33zM591 594q-4 8 23 19q51 20 95 23q9 6 49 7.5t75 -1.5q23 0 61 -18q8 -8 12 -30q0 -7 -59 -7t-101 -6t-45 -6l-35 -6q-4 0 -35 -51.5t-32 -58.5q0 -12 -25 -46.5t-9 -41.5q90 14 141 14q25 7 44 -4q11 -2 17 -7q13 -12 -3 -19q-13 -13 -116.5 -37 t-116.5 -21q-4 10 -6 5.5t-8 -22t-17 -42.5q-30 -67 -45 -150q-10 -26 -4 -43.5t36 -31.5q55 -10 130 9q14 8 33.5 17.5t21.5 10.5l30 5q8 11 20 11q3 0 17 -16t13 -20q0 -9 -16.5 -17.5t-42.5 -19t-45.5 -18.5t-31.5 -13q-26 -10 -69 -10t-72.5 5.5t-52.5 23.5 q-16 11 -23 24q-11 -5 -21 -12q-65 -40 -116 -41q-29 -9 -69 5.5t-71 41.5q-9 15 -23 50.5t-11 40.5q7 9 4 23q-7 21 18 98.5t66.5 169t115.5 183t118 110.5q20 3 26 3l53 -9q40 -6 91 -78l3 -6z" />
<glyph unicode="&#x153;" horiz-adv-x="541" d="M515 275q17 18 17 31.5t-14 22t-33 3t-38.5 -24t-32.5 -36t-10 -20.5q4 -8 32 -8.5t45 7t34 25.5zM307 249q5 20 1 47t-12 28q-29 16 -66 -23q-37 -43 -75 -160q-16 -55 10.5 -72t71.5 35q53 61 70 145zM430 69h10q10 0 19 5.5t13 7.5t6 3.5t4.5 2.5t3 1.5t2 1.5t2 1t2 2 t2.5 2.5t4 4t10 11.5t12.5 8t11.5 -5t8 -5q16 0 -4.5 -27t-49.5 -45q-32 -28 -76 -22t-70 42q-19 23 -25 61q-12 -20 -33.5 -40.5t-26.5 -25.5q-49 -35 -73 -38t-44 11q-45 40 -40 72q0 10 -6 22q-5 2 -2.5 6t3.5 7q6 2 4 11t3 37t10.5 41.5t14.5 29.5t16 28q21 35 36 46 q17 24 33 36q46 33 74 32q10 -1 24 -11q45 -16 55 -60l4 -17q40 53 86 71q14 9 26 10t32 -2q37 -4 53 -24q26 -25 26 -58q-3 -24 -29.5 -55t-64.5 -51q-55 -19 -91 5q-18 7 -24.5 -3t-10.5 -50q-7 -69 34 -76q16 -4 26 -4z" />
<glyph unicode="&#x178;" horiz-adv-x="504" d="M534 828q16 16 28.5 9.5t17.5 -22.5q8 -15 6 -24.5t-16 -27.5q-34 -46 -59 4q-5 10 -3 15q9 31 20 40zM406 828q16 16 28.5 9.5t17.5 -22.5q8 -15 6 -24.5t-16 -27.5q-34 -46 -59 4q-5 10 -3 15q9 31 20 40zM636 638q7 11 21 13q6 -2 9.5 -14.5t7.5 -20t3 -14.5t-22 -28 q-22 -19 -70 -69t-76 -85q-91 -105 -121 -132l-21 -21q-5 -18 -17 -70q-6 -20 -17 -56q-15 -52 -26 -87t-19.5 -70t-13.5 -45t-12.5 -8t-33.5 20q-11 11 -9 20.5t3 14.5q3 14 11 40q2 60 30 111q0 31 31 105l16 48q-56 74 -65 141q-15 51 -9 162q0 42 17 73q3 6 3 7 q16 20 29 -15q9 -26 8 -63q6 -219 50 -247q15 -4 26 4q33 24 113.5 118.5t110 127t43.5 40.5z" />
<glyph unicode="&#x2c6;" horiz-adv-x="353" d="M223 466q2 9 9 18t40.5 38t52.5 39q19 16 31 -2q16 -13 44.5 -42t37.5 -41t-4 -30q-14 -20 -41 13q-20 24 -54 53q-17 -10 -49.5 -38t-41.5 -31t-14.5 0t-9 8.5t-1.5 14.5z" />
<glyph unicode="&#x2dc;" horiz-adv-x="353" d="M466 466q-66 -37 -76 -37t-16 1t-9.5 2t-10.5 5t-9 5t-11 7.5t-10.5 7.5t-21.5 18t-30.5 17t-23 -17t-22.5 -18q-2 -13 -7 -15.5t-6 0.5q-9 3 -15 9.5t-5 16t17 31.5t46 37q13 5 34 -0.5t31.5 -14.5t19 -17.5t11.5 -11t9.5 -7t10.5 -5.5q16 -2 47.5 16t43 22.5t19.5 -4.5 t7 -16.5t-8 -17.5t-15 -14z" />
<glyph unicode="&#x2000;" horiz-adv-x="432" />
<glyph unicode="&#x2001;" horiz-adv-x="864" />
<glyph unicode="&#x2002;" horiz-adv-x="432" />
<glyph unicode="&#x2003;" horiz-adv-x="864" />
<glyph unicode="&#x2004;" horiz-adv-x="288" />
<glyph unicode="&#x2005;" horiz-adv-x="216" />
<glyph unicode="&#x2006;" horiz-adv-x="144" />
<glyph unicode="&#x2007;" horiz-adv-x="144" />
<glyph unicode="&#x2008;" horiz-adv-x="108" />
<glyph unicode="&#x2009;" horiz-adv-x="172" />
<glyph unicode="&#x200a;" horiz-adv-x="48" />
<glyph unicode="&#x2010;" horiz-adv-x="326" d="M158 227q63 14 110.5 14t56.5 -2.5t20 -12.5q16 -15 11 -28.5t-27 -9.5q-126 -10 -148.5 -10t-37.5 5q-21 0 -29 14q-11 15 -3 19q10 7 47 11z" />
<glyph unicode="&#x2011;" horiz-adv-x="326" d="M158 227q63 14 110.5 14t56.5 -2.5t20 -12.5q16 -15 11 -28.5t-27 -9.5q-126 -10 -148.5 -10t-37.5 5q-21 0 -29 14q-11 15 -3 19q10 7 47 11z" />
<glyph unicode="&#x2012;" horiz-adv-x="326" d="M158 227q63 14 110.5 14t56.5 -2.5t20 -12.5q16 -15 11 -28.5t-27 -9.5q-126 -10 -148.5 -10t-37.5 5q-21 0 -29 14q-11 15 -3 19q10 7 47 11z" />
<glyph unicode="&#x2013;" horiz-adv-x="446" d="M410 241q26 0 35 -2.5t20 -12.5q16 -15 11 -28.5t-27 -9.5q-126 -10 -271 -10q-20 0 -35 5q-21 0 -29 14q-11 15 -3 19q10 7 47 11q63 14 252 14z" />
<glyph unicode="&#x2014;" horiz-adv-x="566" d="M506.5 241q49.5 0 58.5 -2.5t20 -12.5q16 -15 11 -28.5t-27 -9.5l-63 -5q-75 -5 -328 -5q-20 0 -35 5q-21 0 -29 14q-11 15 -3 19q23 15 184.5 20t211 5z" />
<glyph unicode="&#x2018;" horiz-adv-x="117" d="M255 459q-18 -11 -26.5 -12t-26.5 7q-34 22 -25 48q4 27 13 51.5t11 30.5q9 32 51 80q0 4 9.5 6t14.5 4q14 1 23 -7q2 -9 -23 -48.5t-35 -67.5q0 -4 -1 -7q17 3 35 -12q36 -35 -20 -73z" />
<glyph unicode="&#x2019;" horiz-adv-x="117" d="M236 660q18 11 26.5 12t26.5 -7q34 -22 25 -48q-4 -27 -13 -51.5t-11 -30.5q-9 -32 -51 -80q0 -4 -9.5 -6t-14.5 -4q-14 -1 -23 7q-2 9 23 48.5t35 67.5q0 4 1 7q-17 -3 -35 12q-36 35 20 73z" />
<glyph unicode="&#x201a;" horiz-adv-x="117" d="M62 113q18 11 26.5 12t26.5 -7q34 -22 25 -48q-4 -27 -13 -51.5t-11 -30.5q-9 -32 -51 -80q0 -4 -9.5 -6t-14.5 -4q-14 -1 -23 7q-2 9 23 48.5t35 67.5q0 4 1 7q-17 -3 -35 12q-36 35 20 73z" />
<glyph unicode="&#x201c;" horiz-adv-x="267" d="M414 459q-18 -11 -26.5 -12t-26.5 7q-34 22 -25 48q4 27 13 51.5t11 30.5q9 32 51 80q0 4 9.5 6t14.5 4q14 1 23 -7q2 -9 -23 -48.5t-35 -67.5q0 -4 -1 -7q17 3 35 -12q36 -35 -20 -73zM264 459q-18 -11 -26.5 -12t-26.5 7q-34 22 -25 48q4 27 13 51.5t11 30.5 q9 32 51 80q0 4 9.5 6t14.5 4q14 1 23 -7q2 -9 -23 -48.5t-35 -67.5q0 -4 -1 -7q17 3 35 -12q36 -35 -20 -73z" />
<glyph unicode="&#x201d;" horiz-adv-x="267" d="M391 663q18 11 26.5 12t26.5 -7q34 -22 25 -48q-4 -27 -13 -51.5t-11 -30.5q-9 -32 -51 -80q0 -4 -9.5 -6t-14.5 -4q-14 -1 -23 7q-2 9 23 48.5t35 67.5q0 4 1 7q-17 -3 -35 12q-36 35 20 73zM241 663q18 11 26.5 12t26.5 -7q34 -22 25 -48q-4 -27 -13 -51.5t-11 -30.5 q-9 -32 -51 -80q0 -4 -9.5 -6t-14.5 -4q-14 -1 -23 7q-2 9 23 48.5t35 67.5q0 4 1 7q-17 -3 -35 12q-36 35 20 73z" />
<glyph unicode="&#x201e;" horiz-adv-x="267" d="M222 113q18 11 26.5 12t26.5 -7q34 -22 25 -48q-4 -27 -13 -51.5t-11 -30.5q-9 -32 -51 -80q0 -4 -9.5 -6t-14.5 -4q-14 -1 -23 7q-2 9 23 48.5t35 67.5q0 4 1 7q-17 -3 -35 12q-36 35 20 73zM72 113q18 11 26.5 12t26.5 -7q34 -22 25 -48q-4 -27 -13 -51.5t-11 -30.5 q-9 -32 -51 -80q0 -4 -9.5 -6t-14.5 -4q-14 -1 -23 7q-2 9 23 48.5t35 67.5q0 4 1 7q-17 -3 -35 12q-36 35 20 73z" />
<glyph unicode="&#x2022;" horiz-adv-x="187" d="M195 361q14 7 36.5 1.5t32.5 -19.5q12 -57 -31 -104q-26 -33 -78 -5q-7 6 -7.5 28.5t3.5 34t17 33t27 31.5z" />
<glyph unicode="&#x2026;" horiz-adv-x="594" d="M510 130q18 11 26.5 12t26.5 -7q30 -19 26.5 -42t-40.5 -41q-34 -14 -59 5q-36 35 20 73zM312 130q18 11 26.5 12t26.5 -7q30 -19 26.5 -42t-40.5 -41q-34 -14 -59 5q-36 35 20 73zM114 130q18 11 26.5 12t26.5 -7q30 -19 26.5 -42t-40.5 -41q-34 -14 -59 5q-36 35 20 73 z" />
<glyph unicode="&#x202f;" horiz-adv-x="172" />
<glyph unicode="&#x2039;" horiz-adv-x="446" d="M414 427q-3 -14 -11.5 -21.5t-26.5 -21.5q-36 -28 -101 -85q-58 -53 -66.5 -67.5t-6.5 -26.5q11 -26 49.5 -63.5t101.5 -72.5q55 -27 64 -51q4 -12 -11 -16q-39 -4 -78 14q-21 12 -30 16t-17 8.5t-12 7.5t-9 7q-10 7 -18 17q-54 31 -88 93l-24 42l-7 30q8 2 31 21 q21 26 110 102q34 25 74 65q20 22 26 22q8 3 15.5 -2t15.5 -7q18 -4 19 -11z" />
<glyph unicode="&#x203a;" horiz-adv-x="446" d="M185 20q3 14 11.5 21.5t26.5 20.5q36 29 101 86q58 53 66.5 67.5t6.5 26.5q-11 26 -49.5 63.5t-101.5 72.5q-55 27 -64 51q-4 12 11 16q39 4 78 -14q21 -12 30 -16t17 -8.5t12 -7.5t9 -7q10 -7 18 -17q54 -31 88 -93l24 -42l7 -30q-8 -2 -31 -21q-21 -26 -110 -102 q-34 -25 -74 -65q-20 -22 -26 -22q-8 -3 -15.5 2t-15.5 7q-18 4 -19 11z" />
<glyph unicode="&#x205f;" horiz-adv-x="216" />
<glyph unicode="&#x20ac;" d="M195 241l132 -2q26 0 35 -2.5t20 -12.5q16 -15 11 -28.5t-27 -9.5q-4 0 -76.5 3t-84.5 1.5t-26 -1.5q-12 -47 -15 -75q5 -28 -1 -28q2 -11 11 -27t18.5 -25t30.5 -6q17 -2 56 6.5t49 15.5q17 6 29 6q4 2 24.5 11.5t29.5 15.5q64 25 81 20q-4 -5 -9 -18q-7 -9 -31.5 -29 t-34 -21t-34.5 -17q-64 -36 -114 -37q-29 -8 -68 5t-70 38q-9 13 -22.5 45.5t-10.5 36.5q7 10 2.5 22.5t8.5 57.5h-4q-20 0 -35 5q-21 0 -29 14q-11 15 -3 19q15 10 89 15q11 29 37 89h-11q-20 0 -35 5q-21 0 -29 14q-11 15 -3 19q18 12 104 16q36 73 113 155.5t121 100.5 q20 7 48 3q54 -7 90 -52q14 -26 19 -65q6 -47 -7 -70q-2 -4 -2.5 -5.5t-2 -4t-2 -3.5t-2 -2.5l-2.5 -2.5q-7 -3 -13 -3q-12 -5 -48 22q1 16 6 31q14 36 7 67.5t-30 37.5q-23 1 -59 -22.5t-81 -74t-84 -111.5q90 -2 115 -2t34 -2.5t20 -12.5q16 -15 11 -28.5t-27 -9.5l-63 -5 q-12 -1 -122 3q-19 -42 -34 -85z" />
<glyph unicode="&#x2122;" horiz-adv-x="660" d="M282 614q4 4 4 7l6 11h-1q-25 -5 -44.5 -5t-32.5 -4q-42 -2 -39 17q3 16 31 18l35 7l91 10l39 2q36 0 55 -8q28 -6 33 -26q1 -9 -9 -15q-28 -8 -45 -1q-8 8 -40 11q-12 -2 -22 -2q-22 -68 -25 -72q2 -5 -21 -67l-38 -110q-17 -32 -24 -68q-10 -39 -15 -43t-12.5 -2 t-15.5 10.5t-7 14.5q0 30 24 93l7 26q9 15 13.5 37.5t37.5 122.5q7 11 10 24q5 2 5 12zM746 445q-10 -54 -8 -64q-9 -14 -9 -62q-4 -42 -15 -45q-1 -5 -7 -6q-15 -4 -26 13q-5 14 -5 40v9q3 19 7 36.5t11 57.5q11 55 40 176q-7 -7 -74 -134l-4 -3l-8 -20l-5 -8v1 q-16 -28 -34 -53q0 -2 -13 -21q-55 -84 -92 -47q-17 18 -17 44.5t4 53.5q10 55 15 84t6 33l-2 -3h1q-25 -41 -48 -92l-74 -139q-9 -18 -14 -23q-18 0 -32 18q-3 8 13 44t24 43h-1q4 5 7 20q6 4 28 44q42 82 44 84h-1q59 98 62 102q10 10 10 21t7.5 22t21.5 11t23.5 -15 t5.5 -40q0 -23 -3 -36t-3 -17q-16 -49 -29.5 -120t-11.5 -91q0 5 30 45v-1q81 135 125 216l15 25q20 31 32 42q17 12 33 -1.5t16.5 -47.5t-21.5 -112q-13 -53 -24 -84z" />
<glyph unicode="&#x25fc;" horiz-adv-x="355" d="M0 355h355v-355h-355v355z" />
<glyph unicode="&#xf01e7;" horiz-adv-x="401" d="M152 102q0 -35 36 -14q24 14 59 49t62 71.5t35 76.5q-4 11 -13 23.5t-16 13.5q-31 0 -94 -87l-33 -49q-6 -8 -21 -42.5t-15 -41.5zM438.5 117.5q14.5 -5.5 14.5 -23t-24.5 -35.5t-46.5 -18q-30 0 -58 107q-82 -80 -84 -83q-11 -19 -55 -36q-13 -4 -33 -1t-20 7.5t-0.5 5 t-4.5 0.5q-6 7 -18 12q-9 13 -9 30t9 53q5 49 59.5 126.5t99.5 104.5q29 29 72 6q31 -18 54 -66q5 -25 0 -76q-12 -41 -12 -89q-2 -19 4.5 -27t22 0t30 2.5z" />
<glyph unicode="&#xf01e8;" horiz-adv-x="435" d="M204 81q36 0 60 18q66 34 108.5 92.5t39.5 96.5q-3 30 -51 2q-29 -17 -64 -52q-14 -12 -78 -85q-16 -27 -17 -35q-8 -37 2 -37zM124 75q5 0 7.5 25.5t6.5 38.5t4 14.5t1 8.5q2 18 7 32q16 71 42 145q2 18 21 55q19 53 59 143t49 102q19 18 42 -5q18 -23 -5 -50 q-3 -4 -9.5 -17t-9.5 -18q-7 -19 -31.5 -71t-35 -80.5t-16.5 -43.5q-12 -31 -14 -35q-2 -9 -13.5 -42t-14.5 -51q16 15 36 35q89 95 144 97q20 1 46 -15.5t34 -35.5q24 -53 -34 -127q-21 -37 -53 -62q-27 -25 -42.5 -36t-35.5 -18q-30 -21 -131 -34q-31 -7 -60 24 q-6 8 -4 14.5t10 6.5z" />
<glyph unicode="&#xf01e9;" horiz-adv-x="435" d="M405.5 245q13.5 30 13.5 43t-5 13t-35 -12t-37 -19q0 -5 -12 -9q-56 -42 -77.5 -70t-54.5 -79q-9 -19 -28 -35q5 -1 16 -1q57 7 101 34q58 45 81.5 75t37 60zM150 51l-2 23q-24 0 -24 8q1 30 7 41q0 7 7 25.5t8 23t6 30.5q10 55 25 89q26 92 43 131q15 61 26 86t26 56 t18 37.5t15 42.5q3 9 16 11.5t21 -5t10 -10t4 -6t2.5 -6t-0.5 -7.5t-2 -8.5t-4.5 -12t-6 -15t-8 -19.5t-10.5 -25q-6 -7 -31 -75q-23 -55 -41 -111l-29 -108l27 30q41 35 93 59.5t74 16.5q13 -4 30.5 -21.5t20.5 -31.5q13 -29 -22.5 -95t-79.5 -106q-16 -8 -36 -32 q-42 -38 -105.5 -43t-77.5 27z" />
<glyph unicode="&#xf01ea;" horiz-adv-x="325" d="M216 249q0 -14 7 -23t18 -9q30 0 52 30t26.5 57t-6.5 35q-24 12 -68 -27q-27 -25 -40 -44l-13 -21q8 3 16 3.5t8 -1.5zM174 203q-24 -64 -24 -95t8.5 -44.5t32 -13.5t38.5 5.5t43 26.5l34 20q4 0 8 5q9 4 21 -3t12 -18q-2 -8 -18 -26t-24 -19q-14 -7 -15 -8h1 q-9 -12 -18 -12h-8q-4 -8 -26.5 -16t-42.5 -8q-44 0 -72.5 33.5t-26.5 83.5q3 74 49 158q64 119 142 119q19 0 43 -11q31 -13 42 -48q4 -29 -2 -51q-24 -73 -82 -106q-16 -10 -40 -10q-47 0 -68 30z" />
<glyph unicode="&#xf01eb;" horiz-adv-x="355" d="M309.5 325q-3.5 0 -7.5 -1t-8 -2.5t-9 -5.5t-9 -7t-10 -8.5t-10.5 -9.5t-11.5 -11t-12 -11q-95 -86 -87 -121q2 -10 27 -6.5t41.5 12t29 14t19.5 8.5q20 9 27 22t14 37t16 25.5t22 -3.5q11 6 9 21q-4 29 -34 45q-3 2 -6.5 2zM375.5 215q-11.5 -8 -11.5 -15.5t-16 -25.5 q-1 -7 -16 -75t-21.5 -95.5t-19.5 -60.5q-7 -44 -31 -75q-14 -24 -35.5 -39t-42.5 -17.5t-63 16.5q-20 15 -37.5 44.5t-15.5 43.5q2 10 17 2.5t23 -18.5t28 -24t31 -11q41 6 71 76q17 48 33.5 121t12.5 77q-49 -26 -65 -35q-62 -20 -97 -8q-11 5 -21.5 26t-9 35.5t27.5 58.5 t30.5 43.5t4.5 9.5q2 9 55 51q72 64 115 68l20 -1q9 -6 24 -12q21 -9 37 -36t18 -54q-2 -22 -10 -43t-16 -20t-19.5 -7z" />
<glyph unicode="&#xf01ec;" horiz-adv-x="454" d="M487 109l-6 -15v-5q0 -5 -27 -30q-63 -58 -102 -25q-25 22 -25 72.5t23 119.5q4 12 4.5 14t-2.5 5q-5 0 -18 -13q-44 -36 -89 -96t-45 -77.5t-15 -24t-30 2.5t-19.5 24.5t-1 68.5t14 105.5t40.5 149.5q51 142 54 147q7 7 20.5 43.5t13.5 48t10 21.5l10 10q9 0 21 -7.5 t15 -17.5q10 -22 4.5 -44.5t-34.5 -79t-47 -110t-37.5 -121t-19.5 -78.5t9 -7t15 12q4 8 38 39q87 79 101.5 79t26 -9t15.5 -21q2 -2 5.5 -7.5t4.5 -6.5q13 -13 -20 -113q-20 -80 -15 -87q1 -1 3 -1q17 9 33 19q48 31 67 22q5 -2 5 -7z" />
<glyph unicode="&#xf01ed;" horiz-adv-x="454" d="M445 228.5q0 -17.5 -5 -86.5q-9 -51 -8.5 -61t13.5 -21q29 -24 2 -38q-19 -6 -28 -4t-17.5 10.5t-13.5 16l-7 10.5q-8 17 -9 25t-2 20.5t2 39.5t3 33q11 49 7.5 65.5t-7.5 16.5q-15 3 -66 -44.5t-111 -116.5q-36 -51 -39 -51q-11 -1 -30 10.5t-20 22.5q0 13 84 261 q5 14 25 64.5t22.5 57t16.5 42.5q33 84 42 112q-1 17 7 28l14 1q0 2 7 -4q24 -19 24 -29q8 -25 -20 -95q-9 -12 -24 -53.5t-22.5 -56t-37 -83t-41.5 -112.5q-11 -26 -7 -32t24 18q93 98 121 116t41 17q12 -3 29.5 -22.5t24.5 -37.5q6 -22 6 -39.5z" />
<glyph unicode="&#xf01ee;" horiz-adv-x="187" d="M165 316q5 7 16 3.5t19.5 -13t6 -31t-22.5 -92t-18 -104.5q-6 -46 -9 -47q-17 -7 -30 15.5t-15 40.5q4 38 6 54q8 37 25.5 101.5t21.5 72.5zM215 525q9 13 18.5 13.5t29.5 -7.5q3 -3 7.5 -14t8 -19.5t4.5 -12.5t2.5 -11.5t0 -12.5t-3.5 -11q-4 -11 -14 -18t-22 1 q-10 1 -26.5 17.5t-17 24.5t1.5 22.5t11 27.5z" />
<glyph unicode="&#xf01ef;" horiz-adv-x="187" d="M104 54l-5 20q-7 4 -8 8.5t3 15.5q13 23 46 104.5t37 96.5q0 10 10 20q17 13 32 -17q7 -13 7 -26t-22 -70q-25 -61 -48.5 -108t-30.5 -48q-2 -1 -6 -1zM232 534q14 0 24 -5q7 -16 25.5 -38t18.5 -30q0 -23 -4.5 -28t-26.5 -5t-41.5 20.5t-19.5 42.5q0 5 12 23t12 20z" />
<glyph unicode="&#xf01f0;" horiz-adv-x="169" d="M323 594q0 -9 -4.5 -15.5t-20.5 -36.5q-13 -48 -22 -68t-11.5 -28t-14.5 -39t-27.5 -82t-23 -63.5t-16.5 -63.5q-15 -45 -15 -53q-3 -10 -8 -39.5t-11 -41.5q-3 -33 -33 -17q-20 11 -20 30t12 63q6 49 19 71q41 139 44 153q9 26 25 68.5t21.5 58.5t17 57t19.5 54 q15 23 20 33q1 6 12.5 5t17.5 -8q7 2 13 -13.5t6 -24.5z" />
<glyph unicode="&#xf01f1;" horiz-adv-x="169" d="M194 418l6 15q1 12 8 24q12 18 18 35q16 34 28 52q10 24 24 38l-1 1q7 12 24.5 12t20 -3.5t2.5 -24t-9 -30.5h1q-12 -28 -17 -34.5t-39 -78.5q-54 -110 -54 -122q-11 -24 -12 -26l-22 -79q-16 -43 -17 -48q-16 -44 -22 -123l-1 -4q-3 -21 -10 -28t-21 -3q-25 8 -26 46 q24 146 51 220q7 19 12 34q34 98 56 127z" />
<glyph unicode="&#xf01f2;" horiz-adv-x="612" d="M579 51l-22 -5q-13 -4 -32.5 3.5t-24.5 27.5q-14 32 -6 85q2 10 4 22q3 29 5 32q0 26 -3 26q-8 0 -53 -52q-70 -80 -89 -124q-4 -8 -6 -9q-15 -16 -34 17q-6 10 -4 24q1 4 51 162q0 7 -50 -36q-4 -5 -28 -30q-63 -67 -94.5 -110.5t-42 -51.5t-20.5 3.5t-10 20.5t-5 9 q-6 6 23 68.5t50 95.5q7 7 6 14q10 18 14 22q17 33 14 53q-3 3 -6.5 3t-6 -1.5t-7.5 -3.5q-8 -2 -19 -7q-23 -16 -31 -14.5t-16.5 22t0.5 28t18.5 12t20.5 11t20 8.5q54 16 71 -23q31 -41 -10 -103q-4 -8 -2 -10t13.5 12.5t19.5 14.5q5 0 5 9l10 9q2 0 43 32q11 8 20 8 q22 7 37 -14.5t15 -57.5l-21 -54l36 44q9 11 24 24q2 9 8 9h2q4 0 4 4q2 2 6 5q12 7 13 10q36 14 55 -23q9 -16 9 -48q-3 -18 -9 -66q-5 -11 -5 -27.5t1 -20.5q0 -8 8 -8q15 3 39.5 14.5t37.5 24t24.5 13t14.5 -11.5q3 -6 -15.5 -32t-25.5 -26q-2 0 -7 -6q-25 -27 -37 -27z " />
<glyph unicode="&#xf01f3;" d="M441 282q12 0 11 -29t-6 -44q0 -16 -15 -76q-23 -73 -5 -97q4 -8 -0.5 -16t-17.5 -8t-28.5 23.5t-15.5 56t17 94t14 65t-31 -12t-40 -29.5q-2 -1 -14.5 -12.5t-43 -35.5t-80.5 -74q-9 -17 -26 -9q-12 3 -21 13.5t-9 22.5q0 36 61 168q10 18 10 41.5t10 33.5q4 8 14 4.5 t17 -14.5q27 -26 5 -87l-15 -34q1 0 51 29q11 8 25 19q28 22 34.5 22t16.5 10l9 5q7 0 15 7t30.5 -2.5t22.5 -24.5z" />
<glyph unicode="&#xf01f4;" horiz-adv-x="378" d="M362 268q9 19 -3 31q-19 3 -56.5 -20t-55.5 -46t-28.5 -53.5t-8.5 -50t13 -19.5q9 5 49 35.5t54 48.5q18 21 36 74zM224 366q0 -5 5 -6q2 2 9 -7q18 -26 18 -38q-2 -4 -2 -4.5t4 -0.5q43 21 51 30q10 4 15 9q20 7 43 2.5t38 -17.5q20 -25 21 -48t-14 -58l-27 -47 q-36 -56 -117 -102q-15 -10 -31 -13.5t-19 0.5q-11 8 -20 34q-13 -31 -15.5 -44.5t-6.5 -16.5q0 -5 -8 -16q-38 -110 -39 -115q-2 -25 -11 -52.5t-17.5 -33t-21.5 3.5t-18 26.5t-1.5 29t6.5 20.5q5 20 7 31.5t12 40.5t18.5 43t8.5 39q7 22 13 30q7 22 15 34q6 27 9 28 q9 43 25.5 84t15.5 68t-14.5 32.5t-11.5 19.5q4 25 38 22q11 -1 16.5 -4t5.5 -4z" />
<glyph unicode="&#xf01f5;" horiz-adv-x="378" d="M365 277q-10 17 -41.5 15t-73.5 -25q-26 -10 -37 -33q-35 -71 -32 -88q5 -13 59 8.5t85 47.5q55 63 40 75zM34 -205.5q-11 13.5 -11 25.5t20 95.5t29.5 110t15.5 41.5q17 43 28 80t39 106q26 64 57 149q7 18 24.5 23t30.5 -15q7 -12 -9 -51l-7 -20l36 8q85 0 97 -9 t21 -24q17 -18 20 -30q8 -33 -11.5 -74t-50.5 -61l-26 -13q-2 -8 -45.5 -25.5t-73.5 -21.5t-38 1q-19 4 -19 -2q-25 -74 -41 -135q-55 -165 -64 -176q-11 4 -22 17.5z" />
<glyph unicode="&#xf01f6;" horiz-adv-x="360" d="M301 328q48 34 72.5 34t34.5 -19q18 -32 -2 -57q-9 -11 -23 -17t-20 -6t-15 9t-10 15q0 5 -28 -17.5t-37 -31.5q-23 -28 -81 -144q-6 -12 -12 -29q-11 -31 -17 -33t-19 2q-51 16 -4 84q7 14 27 72.5t23 65.5q2 17 -2 24q-5 9 -16 9t-14 1q-8 1 -8 21q2 19 23 32 q36 19 57 1q13 -9 13 -66q52 44 58 50z" />
<glyph unicode="&#xf01f7;" horiz-adv-x="341" d="M405 343q0 -16 -17 -44q-4 -12 -9 -22t-5 -12q-8 -15 -22.5 -7.5t-21.5 26.5q-7 27 5 45q19 19 0 19q-12 0 -46 -19t-53 -38t-23 -27.5t-4 -24.5t6.5 -36.5t13.5 -27.5q10 -22 24 -42q29 -64 15.5 -92t-73.5 -32q-39 -4 -68.5 10t-38.5 41q-11 23 0 29q6 0 16.5 -6 t15.5 -8q22 -19 57 -12.5t39 25.5q0 5 -10 35q-52 74 -52 137q0 43 41 73q53 56 125 76q34 0 54 -10q11 -4 21 -22t10 -34z" />
<glyph unicode="&#xf01f9;" horiz-adv-x="331" d="M154.5 74.5q-5.5 20.5 -5.5 50.5t7 65q18 85 27 111q3 11 -9.5 14.5t-29.5 3t-20 1.5l-4 6q0 5 -3.5 10.5t2 13t11.5 8.5t20.5 3t23.5 4q30 6 42 22q13 33 33 74.5t27 49.5q17 9 25 7.5t18 -17.5q11 -10 7 -23q-2 -11 -48 -99q12 -2 32 0q32 6 55 3q43 0 46 -37 q2 -11 -4 -13t-78 -4.5t-73 -6.5q-10 -7 -34 -96q-12 -55 -13 -100t12 -62q9 -9 34.5 -4t47 23t34 8.5t-7.5 -37.5q-18 -28 -48.5 -43t-54 -8.5t-48.5 28.5q-18 24 -23.5 44.5z" />
<glyph unicode="&#xf01fa;" horiz-adv-x="331" d="M220 67l17 1q14 6 -15 -70q-5 -8 -10.5 -17.5t-8.5 -14t-6 -8.5q-5 -8 -8 -8q-33 5 -44.5 24.5t-5.5 59.5q3 9 6 22q5 28 10 32q4 5 0 9q0 13 18 59q-6 8 5 17.5t7.5 14.5t3.5 19t16.5 32t11.5 24q-1 3 16.5 41t22.5 47q8 4 -6.5 6.5t-57.5 2.5t-62 11q-24 26 15 28 l131 11l3 17q25 43 29 68q17 27 20 51q17 27 24 41.5t8 15.5q11 9 15.5 9t19.5 -10q38 -24 19 -41q-4 -8 -12 -32q-21 -26 -26 -54q-21 -44 -26 -44q0 -10 15 -10q33 2 43 4t13 3q9 1 18 -3q8 -12 9.5 -24.5t-8.5 -18.5q-1 0 -21 -6q-16 -4 -91 -11q-26 -50 -30.5 -59.5 t-4.5 -11.5l-42 -88q-4 0 -4 -6q4 -12 -1 -16q-8 -7 -14 -16q5 -5 -5 -23q0 -17 -14 -51q1 -18 2 -23t5 -4z" />
<glyph unicode="&#xf01fb;" horiz-adv-x="370" d="M173 328q20 33 34.5 33t28.5 -33q7 -13 -5 -24q-15 -19 -35 -68.5t-31.5 -91t-4.5 -41.5q29 0 71 40q28 28 70.5 97t46.5 80q15 28 21.5 36.5t16.5 11.5h14q6 -1 14 -9q10 -5 10 -16q-3 -7 -14 -31q-67 -152 -74 -192q-10 -60 22 -89q12 -8 -1.5 -18.5t-21.5 -10.5 q-16 -8 -41 24q-12 19 -11.5 56.5t-3.5 38.5t-41 -35q-55 -54 -84 -52q-11 0 -23.5 15t-19.5 38t1.5 71t24.5 92.5t36 77.5z" />
<glyph unicode="&#xf01fc;" horiz-adv-x="370" d="M201 355q12 15 19.5 16.5t27.5 -7.5q22 -25 -1 -62q-42 -56 -54 -140q-11 -34 -9.5 -46t18.5 -16q29 -7 71 36q57 59 74 136q12 54 29.5 65t28.5 0q9 -4 11 -9.5t1 -28t-8.5 -42.5t-19 -41.5t-22 -45.5t-41.5 -62.5t-57 -49.5q-27 -17 -50 -17.5t-49 10.5 q-20 19 -29.5 37t-14 54.5t21.5 111t53 101.5z" />
<glyph unicode="&#xf01fd;" horiz-adv-x="331" d="M354 311q0 -3 15 0q7 7 19 0q10 -8 10 -15t-16 -35.5t-23 -32.5l-10 -10q-7 -26 -103 -147q-20 -27 -44 -39q-10 -8 -14 -7t-15 12q-34 33 -34 211q5 54 5 103q8 10 29 0q14 -7 16.5 -27t2.5 -101q-7 -94 -1.5 -101.5t10.5 -5t21 18.5q31 47 60.5 87t36.5 51.5t19 24.5 t16 13z" />
<glyph unicode="&#xf01fe;" horiz-adv-x="331" d="M151 345q29 31 46 5q25 -12 4 -57q0 -2 -6 -29q-8 -14 -8.5 -21.5t1.5 -18.5q3 -22 -4 -32q-3 -13 0 -41.5t10 -38.5q3 -20 35 5q25 25 57 68t29 49t-1 9.5t10 9t10 8t5 11.5t5 13q5 5 8 14q-2 5 5.5 13.5t8.5 10.5q3 19 20 16.5t18 -22t-17 -59.5t-30.5 -58t-18.5 -28 q-20 -40 -52 -72q-6 -6 -11 -11.5t-10 -9.5q-41 -46 -61 -47q-16 -3 -49 32q-11 15 -18 55t-6 89t20 137z" />
<glyph unicode="&#xf01ff;" horiz-adv-x="517" d="M190 354l5 30q0 9 10 19q14 8 34 -9q15 -15 15 -23.5t-15 -45.5q-34 -74 -49 -147q-4 -4 -4 -10t-3 -18t-4.5 -25t6 -17.5t16.5 1.5q1 2 7 7q17 16 24 28q4 12 11.5 18.5t7.5 12.5t30 48q32 57 42.5 71t13.5 20.5t4 9t1 3.5q3 5 4.5 5.5t3 1.5t4.5 1h5q15 0 18.5 -4 t5.5 -11q10 -10 10 -29l-5 -15q0 -17 -14 -47q-13 -51 -16.5 -108t3.5 -61t23 16t29.5 40.5t23.5 31.5q22 26 31 44q0 4 11.5 29t11.5 30.5t5 12.5q16 26 27 51q7 28 28.5 34.5t22.5 -11.5q1 -3 0 -7q-8 -48 -39.5 -119t-67.5 -127q-8 -6 -14 -16t-6 -13.5t-18 -18 t-36 -26.5q-23 -19 -51 -5q-22 12 -30.5 37t-8.5 77v48q-15 -19 -34 -48q-21 -39 -44 -66.5t-34.5 -31.5t-36 4.5t-28.5 19t-0.5 62t11.5 66.5l2 10q0 2 -2 4q43 142 53 166z" />
<glyph unicode="&#xf0200;" horiz-adv-x="343" d="M157 333.5q0 3.5 5 13.5l2 1q17 20 35 15q24 -17 52 -108l55 60q44 46 62.5 55.5t33.5 -5.5q6 -4 6 -19q5 -15 -81 -101q-46 -32 -57 -54l1 -4q-2 -5 14 -56l6 -24q2 -6 9.5 -18.5t10.5 -21.5q19 -46 23.5 -48t5.5 -5q6 -11 8 -13q10 -23 -11 -26q-11 -1 -30.5 17 t-31.5 38q-33 65 -36 74t-3 10q-2 5 -10 27q-24 -24 -64 -70q-70 -83 -95 -58q-7 7 -5 20.5t15 28.5q23 23 124 143q-26 96 -37 112q-7 13 -7 16.5z" />
<glyph unicode="&#xf0201;" horiz-adv-x="343" d="M284 289q3 0 38 35q13 15 28 26t22.5 11.5t17.5 -12t11 -27.5q0 -8 -19.5 -29.5t-43.5 -39t-44 -34.5t-35 -29q36 -76 67 -109l30 -28q4 1 8.5 -5t3.5 -13q3 -12 -12 -19q-7 -3 -10 -4t-10 2t-10.5 1.5t-20.5 11.5t-27.5 24.5t-24.5 30.5q-32 45 -38 55q-10 -8 -61 -64 q-42 -41 -53.5 -51t-18.5 -10.5t-15.5 11.5t-9 23.5t93.5 109.5l43 47q-45 120 -45 136q-9 22 1 34q0 12 14 8.5t19 -7.5q10 -3 20.5 -22.5t13 -33t13.5 -46.5l7 -34q31 33 35 37q12 11 12 14z" />
<glyph unicode="&#xf0202;" horiz-adv-x="341" d="M248 86.5q-20 -11.5 -24.5 -11.5t-4.5 -4.5t-26 -13t-34.5 -8.5t-20 10.5t-15 17.5t-9 17t-7.5 15q-10 25 -2 44q12 45 40.5 127t43.5 105q8 12 21 11t22.5 -16t8 -24t-17.5 -39q-4 -12 -10 -25t-6.5 -14.5t-2.5 -13.5q-7 -32 -12 -32q-5 -5 -12 -36q-17 -74 -8 -83 q59 0 127 88q5 25 18 78t19 87q6 14 9 16.5t14 2.5t16 -2t12 -12q10 -19 7.5 -44.5t-18 -47t-29.5 -114.5q-9 -38 -22 -117q-16 -42 -20 -60.5t-23 -57.5q-79 -163 -198 -171q-25 -2 -30 -1t-22 10q-23 15 -23 20q0 15 25 15q7 -4 23.5 -4t25.5 7t30 11q60 29 101 98 q39 60 72 201l-13 -12q-5 -6 -25 -17.5z" />
<glyph unicode="&#xf0203;" horiz-adv-x="315" d="M295 39q-47 -13 -166 -13q-42 30 -44 70q-4 25 31.5 69.5t89.5 85.5q86 54 83 62q-1 3 -2 8q-1 2 -45 7q-7 -1 -20 -1q-26 0 -63 -7q-19 -1 -25.5 0.5t-12.5 8.5q-13 23 -7 26q1 11 11.5 14.5t48.5 8.5q3 -1 32.5 -1.5t72 -6t60.5 -12.5t23 -26q9 -24 -3 -38.5t-71 -51.5 q-71 -49 -112 -96.5t-40 -52.5t12 -9q7 -8 34 -4q49 0 53.5 -1.5t20 3t19.5 5.5q53 4 66 8.5t44 4.5q5 -6 5 -14.5t-10 -17.5t-27 -13q-47 -17 -58 -16z" />
<glyph unicode="&#xf0204;" horiz-adv-x="315" d="M347 361q17 -15 17 -35.5t-39 -59.5l-110 -117q-52 -54 -54 -68q6 -11 104 5q5 1 7 1q38 12 61 10.5t25 -14.5q-2 -8 -15 -23.5t-17 -14.5q-42 -10 -90.5 -22.5t-71 -13t-48.5 13.5q-39 18 -28 51q16 44 137 165q28 28 47.5 56.5t19.5 35.5q-47 1 -91 -2.5t-59.5 1.5 t-18.5 19q-11 15 5.5 27.5t33.5 12.5q8 5 69 1.5t78 -9.5q21 -5 38 -20z" />
<glyph unicode="&#xf0205;" horiz-adv-x="204" d="M274 306l-14 3l-10 5q-11 0 -30.5 -51.5t-25 -72.5t-10.5 -39q-16 -57 -21.5 -86.5t-6.5 -33.5q-6 -12 -11 -37q-14 -71 -51 -139q-29 -59 -64 -74q-10 -5 -32 -5t-37 5q-33 12 -54.5 55.5t-9.5 71.5q5 11 11 11q3 0 12 -21.5t9 -28.5t17.5 -23.5t29.5 -17.5q44 -4 78 70 q18 29 20.5 39t6 26t7.5 30t14 68.5t15 71.5q0 28 16 53q10 61 32.5 114t25.5 56q14 14 48 6q8 -3 19 -15t17 -24t1 -14q0 -3 -2 -3zM244 578q39 20 62 -3q35 -34 -16 -85q-30 -30 -52 -9q-29 29 -7 57q13 21 13 40z" />
<glyph unicode="&#xf0206;" horiz-adv-x="291" d="M133 -83q8 29 8 53q4 128 33 255q3 34 0 42t-15 9q-46 4 -52 23q-20 18 16 26q14 3 39.5 3.5t33 8t14.5 32.5l22 67q9 7 9.5 23t53.5 99q37 48 64 71t62 29q3 2 30 1.5t35 -6.5t16.5 -23t4.5 -37.5t-13 -33.5t-25 -28.5t-20.5 -15.5t-12.5 4.5t-9 5.5t-1.5 2.5t-0.5 3.5 t1 4l2 4q4 8 5 9q4 4 7 10q19 29 13 50q-33 6 -80 -45q-18 -16 -29 -35t-15 -27q-26 -46 -42 -85.5t-22 -51.5q-11 -24 -12.5 -28t5 -5t26.5 1q94 12 102 -15q15 -22 -6 -30q-10 -3 -48 -8.5t-50.5 -6t-21 -1t-9.5 -0.5h-3q-9 0 -15 -23q0 -7 -3 -26.5t-4 -29.5 q-3 -8 -6 -24.5t-6 -23.5q-4 -37 -7 -96.5t-7.5 -89.5t-15.5 -46q-18 -20 -28 -12q-7 2 -15 7.5t-8 9.5z" />
<glyph unicode="&#xf0207;" horiz-adv-x="291" d="M323 623q30 26 49.5 34t41.5 8t41.5 -19.5t19.5 -41.5q0 -48 -49 -120q-21 -11 -27 -4q-2 2 1 6q0 2 2 10q7 22 10 29.5t3 15.5q17 66 -1 66q-9 1 -27 -9.5t-18 -17.5v-4q-5 1 -35.5 -36.5t-47.5 -66.5q-39 -81 -59 -141l16 -2q14 -1 52.5 5.5t53 1.5t23 -24.5t-17 -28.5 t-103.5 -13q-37 3 -43 -3q-6 -3 -18.5 -43t-18.5 -75q-11 -44 -13 -94.5t5 -71.5q13 -50 -11 -59q-20 -2 -34 28.5t-14 78.5q-8 76 40 247q14 50 53 140t47 97q4 -1 5 1.5t1 5.5t3.5 9.5t9.5 17t10 18.5q20 29 50 55z" />
<glyph unicode="&#xf0208;" horiz-adv-x="512" d="M509 550v8q-11 28 -65.5 32.5t-105.5 -15.5q-14 -6 -18 -21q-1 -6 -2 -9t-2.5 -13t-4 -21.5t-15 -47t-13 -39t-5 -8.5t-4.5 -10q-10 -22 -32 -88l4 -14q62 20 65 21q64 10 116.5 58t71.5 101q6 10 9 32.5t1 33.5zM453 251q-14 21 -36 27.5t-36.5 3.5t-45.5 -12 q-21 -4 -66 -18t-50 -14q-24 -22 -25 -29q-6 -2 -14 -24t-12.5 -42.5t-1.5 -21.5q3 -4 -2 -20t-6 -21q-8 -23 15.5 -39.5t59.5 -18.5q52 -8 114 25t96 86q47 59 10 118zM242.5 -36q-43.5 0 -102.5 29q-2 11 -9 20.5t-12.5 10t-9 5t-8 11t-6.5 8.5q-4 19 -3.5 29.5t7.5 50.5 q58 152 98.5 252.5t51 132t1.5 52.5q-13 42 26 56q64 35 117 41q30 4 74.5 -7t49.5 -26l6 -2q5 0 16.5 -9.5t19 -27.5t3.5 -33l7 -33q11 -63 -51 -130q-4 -5 -14 -18q-16 -21 -22 -21q-11 -10 -15 -19.5t4 -12.5q10 -15 26 -34q19 -29 24 -68.5t-5.5 -77t-61.5 -86.5 t-111 -75q-57 -18 -100.5 -18z" />
<glyph unicode="&#xf0209;" horiz-adv-x="482" d="M579.5 624q9.5 0 11.5 -10q-6 -9 2 -16q12 4 -18 -59l-3 -10q2 -6 -9 -19q-6 -10 -16 -45.5t-9 -45.5q2 -10 -13 -7q-7 1 -24 7.5t-21.5 18.5t5.5 51q15 48 16 67.5t-12 33.5q-5 9 -22 11.5t-28 -4.5q-21 -8 -64 -56.5t-81 -101.5q-68 -95 -91.5 -200.5t3.5 -181.5 q2 -5 12 -17.5t16 -16.5q32 -7 90 -1q40 7 60.5 22t37 38.5t28 28.5t20 -1.5t10.5 -23.5q0 -9 -17.5 -36.5t-24.5 -29t-6 -8.5q0 -9 -44 -28.5t-64 -19.5q-29 -7 -102 10q-29 6 -54 30t-33 61q-22 102 19 252q10 35 52.5 108t73.5 111t74 75t59 44q22 12 57 4q20 -2 43 -18 t25 -29q1 -6 22 1q10 11 19.5 11z" />
<glyph unicode="&#xf020a;" horiz-adv-x="578" d="M550 539q-37 64 -118 64q-31 0 -39 -4q-22 0 -52 -108q-9 -33 -23.5 -70.5t-24.5 -67.5q-22 -46 -35.5 -90t-14.5 -47q-12 -24 -25.5 -88t-13.5 -90q0 -14 28 -14q50 0 71 9q67 18 126 78q36 37 60.5 73.5t53.5 108t29 139.5t-22 107zM294.5 650q18.5 11 37 14t62.5 3 t73 -5t55 -17.5t33.5 -21t12.5 -8.5q11 -6 36 -43t30 -64q12 -56 -2 -143q-8 -54 -43 -125q-12 -24 -14 -24q-8 0 -9.5 -15t-35 -67t-60.5 -70q-43 -47 -110 -73.5t-127 -26.5q-97 0 -109 69q1 22 2.5 28t7.5 6q9 0 9.5 16t9 51t16.5 48q37 131 67 207.5t33.5 86t9.5 26.5 q10 29 21 48l13 29l-23 20q-14 14 -14 27t18.5 24z" />
<glyph unicode="&#xf020b;" horiz-adv-x="466" d="M500 617l-43 -2q-25 -7 -43 -3q-5 -2 -16 -4t-18 -6.5t-11 -4t-4.5 -2t-1 -9t-1.5 -13.5q1 -20 -3 -35l-49 -137q-11 -30 -21 -46q1 -10 3 -10.5t9 5.5q6 -3 23 4q10 0 20 -2q-1 2 2 3t12.5 1.5t15.5 3t25 6.5t27 7.5t12 3.5t18 -6q10 -13 12 -33t-6 -26q-16 -6 -31 -11 q-17 3 -35 -4q-21 -13 -69 -9q-5 -4 -16.5 -5.5t-14.5 -3.5l-24 -2q-6 0 -6 -15l-6 -12q-6 -6 -7 -13q1 -20 -6 -38q-34 -111 -26 -123q10 -10 17 -11q6 4 10 -5t5 -16q-1 -7 -28 -41q-23 -58 -62 -19l-15 18q36 218 44 218q3 1 7 50l-15 -2q-12 2 -14 5t-1.5 19.5 t13.5 18.5q17 6 34 19.5t17 25.5t15 59t33 81q11 37 11 47q8 29 8 32q6 11 2 13t-19 -1l-51 -5q-6 1 -10 9q-9 9 -7.5 19t9.5 9t19 10t39.5 13t52 9.5t27.5 11.5q0 5 15 5q23 5 30 3q21 9 117 8q38 -4 38 2q20 -1 42 -8q35 -2 49.5 -13.5t15.5 -39.5l4 -23l-27 9 q-113 16 -146 11z" />
<glyph unicode="&#xf020c;" horiz-adv-x="498" d="M189 93q0 -23 4.5 -45t16.5 -30q34 -23 84 1q33 5 73.5 40.5t67.5 81.5q69 137 21 134q-26 2 -43 1q-37 -4 -58 4q-16 23 5 44q19 8 63 8.5t83 -13.5q43 -19 30 -99q-8 -40 -56 -119q-22 -33 -66.5 -72t-71.5 -51q-100 -49 -151 -15q-27 16 -43.5 46.5t-16.5 63.5 q-6 119 32.5 247t73 191t67 99t52.5 48.5t53.5 19.5t78 -2t68.5 -29q2 -3 9 -12q13 -17 14 -30t-13.5 -28.5t-24 -4t-17.5 18.5t-13 10t-15.5 8t-14.5 7q-16 10 -50 5t-53 -22.5t-44 -50t-37 -59.5q-57 -107 -78 -198t-25.5 -133t-4.5 -65z" />
<glyph unicode="&#xf020d;" horiz-adv-x="564" d="M244 337q0 3 54 5q180 9 194 12l51 6l70 242q13 44 22 56.5t18 13t18.5 -4t12.5 -11.5q24 -19 -3 -62q-16 -32 -27 -67.5t-14 -43.5q1 -20 -5.5 -27.5t-16 -32.5t-9.5 -29q2 -21 -9 -32q-42 -167 -55 -202q1 -5 -4 -18t-4 -18q-15 -48 -14 -54q-20 -102 -20 -109 q-4 -6 -31 5q-20 11 -23.5 23t2 24t20 71.5t24 99t16.5 70t9 32.5v10q-1 5 -82.5 2t-135.5 -12l-73 -3q-5 -10 -27 -92.5t-34.5 -150t-29.5 -132.5l-21 4q-15 3 -23 16.5t-5 29.5q7 7 7 38q4 11 9 32q6 45 31.5 149.5t32.5 111.5q0 5 -0.5 15.5t9.5 27.5q9 27 9 41 q1 1 53 143v5q3 3 23.5 54.5t28 69t11.5 25.5q9 16 9 20q7 12 23 7t24 -21l11 -16l-34 -73q-34 -66 -34 -79q-21 -59 -29 -86t-14.5 -45.5t-10.5 -28t-4 -11.5z" />
<glyph unicode="&#xf020e;" horiz-adv-x="400" d="M412 654q12 -7 68.5 -0.5t76.5 5t27 -15.5q14 -41 -17 -39q-16 -5 -82 -9q-70 -9 -75 -17q-3 -3 -7 -9t-6 -8q3 -9 -7.5 -44t-23.5 -79q-32 -108 -38 -119q-8 -24 -8 -35q-18 -71 -43 -152t-33 -113q22 2 74.5 9t67.5 6t20 -14q31 -37 -18 -44q-17 -3 -74.5 -7t-78.5 -7 t-22 -12q0 -16 -28 -5q-15 18 -92 11q-21 -4 -39 5t-15 22q2 25 82 29l53 3l10 21q24 90 50 170.5t28 93.5q21 52 34 118q42 139 33 148q-9 1 -54 -5t-49 -9q-5 -7 -17 -3.5t-16 13.5q-3 17 6 24t46 19.5t75 18.5t57 23q20 8 35 7z" />
<glyph unicode="&#xf020f;" horiz-adv-x="306" d="M334 672q13 0 23 5q11 -2 24 3l20 3q3 3 11.5 -5.5t13.5 -18.5q6 -17 -8 -88q-16 -53 -23 -69q-2 -39 -17 -67q-11 -33 -20 -61q-15 -51 -15.5 -54.5t-5.5 -15.5q-10 -3 -10 -24q-11 -18 -13 -20q1 -12 -7 -22q0 -25 -28 -89q-3 -13 -22.5 -63t-20 -53.5t-10.5 -22.5 q-24 -48 -49.5 -107t-48.5 -79t-43.5 -19t-47.5 17q-92 54 -82 166q1 16 3.5 20.5t10 4t12.5 -6t4.5 -11t5.5 -17.5q25 -71 47 -87q4 -5 14 -12t17 -7q15 -10 22 -6t21.5 28.5t50 105.5t42.5 101q5 5 8 14q0 11 22 71t27 79q98 302 102 336q0 13 -4 14t-18.5 -3.5 t-37.5 -4.5t-36 -3q-22 -2 -36.5 13.5t-7.5 38.5q0 10 49 6l19 4q22 9 42 6z" />
<glyph unicode="&#xf0210;" horiz-adv-x="494" d="M609.5 590q4.5 0 6.5 -1t7 -4.5t9 -5.5l11 -20q1 -9 -10 -18t-36 -22q-66 -40 -171 -128t-115 -113q-8 -7 -5 -14.5t22 -24.5l30 -38q0 -6 66 -69q2 -6 23.5 -29t32.5 -41q95 -100 49 -101q-14 0 -44.5 15.5t-44.5 42.5q-3 4 -21.5 24t-26.5 30q-67 67 -103 121 q-6 6 -16.5 17.5t-16.5 17.5q-14 14 -26 19q-11 -8 -16 -37q-4 -8 -43 -137q-10 -28 -15 -33q-5 -23 -12 -55.5t-15.5 -39t-34.5 15.5q-17 29 -17 33q10 27 16.5 49t22.5 70q52 160 52 174q44 132 68 170l5 20q0 9 9 11q0 13 5 19q7 15 30.5 82t23.5 71.5t9 15.5 q14 11 31 5.5t29 -25.5q0 -17 -13 -49l-19 -43q-17 -50 -40 -110q-50 -101 -41 -110q43 31 86 72q37 38 120 98q74 50 93 61t35 12q6 2 10.5 2z" />
<glyph unicode="&#xf0211;" horiz-adv-x="472" d="M569 540l5 -41q0 -94 -126 -196q-41 -33 -86 -46t-81 -5q-11 4 -17.5 20.5t-1.5 21.5q64 0 121 36q80 49 117 144q13 33 13 51q7 26 -10 43q-33 34 -115 15q-43 -10 -56 -18q-4 0 -6 -8t-4 -12q0 -21 -12 -51q-21 -54 -37.5 -106t-19 -59t-6.5 -17.5t-9.5 -38 t-21.5 -66.5q-31 -104 -20 -121q22 0 -10 -65q-16 -42 -24 -45q-2 -1 -11 -1t-20 10t-11 20.5t-5 20.5q0 25 5 40q0 25 10 45q0 23 17 70t19 53q5 15 5 24q15 45 30 105q5 5 5 15q10 36 25 76q26 78 29.5 98t-4.5 33q-7 13 0 20l10 15q0 8 116 41h41q65 -9 100 -46 q22 -20 46 -75z" />
<glyph unicode="&#xf0212;" horiz-adv-x="490" d="M480 582q-36 8 -43 7q0 -5 -15 -8q-34 -11 -78.5 -63t-87.5 -134q-41 -71 -69.5 -161t-26.5 -123q0 -68 59 -92q26 -7 108 58q20 10 17 25q-16 43 -8 59q2 5 7 -1l8 -5q10 2 14 -2l13 -23l31 37q38 44 39 55q7 7 13 17t8 12q12 12 14 33q4 16 3.5 20.5t-8.5 14.5 q-18 19 -6 41q13 20 25 59q28 84 12 137q-9 32 -29 37zM563 432q0 -2 -2.5 -8t-1.5 -9q-4 -6 -0.5 -45t-1 -58t-24.5 -55q-19 -41 -20 -50q-25 -43 -59 -87t-25 -50q1 -7 34.5 -25t44 -30t10.5 -33q4 -11 3.5 -16t-8.5 -5q-22 -11 -87 35q-31 31 -39.5 34t-12 1t-5 -7.5 t-13.5 -16.5t-26 -19q-52 -41 -71 -46t-54 12q-32 8 -73 52q-58 68 -12 228q23 79 57 136l30 55q6 18 30 58t45 64q30 45 88 87q26 12 51 14q72 7 114.5 -51.5t27.5 -144.5v-20z" />
<glyph unicode="&#xf0213;" horiz-adv-x="458" d="M456 618q5 5 123 10q17 8 53 3q40 0 45 -9q0 -11 5 -16t0 -15q-8 -9 -36 -9l-53 -3q-40 -8 -98 -9.5t-58 -9.5q-6 0 -20.5 -58.5t-25.5 -76.5q6 -8 0.5 -23t-8.5 -23q-6 -16 -6 -23q-8 -24 -13 -54q-5 -48 -13 -57t-8 -21.5t-7 -48t-11 -38.5q10 -2 -3 -27l-6 -34 q-34 -100 -39 -105t-23 4q-20 5 -24 14t4.5 27.5t36 127t28 111.5t2.5 15.5t5.5 32.5t5.5 37q9 19 17 56l37 151v16h-37l-96 1q-47 2 -63 9.5t-17 29.5q-4 17 16 20.5t102 1.5q19 1 39 1l69 -2l8 16q0 17 11 21q15 29 40 -6q14 -33 18 -37z" />
<glyph unicode="&#xf0214;" horiz-adv-x="482" d="M624.5 609.5q-0.5 -5.5 -2 -16t-3.5 -20.5q-7 -37 -12 -63q-19 -91 -87 -258v-6q-8 -22 -18 -22q-2 -7 -16 -25l-8 -24q0 -9 -19 -17q-4 0 -5.5 -8.5t-3.5 -10.5q-35 -55 -77.5 -99.5t-80.5 -59.5q-30 -14 -55 -8q-72 22 -92.5 93.5t4.5 230.5q10 63 38.5 153.5t53.5 140 t37.5 62t23.5 10.5q29 -8 35 -32t-18 -41q-10 -11 -31.5 -57.5t-28.5 -59.5q-67 -230 -67 -399q3 -4 7 -11.5t7 -11.5q7 -9 13 -11q34 -14 81 15q5 11 20 19q4 -7 8 4q-1 5 9 15q15 7 53 61t37.5 61.5t11 20t66.5 127.5q10 34 34.5 131t27.5 114t12 44q7 2 40 -14 q6 -6 6 -14t-0.5 -13.5z" />
<glyph unicode="&#xf0215;" horiz-adv-x="490" d="M214 472l-6 61q1 35 -10 58q-24 17 -3.5 29t52.5 -9q3 0 4.5 -4t2.5 -7q7 -12 12 -19q13 -17 2 -192q1 -9 1 -37.5t2.5 -56.5t-0.5 -38.5t0 -108.5q-2 -31 -1.5 -52.5t7.5 -16.5q21 55 31 74q34 66 32 73q5 16 18 26q4 6 9.5 16.5t14.5 22.5q5 9 53.5 98.5t64.5 109.5 q11 27 22 32q1 5 11 23t13 27q19 24 36 49q31 48 47 48q12 -3 29.5 -21.5t15 -23t-9.5 -15.5q-21 -30 -46 -55q-6 -7 -18.5 -29.5t-19.5 -31.5q-5 -11 -22.5 -36t-20 -30.5t-25.5 -35.5q2 -6 -8 -17q-20 -45 -35 -63q-1 -2 -10 -15.5t-12 -22.5q-13 -13 -12 -21 q-10 -17 -17 -39q-23 -35 -26 -42t-8.5 -13t-5.5 -9q-7 -6 -23 -43q-7 -9 -21 -37q-15 -30 -46 -87q-16 -41 -44 -9q-7 0 -14 9q-19 -5 -25.5 13t-2.5 61q9 66 7.5 127.5t0 73.5t2 18t0.5 59.5t2 67.5v61z" />
<glyph unicode="&#xf0216;" horiz-adv-x="720" d="M442 72l-2 -14q0 -16 6.5 -21t14.5 -4q23 14 46 40q35 39 104 133q10 21 15 33l22 32q18 16 60 120.5t46 141.5q1 2 6 47t14 58q13 0 23.5 -28.5t10.5 -58.5q0 -68 -22 -120q-2 -5 -8.5 -20t-10.5 -26q-8 0 -15 -17q-1 -4 -7 -16q0 -7 -7 -28.5t-15 -35.5l-89 -149 q-21 -25 -27 -41q-22 -36 -62.5 -75t-70.5 -58q-27 -21 -48 -21t-37 29t-16 65l10 71q-24 -52 -48 -83q-46 -50 -73 -68q-25 -14 -31 -15t-18 9q-33 9 -41 41q-13 31 -15 94t5 95.5t10 54.5t5 29q-4 26 60 190t92 188q13 13 28 4q6 -3 6 -10q2 -4 4.5 -11t6 -10.5t0.5 -13 t-6 -13.5q-15 -28 -32 -66q-54 -98 -90.5 -242.5t-31.5 -236.5q0 -21 20.5 -20.5t47.5 31.5l47 70q10 19 22 46q20 29 59.5 120t46.5 126q9 33 22 33q17 8 23 4t14 -24l12 -27l-22 -60q-49 -141 -64 -272z" />
<glyph unicode="&#xf0217;" horiz-adv-x="524" d="M561 612q11 0 21.5 -10.5t14.5 -28.5q0 -8 -6 -13.5t-25 -17.5q-54 -42 -122 -119l-57 -62q10 -27 14.5 -41.5t16 -40t36.5 -100.5q25 -58 25 -65q16 -41 31 -81q27 -61 27.5 -74t-22.5 -26h-15q2 3 -2 7q-12 10 -19 6q-3 0 -10 17q5 5 -5 26q0 9 -15 39l-5 22 q0 8 -10 28l-10 29q-39 95 -50.5 120t-11.5 34t-5 9q-5 10 -10 15l-5 20l-15 -20q-6 -3 -16.5 -17.5t-13.5 -17.5q-76 -111 -87 -116q10 0 -10 -20q-13 -18 -21 -36q-9 -26 -36 -65q-7 -16 -11.5 -20t-13.5 -4q-16 5 -24.5 23.5t-0.5 37.5q75 129 102 154q25 36 45 71 q5 5 17.5 20t17.5 20q25 34 27 40q10 12 10 23.5t-36.5 99.5t-50.5 107q-25 45 5 56q11 5 29 -3t22 -21q8 0 18.5 -26.5t24.5 -60.5q19 -47 43 -99q83 95 97 105l20 16q0 8 33 34t44 26z" />
<glyph unicode="&#xf0218;" horiz-adv-x="504" d="M493 386l-5 -15q0 -5 -11 -16q-9 -5 -9 -10t-4 -11l-18 -36q-32 -32 -50 -81q-13 -25 -32 -47q-42 -107 -43 -113q-2 -14 -14 -49q-27 -45 -27 -57q-10 -8 -20 -8q-24 1 -43 26q-5 5 -3.5 12.5t11.5 28.5l15 44q0 3 9.5 27t18.5 40t10.5 18.5t8.5 15.5t12 18l4 15 q0 10 27 48q24 50 23.5 56t-5.5 10t-45.5 92.5t-43.5 101t-4 14.5q-30 60 -36.5 101t3.5 53q11 12 28 14t23 -11l6 -28q0 -23 6 -29q2 -10 11 -31q-2 -24 18 -51q7 -12 7 -30q1 -7 11 -15q10 -22 18 -28l1 -13q11 -8 17 -26q13 -37 30 -68q1 0 45 73q27 42 80 117t65 87 q13 10 28.5 6.5t18.5 -21.5q7 -36 -23 -64q-5 -14 -38 -54q-26 -40 -32 -50q-12 -10 -26 -40q-9 -18 -23 -16z" />
<glyph unicode="&#xf0219;" horiz-adv-x="377" d="M368 336q-34 0 -56 -17q-62 -32 -102.5 -87.5t-37.5 -89.5q3 -29 49 -2q51 30 113 103q14 17 21 25q15 29 15 33q8 35 -2 35zM444 341q-5 0 -9 -37q-3 -19 -16 -38q-4 -13 -10.5 -21.5t-40 -74t-40 -82t-10.5 -25.5q-25 -65 -34 -100q-21 -47 -21 -55q-13 -63 -15 -89.5 t-10 -38t-23 -6.5q-25 7 -26 41q0 12 13 71q0 21 14 53q10 38 32.5 100.5t33.5 85.5q-57 -49 -92 -49q-19 -1 -43.5 14.5t-32.5 32.5q-22 53 32 119q22 38 51 59q40 40 72 51q27 19 123 32q27 6 58 -22q5 -8 3 -14.5t-9 -6.5z" />
<glyph unicode="&#xf021a;" horiz-adv-x="377" d="M400 339l-15 1q-54 -5 -101.5 -37t-84.5 -78t-39 -79q0 -15 13 -15q33 0 77 35q39 27 71 69l51 71q10 19 28 33zM420 343q21 0 23 -6q-3 -30 -8 -39q-1 -6 -24.5 -75.5t-27 -79.5t-19 -60t-24.5 -69q-31 -102 -55 -156q18 8 22.5 7t17.5 4.5t15 5t3 -5.5q3 -14 -5 -22 q-61 -61 -88 -61q-17 0 -24.5 24.5t14.5 85.5q4 6 22 53t29 82t15 48.5t33 98.5l-24 -26q-36 -35 -88 -58t-74 -15q-12 3 -28 20t-18 31q-13 25 21 89q40 63 82 102q9 4 34 29q43 37 103 42t73 -27v-22z" />
<glyph unicode="&#xf021b;" horiz-adv-x="351" d="M164 113l5 -15q0 -12 14 -19q35 -23 96 25q21 16 26.5 19.5t10 6.5t6.5 5q6 6 9 3q0 -10 10 0q10 14 20.5 13t10.5 -4q-2 -9 4 -15q0 -22 -49 -59q-5 1 -17.5 -11t-23.5 -12q-3 -2 -8 -4q-6 -2 -6 -6q-17 -17 -57.5 -17t-50.5 3.5t-23 15.5q-10 20 -20 30q-7 21 -2 64 t30 103q0 7 25.5 43.5t40.5 50.5q18 20 46.5 30t53.5 10t45 -27q28 -28 20 -65q-17 -73 -55 -31q-6 12 -1 28.5t1 31t-13 14.5q-36 0 -94 -84q-20 -30 -30 -54z" />
<glyph unicode="&#xf021c;" horiz-adv-x="410" d="M324 302q-4 11 -10 12q-34 6 -112 -106q-55 -79 -55 -111l5 -10q11 0 56 31.5t57 46.5l29 30q23 26 31.5 57.5t-1.5 49.5zM297 367q5 0 27 -11q14 -4 21 -9q27 -19 37 -84q10 -34 0 -44q-5 -6 -5.5 -7t1.5 -3q0 -5 -5 -14q-18 -53 -10 -84q8 -23 28.5 -26t43.5 18 q31 22 31 13q5 -5 9.5 -5t6.5 -4q4 -8 -6 -25q-15 -15 -15 -20q-5 -5 -15 -14q-18 -11 -45.5 -11t-42 10.5t-27.5 29.5t-17 34l-5 10l-29 -19q-9 -9 -24 -21.5t-19.5 -18t-10.5 -5.5h-10q0 -7 -19.5 -15.5t-34.5 -8.5q-18 -4 -39 11t-25 33q-7 33 21 95t71.5 116t79.5 68 q22 11 27 11z" />
<glyph unicode="&#xf021d;" horiz-adv-x="373" d="M324 47l-16 -4q-5 0 -31 -6.5t-33 -10.5q-26 -12 -76 6q-5 0 -16 9t-16 20q-36 50 15 176q11 23 36.5 60.5t34.5 42.5q16 5 37 16q49 24 101 -22q31 -27 24 -46q0 -2 -5.5 -7t-22.5 -22q-8 -10 -21.5 -2.5t-14.5 25.5q-2 7 -27 22q-17 0 -51 -49q-41 -42 -62 -119 q-4 -11 -1 -28.5t7 -21.5q8 -4 61 4t80 19q30 19 54 14q16 -6 12 -18.5t-36.5 -29.5t-32.5 -28z" />
<glyph unicode="&#xf021e;" horiz-adv-x="204" d="M259 561q13 1 24.5 -8t13.5 -27q3 -33 -35 -54q-27 -2 -42 10q-24 21 -8 47t47 32zM172 65q-4 -8 -38 -89q-6 -26 -34 -76q-8 -18 -31 -47t-36 -39q-23 -21 -58 -18t-56 30q-9 20 3 29.5t26 2t37.5 -3.5t35.5 20q15 17 33.5 58t32.5 72.5t17 37.5q13 37 13 41q6 8 16 45 q8 6 3 11q28 101 34.5 122t9.5 38t7 23q1 12 4.5 26.5t3.5 15.5q4 3 14 -1t17 -11q10 -14 10 -24t-11 -72q-5 -41 -40 -143q-12 -41 -13 -48z" />
<glyph unicode="&#xf021f;" horiz-adv-x="517" d="M212 214l-2 -70q4 -22 5.5 -26t3.5 -3t5 2q10 4 58 86q37 56 47 69q4 30 11 70q30 31 43 5q18 -8 13 -32l-15 -54q-6 -22 -6.5 -75.5t3 -68t7.5 -16.5q8 -4 30 13q22 23 50.5 63.5t28.5 48.5q0 20 14 32l16 40q-2 5 5.5 13.5t8.5 10.5q2 12 11.5 15t19 -4t10 -22.5 t-16.5 -56t-38 -71.5q-17 -37 -39.5 -66t-36.5 -41q-36 -46 -58 -47q-14 -2 -46 32q-18 27 -22 112q-79 -120 -128 -136q-17 -6 -27.5 14.5t-9.5 51.5q-5 45 -6 101.5t5 75.5l-1 12q-4 8 -1 39.5t7 38.5q2 6 14 9q15 -3 16 -12q9 -9 13 -8q6 -5 6 -55l-1 -35q0 -20 3 -55z " />
<glyph unicode="&#xf0220;" horiz-adv-x="341" d="M206 293l-13 -94q-22 -87 -10 -91q43 35 123 144q28 51 37 73t18 23q6 2 19 -4t13.5 -8t9.5 -3.5t9 -4t-14 -37.5t-12.5 -38t-26.5 -68q-25 -80 -54 -130q-11 -20 -112 -256q-2 -19 -9 -28l-14 -1q-1 -2 -8 4q-23 18 -21 29q-8 24 26 95q7 11 19 40t19 42q71 129 91 179 q-17 -19 -49.5 -56.5t-47.5 -48.5t-26 -10q-40 9 -47 33q-9 43 10 159q11 52 10 68.5t-13 27.5q-27 24 0 38q21 6 30 4t16 -10.5t13 -18t8 -13.5q6 -20 6 -39z" />
<glyph unicode="&#xf0221;" d="M229 376q7 0 15.5 -9t12.5 -21q0 -32 -28 -69q-25 -38 -34 -82q-1 -1 -8 -18.5t-10 -23.5l-5 -22l67 69q70 70 102 81.5t49 -24.5q11 -20 13 -29.5t0 -54.5v-62q3 1 43 15q23 10 51 12q-3 -27 -30 -55.5t-54 -28.5q-14 0 -29.5 13t-21.5 28.5t-6 72.5v37q0 15 -10 9 q-17 -10 -93.5 -90t-104.5 -80q-8 0 -19 11t-12.5 19t-1.5 37q0 51 57 175l33 70q3 7 14 20h10z" />
<glyph unicode="&#xf0222;" horiz-adv-x="353" d="M315 248q-13 0 -38 20l-16 20l-17 -17q-24 -24 -49 -78.5t-27 -76.5t3.5 -27.5t14 -6t32.5 11.5q13 13 21 16q15 0 56 53q44 49 37 75q0 3 -7 5.5t-10 4.5zM427 310q0 -11 10 -11q11 -1 -30 -31q-25 -16 -26 -19.5t1 -10.5q21 -48 -43.5 -120t-133.5 -80q-21 -4 -26.5 -3 t-16.5 12q-22 11 -34.5 31.5t-10.5 36.5q7 72 51.5 153.5t88.5 96.5q48 19 63.5 -11.5t-6.5 -38.5q-11 0 -11 -9q7 -3 41 2t42 13q8 4 24.5 0t16.5 -11z" />
<glyph unicode="&#xf0223;" horiz-adv-x="353" d="M280 125q60 89 49 164q-4 27 -12 29q-29 12 -64 -24q-42 -48 -76 -164q-15 -54 12.5 -69t74.5 42q8 10 16 22zM305 386q8 0 24 -12q24 -7 36.5 -19.5t19.5 -38.5q19 -76 -29 -170q-18 -36 -35 -55.5t-50.5 -48.5t-70.5 -36q-17 -2 -41 13q-44 35 -42 69q1 6 1 11t-2 12 q-6 5 -3.5 8t2.5 4q8 2 2 11q-3 8 3.5 36.5t16.5 50.5q27 64 59 98q38 43 79 58q22 9 30 9z" />
<glyph unicode="&#xf0224;" horiz-adv-x="341" d="M343 391q19 -7 23 -7q19 -3 33.5 -23t12.5 -39t-11.5 -33.5t-22.5 -16.5q6 0 -12 9l-3 -2q0 4 -3.5 10.5t-1.5 23t0.5 18.5t-14.5 4t-39.5 -6.5t-52.5 -26.5q-52 -34 -69 -72q-12 -17 -12 -25q0 -19 62 -46.5t73 -56.5q4 -12 -1 -17l2 -2q11 -18 -9.5 -36.5t-56.5 -25.5 q-24 -7 -49 -7q-50 0 -73 36q-13 17 -5.5 29.5t18.5 -1.5q14 -8 41 -8t54 10q32 14 18 22q-38 10 -76.5 38.5t-42.5 51.5q-16 61 38 121q30 19 39 21v-1q26 27 105 54q30 4 35 4z" />
<glyph unicode="&#xf0225;" horiz-adv-x="325" d="M316 319q-15 17 -45 -5q-10 -3 -29.5 -22t-33.5 -37.5t-9 -21.5q-1 -2 2.5 -3t9 -1.5t10.5 -1t9.5 0t20 3t19.5 4t14 7.5q12 7 35 40q7 27 -3 37zM96 265l17 2q14 0 14 -6q7 -13 22 7q5 7 10 17q14 22 41.5 46.5t45.5 34.5q31 14 57 11.5t53 -31.5q17 -13 18.5 -40 t-9.5 -47q-4 -15 -31.5 -38t-50.5 -32q-21 -5 -53 -6.5t-42 3.5q-7 4 -11 -12.5t-6.5 -46t1.5 -36t8 -9.5q35 -36 74 -4q12 11 26.5 26t21.5 21q8 14 34 7q10 -9 9.5 -17t-8 -23t-27 -32.5t-34.5 -27.5q-53 -28 -106 -8q-39 16 -50.5 44.5t-6.5 73.5t4 56t-6.5 16t-10.5 10 q-11 11 -12 17.5t1.5 15t6.5 8.5z" />
<glyph unicode="&#xf0226;" horiz-adv-x="360" d="M401 286q-10 0 -22.5 -5.5t-18 -9t-14 -10t-10.5 -7.5q-54 -35 -84 -66q-54 -58 -62 -82q-32 -77 -40 -83q-6 -13 -30 2q-15 0 -19 16q-4 12 11 60q17 74 25 106q5 11 13 37t15 40q12 45 38 89q7 13 17 13q13 13 31 -3q12 -12 9 -30t-24 -50q-6 -15 -15 -36 q-18 -42 -21 -60q13 17 44 48.5t74 58.5q42 29 77 24q27 2 32 -53q-16 1 -26 1z" />
<glyph unicode="&#xf0227;" horiz-adv-x="393" d="M338 276q0 6 -19 8q-58 8 -119 -65q-25 -30 -42 -66q-35 -71 -15 -80q28 0 92 58q27 26 65 81t38 64zM369 136q-4 -24 -4 -75t-9 -51q-17 0 -28 14t-15 26t-1 35l4 46q-3 0 -4 0.5t-6.5 -3t-8.5 -6.5t-10.5 -9t-13.5 -11q-88 -99 -148 -91q-49 6 -40 90q8 67 49 130 q17 30 49.5 58t64.5 39q49 19 90 6q25 -13 31 4q3 5 10 24.5t12 28.5q26 78 46 123.5t31 71.5q16 32 27.5 38t25.5 -9q10 -16 8 -30t-18 -52q-24 -39 -73 -161q-1 -5 -9.5 -33.5t-14 -56.5t-11.5 -28q-18 -19 -34 -118z" />
<glyph unicode="&#xf0228;" horiz-adv-x="393" d="M492 638q5 0 15 -7.5t13 -18.5q0 -33 -41.5 -131t-50.5 -124.5t-16.5 -45t-12 -29.5t-8 -26.5t-16 -47.5t-19 -50.5t-9 -25.5t-6.5 -19.5t-5.5 -17.5t-3.5 -14.5t-2 -14.5t-0.5 -13.5t0.5 -15.5t1.5 -17.5t-8.5 -16.5q-11 -4 -16 -2.5t-21 14.5q-10 16 -10 56 q3 28 23 99.5t29 92.5q6 24 2.5 29.5t-23.5 7.5q-37 4 -68.5 -23t-70 -87.5t-27.5 -96.5q13 -20 62 6q6 3 38 17q11 0 11 -12.5t10 -16.5q6 -6 -16.5 -22t-42.5 -28q-29 -8 -48 -7t-36 13q-56 34 -16 150q26 62 91 129q16 16 66 31t74 -2q18 -4 23 1t50.5 122t48.5 123.5 t7 17t6 16t4 7.5h19z" />
<glyph unicode="&#xf0229;" horiz-adv-x="560" d="M565 58q-19 0 -36.5 10.5t-17.5 33.5v62q0 47 -7 53q-15 8 -51.5 -33t-63.5 -85.5t-31 -47.5t-15 3q-38 12 -29 48q21 68 36 142q-8 13 -33 -4t-64 -81q-49 -75 -68 -91q-14 -22 -19 -24t-19 5q-29 17 -29 53.5t29 138.5q24 44 24 58q11 66 19 72q7 8 19.5 6t18.5 -15 q20 -21 0 -77q-22 -48 -37 -109q13 15 33.5 43t55 66t73.5 38q46 -8 53 -77l-5 -52q23 33 61 67q42 32 69 4q46 -26 38 -115q-4 -34 5 -63q7 -5 2.5 -17t-11.5 -12z" />
<glyph unicode="&#xf022a;" horiz-adv-x="355" d="M333 292q5 15 3 21.5t-13 7.5q-34 7 -96 -32q-8 -12 -30 -26q-2 -7 -8 -10q-16 -13 -29 -44t-6 -37q51 -19 118 34q47 35 61 86zM387 217l-19 -4q-9 0 -12 -18t-7.5 -29t-4.5 -13t-6 -13t-6 -25q-12 -33 -12 -39q-4 -21 -8 -30q-7 -19 -10 -52q-37 -158 -79 -185 q-30 -12 -63.5 -1.5t-60.5 36.5q-11 10 -21 35.5t-4.5 29t18.5 0t13 -8.5q29 -25 44 -28q32 -11 49 1q29 26 47 102q26 117 35 145q8 36 1 34q-3 -1 -7 -6q-9 -3 -34 -15.5t-35 -14.5l-22 -1q-8 -5 -28.5 1.5t-36.5 19.5q-14 18 -16.5 25t-3 27t16 50.5t40.5 57.5 q31 31 81 58t79 26q42 -6 58 -27q29 -39 29 -92q0 -31 -15 -46z" />
<glyph unicode="&#xf022b;" horiz-adv-x="365" d="M295 602q2 6 13.5 4t16.5 -9q5 1 11.5 -13t6 -23.5t-6 -17.5t-11.5 -18.5t-11 -17.5q-16 -49 -23 -61q-11 -22 -14.5 -32t-17 -39.5t-27 -68.5t-22.5 -59q2 2 6 5.5t5 5t26 24.5q28 17 72.5 51.5t52.5 43t21.5 4t17.5 -11t4 -24.5q5 -20 -43 -51q-26 -17 -45 -34 q-29 -17 -52.5 -38t-30.5 -26q45 -67 47.5 -70.5t10.5 -15.5t11 -15.5t10 -11.5t10.5 -11t10.5 -8q10 -9 29 -19q9 -7 8 -18q-4 -11 -8.5 -13.5t-26.5 -7.5q-19 2 -48 23q-26 15 -108 131q-5 1 -8 10q-18 -43 -18 -52q-3 -10 -10 -39.5t-14 -41.5q-3 -33 -33 -15 q-20 13 -19 30q3 28 16 64q8 48 23 70q48 137 51 150q8 19 26.5 61t25.5 60t20.5 58.5t21.5 51.5t23 35z" />
<glyph unicode="&#xf022c;" horiz-adv-x="365" d="M366 322q-2 6 -57 -23q-31 -18 -64 -45t-47 -50q-4 -12 11 -24t29 -5q17 12 59.5 47.5t52.5 48.5q8 8 14 25t2 26zM304 488q0 -14 -36 -85.5t-40 -91.5q2 -1 19 10q24 19 55 37q104 61 122 -28q0 -16 -15.5 -51.5t-28.5 -46.5l-15 -9q0 -13 -15 -20q-14 -14 -14 -19v-5 l-30 -20q-11 -11 -18.5 -13t-9.5 -3.5t-6 -2.5q-9 -4 -9 -7q0 -7 32.5 -43.5t44.5 -44.5q13 -6 17.5 -22t0.5 -25q-3 -4 -21.5 -3t-26 5t-13 9t-10.5 9l-44 48q-5 10 -39 44q-23 31 -34 31q-23 -80 -32 -110q-13 -24 -25 -24t-20 10.5t-8 28.5q-8 29 53 181q2 9 6 20t8 22.5 t11.5 35t67.5 164.5q17 35 53.5 103t47 80t22 12t21.5 -9.5t7.5 -25t-24.5 -51.5q-9 -21 -20 -37.5t-19 -32.5q-7 -20 -15 -20z" />
<glyph unicode="&#xf022e;" horiz-adv-x="564" d="M707 643q0 -30 -28 -109q-42 -106 -49.5 -132t-39.5 -98q-3 -10 10 -37q12 -17 8 -27t-20 -9t-21.5 -5.5t-8.5 -28.5q-21 -47 -42 -134t-20 -115q-7 -21 -10.5 -24t-21 2t-28.5 36q37 159 64 235q6 37 6 44t-5 10q-15 9 -177 35q-8 -1 -26.5 2.5t-34 3.5t-19.5 7 q-2 11 -9.5 -9.5t-24 -73t-24.5 -83t-11 -46t-6 -34t-5.5 -28.5t-9.5 -39q-15 -56 -22 -56q-4 -2 -5 -2t-8.5 4t-11.5 6t-7 5.5t-5.5 7t-3.5 8.5t-1.5 9t0.5 12t2 14.5t4 19t5.5 23t6.5 28.5t8 33q20 108 30 116q37 138 94 274q55 130 64 149q8 7 16 19.5t10 20.5 q7 14 11.5 17t18 0.5t27.5 -19.5t7 -32q-24 -24 -55 -102q-2 -4 -16 -25q-19 -27 -24 -46.5t-28 -63.5t-19 -52q2 -4 51 -9t55.5 -5t22 -2t41 -6t41.5 -6q68 -22 72 -12q6 15 18 43q12 49 33 116q27 46 44 137q9 39 31 74q11 -5 20 -7q26 -4 26 -34z" />
<glyph unicode="&#xf022f;" horiz-adv-x="482" d="M420 674q21 8 49 4q56 -9 91 -58q14 -28 20 -70q6 -50 -8 -80q-2 -5 -2.5 -7t-2.5 -5t-3 -4t-4 -2q-4 -3 -12 -3q-12 -5 -49 24q1 18 11 46t2.5 62.5t-30.5 41.5q-23 1 -60 -25t-71 -69q-102 -125 -144 -232q-43 -122 -52 -199q5 -30 -1 -30q2 -12 11.5 -30t19 -27.5 t30.5 -6.5q17 -3 57 6.5t50 17.5q18 7 30 7q3 2 24 12t31 17q63 28 82 22q-4 -5 -9 -20q-7 -10 -32 -31.5t-29 -22.5q-15 -2 -41 -19q-65 -40 -116 -41q-29 -9 -69 5.5t-71 41.5q-9 15 -23 50.5t-11 40.5q7 9 4 23q-7 21 18 98.5t66 168t120 183t124 111.5z" />
<glyph unicode="&#xf0230;" horiz-adv-x="578" d="M454 591q-6 9 -39 16.5t-51 7.5q-4 -5 -5.5 -19.5t-16.5 -50t-27 -44.5q-70 -182 -87 -234q-9 -18 -23 -32q-35 -151 -61 -225l25 -2q27 -2 77 18l24 4q8 0 78 36t83 42q6 6 28.5 27t28.5 29q9 5 21 19.5t15 15.5q3 0 16.5 23.5t28.5 47.5t19 37t9.5 63.5t-3 81 t-43.5 72.5q-29 38 -56 53q-14 2 -23 6q-17 8 -18 8zM189 601q-11 -3 -10 9q1 20 20 37q34 21 105 22t127 -12.5t112 -48.5q68 -46 99 -130q30 -70 -4 -183q-23 -69 -78.5 -140.5t-110.5 -100.5q-41 -19 -51 -22q-7 -9 -68.5 -35.5t-69.5 -30.5q-19 1 -29 -9q-35 -9 -68 -7 l-43 -2l-11 22q-17 15 -18.5 22.5t6.5 38.5q4 26 19 86.5t25 88.5q2 23 16 47l11 34l32 85q13 26 50.5 120.5t45.5 109.5q2 9 -2.5 11t-33.5 4q-23 -2 -71 -16z" />
<glyph unicode="&#xf0231;" horiz-adv-x="539" d="M441.5 568q-4.5 0 -27.5 -10q-55 -21 -96 -66q-74 -81 -128 -248q-22 -71 -27 -106q1 -99 62 -122q21 -8 32.5 -7.5t56.5 12.5t69 28q24 19 26 28.5t-17 33.5q-12 18 -15 34q-6 15 -5 18.5t13 9.5q10 9 13.5 8.5t13.5 -12.5q20 -16 26 -33q4 -20 14 -20q7 3 32.5 46.5 t35.5 74.5q40 100 53 194q8 51 2 99t-21 63q-11 14 -17.5 13t-18.5 -17q-15 -15 -31 -18q-4 -3 -15 -9t-13 -10q-10 0 -12 8q-1 8 -5.5 8zM487 644q23 16 42.5 20.5t26.5 3t32.5 -20.5t37.5 -45q27 -62 11 -145l-5 -43q6 -9 -12 -70.5t-35 -107t-30.5 -74t-47.5 -79.5 q-27 -33 -16 -40q1 -3 4.5 -10t4.5 -11q14 -27 55 -49.5t58 -9.5q13 2 26.5 -8.5t12.5 -24.5q-2 -41 -98 -13q-66 28 -99 66q-7 15 -20 23q-9 -8 -20 -10q-70 -52 -149 -47t-129 67q-11 7 -13.5 18.5t-8.5 18.5q-9 2 -11 62t7 77q2 3 5 14q69 242 151 319q38 44 70 62 t67.5 23.5t48 10t17 8t17.5 15.5z" />
<glyph unicode="&#xf0232;" horiz-adv-x="482" d="M321 715h1q19 -1 28.5 -20.5t-1.5 -32.5q-12 -32 -16.5 -40t-8.5 -18t-7 -14q-7 -19 -10.5 -25t-5.5 -11t-3.5 -8.5t-1.5 -5.5q-9 -15 -8 -21q-8 -11 -12 -20t-15 -29q-2 -30 -9 -48.5t-11 -39.5q-13 -25 -25.5 -82t-15.5 -98q-14 -85 0 -139q7 -30 17 -32q54 -13 98 35 q39 41 64 77q52 50 66 92q3 11 15 26v-1l9 17q18 28 49.5 125t36.5 141q4 20 13 31t17 9q4 -4 17 -10t15 -8q4 -10 -13.5 -87.5t-29.5 -100.5l-14 -43q-7 -11 -12 -33q-15 -48 -74 -139q-15 -10 -36 -46q-51 -53 -68 -73l-57 -53q-40 -25 -71.5 -24.5t-62.5 19.5 q-33 32 -42 76q-3 18 -2 79.5t16 116.5q28 127 53 203q0 14 5.5 24t6.5 19q0 8 22 69l16 33q42 93 67 110z" />
<glyph unicode="&#xf0233;" horiz-adv-x="490" d="M588 586q30 30 42 34q21 7 27 -19q5 -6 -8.5 -29.5t-27.5 -38.5t-14 -32q-10 -3 -26.5 -24.5t-17 -27.5t-17.5 -41q-41 -82 -128.5 -225t-108.5 -170t-34 -25q-22 6 -39.5 26t-7.5 30q-24 136 -21 302q1 83 7.5 188.5t12.5 109.5q7 9 18.5 7t21.5 -13q16 -25 20 -47.5 t-4 -65.5t-15 -162.5t-3 -146.5q5 -94 18 -125q3 -6 5 -4q48 60 111.5 175.5t97 179t35.5 65.5q3 2 5 5q5 11 11 20q0 3 6 10q26 30 34 44z" />
<glyph unicode="&#xf0234;" horiz-adv-x="524" d="M573 588l52 28q9 0 21.5 -17.5t11.5 -29.5q-8 -13 -23 -17q-33 -26 -52 -31q-9 -4 -82 -67.5t-109 -100.5l-23 -21l20 -45q49 -118 95 -196.5t62 -61.5q30 36 40 18q1 -3 3 -18q4 -48 -15 -70q-15 -11 -34 -1q-8 4 -15 4q-27 9 -52 48q-42 51 -65.5 89t-41.5 92l-36 80 q-15 11 -53 -40q-28 -34 -46 -43q0 -11 -14.5 -25.5t-21.5 -18.5q0 -8 -53 -68t-63 -59q-14 -13 -30 14q-16 18 -16.5 23.5t12.5 18.5q10 8 29 40q14 6 75 76q31 31 55 66q8 0 17.5 12.5t13.5 16.5q15 26 46 51l21 20q-51 168 -90 220q-10 22 -8.5 33.5t14.5 29.5 q26 11 52.5 -28t46.5 -107q6 -28 24 -64l17 -41l79 83q39 34 84 67.5t52 39.5z" />
<glyph unicode="&#xf0235;" horiz-adv-x="504" d="M372 346q9 0 26 36q27 40 99.5 140t79.5 107q8 4 11.5 3.5t19.5 -10.5t16 -21.5t-20 -34.5q-60 -72 -129.5 -178.5t-65.5 -121.5q8 -8 4.5 -17.5t-15.5 -9.5q-4 0 -18.5 -17.5t-14.5 -26t-16 -46.5q-16 -33 -36 -91.5t-20 -74.5t-7 -20.5t-24 -0.5q-12 0 -23 13 q-4 3 11 84q76 198 82.5 208.5t5 18.5t-12.5 27q-16 37 -16.5 39.5t-5.5 14t-9 21.5q-15 31 -18 60q-49 151 -51 154q-8 25 1 36q16 10 28.5 6.5t19 -10.5t12.5 -16.5t16 -39t23 -73t15 -48.5q10 -63 19.5 -87t12.5 -24z" />
<glyph unicode="&#xf0236;" horiz-adv-x="548" d="M179 247l7 32q8 23 32 73t40 70q0 2 7.5 13.5t10.5 21.5q16 16 43 62q35 29 29 52q2 23 11.5 31t47.5 17q53 20 151 23l34 5q4 4 36.5 -9.5t30.5 -18.5q-1 -9 -28 -18t-61 -13q-91 -10 -127.5 -31.5t-83.5 -94.5t-34 -82q3 -2 14 -2l39 5q43 12 72 16.5t47.5 9t38.5 6 t30 -7.5t-1.5 -22t-49.5 -28.5t-56 -15.5q-11 -3 -20 -3t-86 -10q-7 -2 -19.5 -5t-16.5 -4.5t-13 -4t-12 -4t-8.5 -4t-7.5 -4.5t-6 -5.5t-6 -6.5q-26 -47 -38.5 -136t1.5 -107t71.5 -14.5t94.5 26.5q19 15 42 23q13 8 18 7t25 -14q9 -12 10.5 -20t-8.5 -17q-13 -11 -69 -36 q-92 -33 -142 -29q-31 7 -61.5 24.5t-34.5 31.5q0 12 -13 12v8q0 13 -4 16q-10 26 -2 80.5t25 101.5z" />
<glyph unicode="&#xf0237;" horiz-adv-x="502" d="M440 299l1 44q6 62 11 148.5t1 94.5q0 9 -7 14.5t-13 5.5q-25 0 -55 -68q-7 -19 -41 -101t-37 -91q-3 -3 -11.5 -21.5t-16.5 -32t-9 -26t4.5 -18t15.5 -2.5q19 0 37 6q46 -2 69 5q33 5 41 9.5t9 11t1 21.5zM196 254l19 43q0 16 16.5 50t16.5 39t13 30q-5 0 3 10t10 13 q0 7 5 19.5t8 24.5l39 88q7 11 16.5 37t9.5 30q13 0 13 19q2 12 26 11q56 13 90.5 -16.5t38.5 -91.5q-2 -145 -25 -323q-13 -83 -15 -150q-14 -171 -28 -178q5 -11 -7.5 -12t-30.5 13q-14 0 -14.5 29t8.5 82t11 129l6 44h-25q-19 -6 -77 -4.5t-77.5 -4t-23.5 -19.5 q0 -16 -33 -80q-38 -92 -58 -119t-47 -4q-21 0 14 68l26 43q0 17 33 80q2 8 5 16q8 19 8 22q6 12 19 37q0 3 3.5 10.5t3.5 14.5z" />
<glyph unicode="&#xf0238;" horiz-adv-x="502" d="M272 271q112 6 134 6h22q11 -1 15 8.5t4 26.5q-8 90 -4 199l-4 50q-4 5 -36 -34.5t-39 -50.5t-12 -22q-23 -42 -39.5 -68.5t-30.5 -55.5q-22 -47 -10 -59zM508.5 68q1.5 -88 -4.5 -116t-29 -31q-8 0 -19.5 12.5t-11.5 47.5t-1 48.5t-2 40.5q-2 55 3 63q-3 5 2 56l-4 27 h-55q-25 -4 -146 3q-36 -59 -45 -80q-22 -57 -43 -88q-28 -54 -38 -54q-20 0 -32 9q-36 16 5 76l13 21q0 6 26 56t35 54q18 20 -3 38q-13 6 -3.5 15t20.5 9q4 2 8.5 4t5.5 3q5 3 5 7t24 50.5t37 62.5q3 8 27 56q1 1 33 55q15 15 29 34l51 75q20 22 30.5 26.5t31.5 -3.5 q43 -19 48 -96q10 -80 5 -94q0 -77 2 -93q-5 -19 -3.5 -46.5t-0.5 -93.5t-0.5 -154z" />
<glyph unicode="&#xf0239;" horiz-adv-x="512" d="M524 548q2 25 -9.5 38.5t-31.5 10.5q-67 -10 -106 -32q-29 -18 -25 -27l7 -3q17 0 -14 -52q-16 -28 -64.5 -123t-46.5 -98.5t28.5 6.5t59 27t47.5 31q21 14 45 35.5t27 32.5t18 28q27 27 27 39q7 16 17 33q10 13 21 54zM94 15q-5 0 -7 8q-3 14 7 41.5l30 82.5 q48 131 51 133q2 15 7 21t5 7q1 1 6.5 16t11.5 29q17 40 27 50q0 8 28 52q5 10 14.5 34.5t11.5 29.5q12 15 12.5 19.5t-7.5 13t-8 25.5q0 4 22 19q35 23 107 48q29 10 61 8q43 15 83 -27q18 -19 21 -35q6 -38 -3 -56q-2 -21 -16 -62t-22 -49q-42 -67 -58 -84t-45 -51 q20 -6 31 -13q50 -32 68 -84q13 -18 8 -51q-9 -60 -68 -116q-11 -11 -13 -11q-8 3 -37 -11q-20 -24 -30 -20q-17 -6 -38 -18q-165 -45 -215 5q-16 14 -5 23q16 10 80 15q72 -3 147.5 28.5t100.5 70.5q21 36 19.5 60t-23.5 47q-22 18 -58 24q-27 0 -60.5 -18.5t-44.5 -19.5 q-11 -14 -43 -18.5t-39 3.5q-7 0 -13 -10t-13 -28q-29 -70 -31 -91q-3 -8 -6.5 -16t-5 -13t-4 -10.5t-3.5 -8.5t-3 -6q-6 -9 -11 -9q-9 0 -14 6.5t-15 16.5z" />
<glyph unicode="&#xf023a;" horiz-adv-x="548" d="M351 604q-4 8 23 19q51 20 95 23q9 6 49 7.5t75 -1.5q23 0 61 -18q8 -8 12 -30q0 -7 -59 -7t-101 -6t-45 -6l-35 -6q-4 0 -35 -51.5t-32 -58.5q0 -12 -25 -46.5t-9 -41.5q90 14 141 14q25 7 44 -4q11 -2 17 -7q13 -12 -3 -19q-13 -13 -116.5 -37t-116.5 -21q-4 10 -6 5.5 t-8 -22t-17 -42.5q-30 -67 -45 -150q-10 -26 -4 -43.5t36 -31.5q55 -10 130 9q14 8 33.5 17.5t21.5 10.5l30 5q8 11 20 11q3 0 17 -16t13 -20q0 -9 -16.5 -17.5t-45 -19.5t-45.5 -18.5t-29 -12.5q-26 -10 -69 -10t-72.5 5.5t-52.5 23.5q-31 23 -35.5 60.5t14.5 108.5 q11 63 23 63q13 69 19.5 75t14.5 30q0 11 6 25q15 25 15 33q15 22 19 33q64 113 72 149q10 24 21 36z" />
<glyph unicode="&#xf023b;" horiz-adv-x="458" d="M396 635l49 5h62q29 0 76 11t72.5 5.5t34.5 -29.5q2 -11 -5 -18t-27 -12q-33 -8 -112 -14t-83 -9.5t-4 -7.5t-2 -7q-4 -6 -11 -13q-8 -3 -28.5 -57t-20.5 -65q-7 -12 -7 -17q-7 -18 -22 -46q-17 -47 -32 -83t-27 -75.5t-22 -65.5q-2 -3 -5.5 -6.5t-5 -6t-1.5 -7.5 t-21.5 -72.5t-24.5 -68.5q-8 0 -18 -1t-17.5 8t-11.5 23q-8 32 22 111q59 176 76 201q5 12 5 20t2 13t12.5 25t10.5 31q16 65 36 96l25 63q-15 5 -86.5 0t-88.5 -9t-23.5 -2t-11.5 19.5t9 28.5q25 14 57.5 15.5t47.5 2.5t29 2t23.5 2.5t12.5 1.5t22.5 4t33.5 4z" />
<glyph unicode="&#xf023c;" horiz-adv-x="466" d="M183 303q-2 1 -0.5 11.5t30.5 79.5t33 77q13 30 16 39q9 34 20 52q2 10 11 26.5t11 21.5q5 17 22 22t33 -3q8 -11 16.5 -11t28.5 11q37 0 84 10q14 0 55 5q4 5 28.5 1t33.5 -12q4 -10 5.5 -25.5t-2.5 -17.5h-52q-27 0 -80 -10q-99 -12 -110.5 -18t-20.5 -27 q-37 -86 -46 -116l-12 -43h16q40 2 82.5 8t54.5 7q90 15 88 -31q0 -15 -51 -22q-18 -1 -66 -5q-120 -10 -135 -9.5t-18 -0.5q-1 -1 -10 -37q-10 -13 -14.5 -32t-8 -28.5t-6 -15t-2.5 -8.5q-3 -4 -11 -29q-52 -162 -59.5 -172t-33.5 -2q-27 25 -19 48q13 11 13 27q6 24 10 30 q20 66 20 70l8 34q6 6 19 39q1 22 13 31q6 10 6 25z" />
<glyph unicode="&#xf023d;" horiz-adv-x="498" d="M385 324q0 8 8 27q0 11 29 18.5t71.5 6.5t57 -9.5t14.5 -35.5q8 -19 5 -34t-32 -85q-48 -135 -71 -190.5t-36 -58.5q-8 -8 -19 5.5t-12 21.5q-5 0 -5 14v17q8 14 17 14q1 17 9 33l9 28q-6 1 -20.5 -6.5t-26.5 -19.5q-10 -6 -29 -21.5t-23 -17.5q-13 -3 -35 -19 q-75 -46 -128 -44q-18 2 -50 24q-2 3 -8 10q-10 12 -10 21q-12 17 -11 65.5t11.5 99.5t32.5 95.5t91 152.5q8 22 32.5 51t38.5 40q7 0 32 26.5t47.5 42.5t38.5 24t42.5 20.5t38.5 18.5q71 0 99 -10q17 -14 23.5 -36.5t0.5 -29.5q-10 -7 -28 -1q-68 34 -170 -35 q-27 -22 -77.5 -74t-77.5 -85q-69 -105 -99 -202q-11 -31 -10.5 -79t4.5 -56q27 -42 121 16q22 14 79 57t67 57q44 41 51.5 58.5t11.5 22.5l5 34q1 5 -3 7t-16 5q-18 0 -54 5.5t-36 10.5z" />
<glyph unicode="&#xf023e;" horiz-adv-x="400" d="M234 10l-9 -24q-2 -1 -83 1q-81 9 -83.5 9.5t-13.5 9.5q-14 4 -22.5 18.5t-4.5 25.5q1 3 13.5 6.5t23.5 1.5q13 3 43.5 5t38.5 4.5t17.5 4.5t13 3t6 2.5t5 6.5t3.5 10q8 20 35 90t33 98q-1 7 2.5 20.5t3.5 16.5q2 2 5 11q12 36 34 90t22 65q26 54 26 57q-20 0 -43 1 q-32 -2 -66 6t-40 18q-3 9 -4 10t5 5t9 8q2 8 15 10t51 4q90 -1 91 5q12 0 22 2q16 0 75 18q53 12 84 12q21 3 30.5 -6.5t8.5 -32.5q0 -6 -7 -8t-43 -6q-59 -10 -102 -24q-15 0 -24 -30q-6 -4 -6 -7l-13 -28q0 -4 -16 -48.5t-18 -67.5q-32 -78 -33 -99q-3 -4 -23.5 -66.5 t-24.5 -66t-7 -21.5q-13 -43 -8 -55q58 0 74 4q56 3 74 0.5t27 -2t15 -4t12 -17.5t5 -16.5t-10 -7.5q-12 -9 -34 -6q-122 1 -134 0q-6 1 -17.5 -1t-15.5 -3q-15 -1 -18 -12z" />
<glyph unicode="&#xf023f;" horiz-adv-x="306" d="M310.5 600q-22.5 0 -32 -1t-16.5 -1q-23 2 -39 2.5t-28.5 13t0.5 30.5q4 18 80 8q52 -3 102 11q29 6 41 7q22 0 36 -27q8 -13 7.5 -17t-10 -16.5t-78.5 -167.5q-6 -27 -17 -55q-12 -50 -19 -67.5t-32.5 -80.5t-50.5 -132q-14 -28 -19.5 -49t-12.5 -42q-14 -42 -23 -61 q0 -8 -27 -50.5t-35 -58.5q-41 -47 -76.5 -58t-78.5 14q-21 12 -31.5 25t-16.5 38q-8 57 34 62q1 -10 8 -30q2 -54 41 -52q21 2 27 8q28 18 59.5 64t52.5 107q7 16 32.5 77t43.5 104t18 45q-2 6 22.5 83.5t38.5 102.5t13.5 36t37.5 110q5 15 0 19t-17 1.5t-34.5 -2.5z" />
<glyph unicode="&#xf0240;" horiz-adv-x="494" d="M634 581q0 -3 -7 -8q-10 -21 -37 -35t-38 -26t-39 -29.5t-41 -32.5q-71 -66 -88.5 -80.5t-67.5 -66.5l20 -43q44 -62 90 -108t75 -53q15 -5 25 -23q8 -4 8.5 -13t-8.5 -17.5t-25 -9.5q-10 -7 -38.5 8t-39.5 27q-29 20 -64.5 60.5t-48 62.5t-17 31.5t-7.5 15.5 q-5 14 -14 13.5t-20 14.5t-16 35q1 9 6.5 15t13.5 5q1 7 83.5 87t114.5 103q8 11 16 19q12 5 22 14q17 8 24 25q3 1 18 12l58 37q8 0 20 -9t17 -18.5t5 -12.5zM268 585q0 7 20 44t27 37q21 1 35.5 -15.5t2.5 -32.5q-4 -7 -17 -39q-36 -85 -44 -102q-27 -60 -37 -97 q-10 -15 -19 -42q-14 -48 -21 -55q-4 -9 -10 -22q0 -26 -8 -36l-10 -25q0 -7 -6.5 -26t-26 -90t-27 -87.5t-20 -16t-21.5 13.5t-11 28q3 5 6 19.5t6 16.5q0 3 5.5 25.5t7.5 38.5q5 11 12 33t10 28t7.5 20t7.5 19q22 67 25 91q10 18 12 28.5t5.5 17.5l7.5 15q11 24 15 45 q14 36 30 72q19 42 36 94z" />
<glyph unicode="&#xf0241;" horiz-adv-x="426" d="M127 147l5 25q0 17 5 17t5 4t2 10q6 18 8 26q5 9 14 35q24 73 31.5 92t8.5 24q14 24 14 36q7 20 57.5 118t70 123t36.5 25q8 -3 21 -16.5t13.5 -19.5t-17 -31.5t-33.5 -42.5l-4 -10q-43 -74 -46 -93q-10 -12 -37 -74t-28 -63q0 -12 -3 -16.5t-8 -19.5q-13 -42 -25 -65 q-16 -65 -32 -81q-5 -12 -3.5 -12h3.5q5 5 5 1.5t-5 -11.5q-10 -26 -9 -55t9 -40t33 -10q56 2 110 16q71 23 92 -3q8 -12 8 -24q-6 -9 -72 -26t-104.5 -19.5t-44 -2t-38.5 10.5q-11 7 -38 29l-5 11q-6 0 -8 29t0.5 61.5t8.5 41.5z" />
<glyph unicode="&#xf0242;" horiz-adv-x="426" d="M185 127q-7 0 -7 -19t1 -29.5t1.5 -17.5t1.5 -15q8 -11 21.5 -13.5t47.5 0.5q8 -1 28 1t29 0q29 0 65 6q31 3 37 2.5t14 -8.5q11 -17 7.5 -23t-23.5 -12q-136 -35 -197 -30q-59 9 -80 67q-10 20 -10 28t-0.5 13.5t0.5 10.5q3 18 7 28q7 74 31 142q32 112 98 228 q78 140 118 154q11 4 19 2t8 -10q-3 -8 2 -9q15 -2 -1 -28.5t-34 -36.5q0 -10 -15 -21l-12 -28q-8 -11 -15 -27q-20 -25 -20 -33q-22 -42 -22 -47l-7 -5q0 -24 -23 -56q-9 -20 -19.5 -52.5t-13 -37t-3.5 -11.5q-12 -12 -16 -62z" />
<glyph unicode="&#xf0243;" horiz-adv-x="720" d="M417 584q-25 -89 -25 -107.5t-7 -18.5q-4 -6 -4 -10q6 -11 -2 -58q-3 -50 0.5 -104t11.5 -58q12 0 40 52q8 13 19.5 31t15 23.5t10 16t12.5 18.5t14 19t22 29q29 49 54 71q8 2 15 17q-6 9 22 47q7 9 19 26.5t29 40.5t34 27t32.5 -9t22 -24t6.5 -18.5t-5 -9.5q-5 -1 1 -6 q-2 -11 -5 -31q-3 -8 -8 -36.5t-8 -41.5t-11 -59q-3 -7 -10 -51q-26 -201 -28 -216t-2.5 -67t5.5 -84q1 -37 1 -38q-9 -11 -16.5 -12.5t-18.5 3t-15 6.5q-28 12 -6 246q10 29 1 45q0 19 5 24q0 32 2 40q11 19 9 44q10 38 9.5 40t-0.5 13t-2 15q8 24 18 100q-35 -41 -75 -98 q-21 -34 -48 -73q-56 -79 -66 -104t-44 -76q-15 -34 -43.5 -39.5t-43.5 24t-21 104.5q-6 22 -9 51.5t-4 32.5l2 76q-12 -14 -23 -28q-2 -27 -8.5 -36t-12 -23.5t-13.5 -36.5t-15 -38q-20 -69 -35.5 -103t-21.5 -49t-12 -32q-14 -40 -18 -44q-20 -41 -29 -59.5t-18 -22.5 t-30 11q-19 10 -18.5 24.5t18.5 42.5q6 19 26.5 54.5t25.5 44.5q0 2 38 107q14 34 28 73q32 86 33 88q7 21 23 57q13 17 10 26l6 5q3 0 4 5t3 7q7 41 16 43q3 0 4.5 6t3.5 9q-1 7 0.5 13.5t1.5 7.5l16 19q6 21 14 33l19 38q17 28 54 -8q20 -17 12 -27q-5 0 -5 -6 q3 -17 -2 -34z" />
<glyph unicode="&#xf0244;" horiz-adv-x="720" d="M465 610q0 -33 -18 -92q-1 -22 -10.5 -79t-11.5 -80q-4 -42 -18 -89q5 -12 5 -24v-22l38 41q48 73 48.5 76t5.5 11.5t7 14.5q18 11 16 29q141 203 171 228q35 26 63 -4q13 -15 15 -26.5t-5 -31.5t-18 -52q-21 -61 -19 -76q-6 -15 -9 -43q-2 -4 -3 -11q-4 -14 -9 -18 q5 -30 3 -40q-42 -264 -2 -274q4 1 4.5 -4t-3.5 -24q2 -24 -7.5 -35.5t-15 -12t-31.5 5.5q-7 8 -20 26q-16 43 -11 123q-4 28 8 119.5t25 141.5q4 67 8 90t4 25q-2 6 -22.5 -24.5t-34.5 -54.5t-28 -43.5t-19 -29.5t-15 -32t-22 -45q-60 -93 -83 -117.5t-48 -18.5t-35.5 22.5 t-12 47.5t-1.5 87q3 6 2 20t0 16q3 14 5.5 23.5t5.5 29.5t5.5 61t-1.5 47q1 -2 -12 -24q-22 -30 -38 -63q-16 -35 -70 -147q-6 -46 -45 -119q-32 -82 -45 -99q-14 -37 -23 -43.5t-30 6.5q-31 27 -13 58q13 15 29.5 51.5t15.5 42.5t23 41q-2 12 21 57.5t22 53.5q1 1 5 10 t9 12q1 5 7.5 21t7.5 23q9 20 13.5 25.5t9 13.5t7.5 11q6 19 35.5 65t36.5 60t17 28.5t17 26.5t15 26q19 30 25 30q9 2 31.5 -17.5t22.5 -31.5z" />
<glyph unicode="&#xf0245;" horiz-adv-x="566" d="M348.5 199.5q-7.5 43.5 -7.5 91.5t-1 57.5t-4 30.5q-7 65 -9 113q-11 -23 -36.5 -109.5t-44.5 -117.5q-8 -61 -21 -80q-5 -15 -11.5 -48t-8.5 -39q0 -9 -26 -94q-7 -19 -22.5 -19t-25.5 22q-11 12 -10.5 35.5t9.5 40t13 54.5q11 42 62 196t69 199q15 30 14 43q5 28 18 41 q10 13 13.5 14.5t9 -1t12.5 -4t9.5 -2.5t7.5 -5q8 -6 16 -28q22 -35 17 -70q1 -13 8.5 -79t5.5 -95q0 -41 10.5 -121.5t20.5 -87.5q3 -2 6 1q11 9 26 60q3 9 18.5 39t21.5 58q4 10 57 167q9 37 35 80q31 64 32 70q0 7 10 14q17 10 20 24q14 10 25 5q8 -8 7.5 -14t-12.5 -37 q-6 -39 -19 -58q-3 -6 -8.5 -23t-9.5 -25q-9 -43 -9 -44q-10 -15 -22 -35q-19 -51 -34 -101t-27 -81q-4 -34 -19 -62q0 -11 -22 -54t-31 -57t-15.5 -19t-25 -7t-28.5 6.5t-25 39.5t-23 51.5t-15.5 64z" />
<glyph unicode="&#xf0246;" horiz-adv-x="566" d="M680 570q0 -16 -9 -32q6 0 0 -24l-25 -93q-6 -25 -45.5 -113.5t-51.5 -106.5q-14 -28 -15 -29q-8 -24 -34 -62t-39 -45q-20 -21 -46.5 -3.5t-34.5 59.5q0 4 -12.5 93.5t-11.5 111.5q-3 14 -1.5 36t0.5 33.5t2 35t3 36.5q4 55 -47 -41q-5 -16 -19 -39.5t-13 -25.5 l-75 -176q-14 -28 -32.5 -103.5t-18.5 -77t-12 -43.5q-12 -9 -14.5 -11.5t-6.5 -1.5t-12 16q-10 6 -12 12q-3 8 -5 22q1 20 28 108q20 67 69 196l66 134q-3 5 26.5 63.5t50.5 93t29 42t18 2.5q13 3 33 -2.5t21 -14.5q4 -8 -3 -45q-13 -93 -13 -150.5t10 -171.5l21 -112 q32 59 92 200q12 13 27.5 58t25.5 80t18 42q-1 8 8 45t12 47q6 5 13 21l28 8q18 -14 19.5 -27.5t-12.5 -44.5z" />
<glyph unicode="&#xf0247;" horiz-adv-x="496" d="M448 571l-21 -8q-16 -9 -16 -18.5t-7.5 -15.5t-15.5 -1q-24 0 -37 -19q-5 -7 -11.5 -18.5t-9.5 -16.5q-46 -36 -54 -75q-33 -59 -42 -79.5t-13 -54.5q-7 -13 -13 -36t-8.5 -29.5t-2.5 -54t6 -57.5q13 -49 101 -8q30 10 67.5 40.5t43 49t18 30t41 74t29.5 85t11 39.5 q4 8 7 101q-3 69 -14 76q-4 3 -26.5 1.5t-32.5 -5.5zM538 265q1 -9 -26 -62.5t-31 -54.5l-3 -5q1 -3 -15.5 -18t-23.5 -15q-4 -1 0 -5q3 -3 -23.5 -23t-43.5 -32q-42 -27 -65 -33q-3 -4 -14 -6q-10 -10 -34 -11.5t-40 6.5q-109 39 -82 193q2 22 10.5 54.5t9.5 38.5t3 11.5 t1 8.5q23 63 32 72q5 2 5 8v1q-1 20 56.5 100t68.5 81q2 0 5 4.5t4 4.5q7 9 45.5 27t66.5 24q65 23 98.5 -19.5t35.5 -145.5q-3 -16 -4 -40q-5 -68 -17 -109z" />
<glyph unicode="&#xf0248;" horiz-adv-x="496" d="M331 471q-11 0 -13 -21q-28 -16 -35 -30q-27 -42 -70 -150t-47 -146q-8 -21 -6 -40.5t11 -21.5q7 -8 22 -14.5t26 -7.5q100 0 172 84l17 29q6 1 7 10t7 15l25 19q0 5 8 27.5t12 25.5t17.5 46.5t14.5 66.5l12 16q3 2 3 19l4 26q6 7 4 9q-13 8 0 11q4 9 -2 55.5t-13 61.5 q-18 25 -60 12q-28 -7 -44.5 -19.5t-50.5 -47.5q-4 -14 -11 -24.5t-10 -10.5zM516 626q0 -6 4 -6h2q8 1 24 -23.5t28 -53.5q17 -27 11 -108q-11 -80 -32 -131l-17 -48q-21 -59 -60 -122t-62 -64q-3 -1 -3 -6q0 -3 -30 -28.5t-47 -37.5q-104 -37 -176 12q-30 20 -39 40 q-41 71 -8 133q5 23 5 46l7 9l16 24q6 0 7 4t0 22q-2 2 -0.5 7t1.5 6q11 11 11 15l11 7q6 -2 8 0.5t2.5 5t6.5 18t15 37.5t12 30q104 191 192 229q7 2 36 4q19 -1 46 -9t29 -12z" />
<glyph unicode="&#xf0249;" horiz-adv-x="472" d="M522 527.5q7 44.5 -4 60t-36 20.5q-46 8 -93 -19q-16 -7 -76 -142.5t-55 -152.5q51 -1 86 16q69 33 149 142q22 31 29 75.5zM274 514q0 7 13 25q0 18 11 26q6 25 2 28q-9 26 16 27q6 0 11 10.5t8 12.5t9 3.5t11.5 2.5l16.5 3l74 13q40 0 72 -7q34 -16 54 -41.5t23 -50.5 t-17.5 -85t-38.5 -74q10 1 -14 -23t-33 -27q-10 -23 -27 -32q-38 -24 -47 -38q0 11 -18 -4q-6 -5 -8 -6q-45 -27 -87 -35q-7 -6 -36 -6l-34 5l-21 -57q-11 -37 -31.5 -98.5t-33.5 -104.5q-7 -37 -17 -39q-5 -1 -8.5 1t-15.5 5q-25 6 -25 21q-3 5 11 55t14 51q7 -2 9.5 5 t2.5 18q-2 9 11 31q0 7 8 51q22 73 53 135q0 3 6.5 20.5t9.5 21.5q2 15 11 38.5t18 31.5q0 11 17 49t20 38z" />
<glyph unicode="&#xf024a;" horiz-adv-x="498" d="M423 574l-60 7q-11 -3 -15 -8t-17 -30q-2 -13 -8 -26t-10 -15q-1 -4 -43 -121t-42 -121.5t5 -8.5q14 -11 17 -4q15 -5 35 -17l30 10q47 28 94 70t67 73q6 4 15.5 19.5t12 18t6 7t4.5 6.5t2 5q2 5 -2 12q0 22 7 31q8 31 1.5 42t-33.5 23q-6 6 -33.5 15.5t-32.5 11.5z M486 -18q-5 0 -27 15q-61 20 -136 114q-32 32 -43.5 39t-28.5 4q-23 0 -34 11q-2 9 -11 10.5t-9 -3.5q-1 -1 -14 -40.5t-18 -48.5q2 -13 -19 -89q-3 -21 -7 -20q-1 0 -1 3q-8 5 -11 0q0 -6 -7.5 1.5t-11.5 10.5q-13 13 -12 46q16 73 49 161l12 51q0 1 3 3q7 6 10 12 q6 3 1 22q0 17 69 209q12 16 24 46q8 10 7 13t-15 12q-22 36 -6 54q7 10 30 28q26 14 34.5 16.5t29.5 -0.5q64 -3 72 -13.5t24 -10.5q24 -3 57.5 -19t38.5 -23q39 -32 45 -110q0 -38 -5 -56.5t-28 -49.5q-61 -102 -197 -181l-7 -13q0 -16 59.5 -71.5t78.5 -63.5q4 -2 15.5 1 t18.5 0.5t7 -17.5q3 -18 -23 -37q-9 -16 -14 -16z" />
<glyph unicode="&#xf024b;" horiz-adv-x="498" d="M431 561q-31 15 -61 10.5t-28 -11.5q0 -1 1 -2q12 -54 2 -70q0 -9 -17 -48.5t-39.5 -91.5t-22.5 -59q7 -23 40 2q41 15 71 36l21 18q11 2 41 31.5t41.5 53.5t14 32.5t2.5 30.5q-9 27 -22 41.5t-44 26.5zM100 51l5 19q0 3 7 16.5t9.5 20t5.5 16t4 12t5 9.5q13 22 20.5 52 t7.5 40v14q8 0 8 3l5 5q0 9 9 15q12 14 12 22q16 48 55 138q12 20 27 55t18 38q8 19 8 31h-3q-9 -5 -13.5 -1.5t-16.5 15.5q-15 18 -15 28q0 5 25.5 20t43.5 20q27 14 100 -3q32 -7 63.5 -34t45.5 -54.5t15 -62t-10 -68t-54.5 -86.5t-57.5 -53h-9q0 -5 -35.5 -24 t-46.5 -19.5t-16 -9.5t-5.5 -15.5t1.5 -23.5q6 -17 30 -53t27 -36q12 0 25 -17q41 -27 52 -20q1 1 1 4t13 4t26 -3l2 -20q0 -20 -10 -37t-27 -18q-51 -6 -107 44.5t-89 131.5q-7 23 -10.5 26.5t-17 2.5t-17 -4t-11.5 -23q-2 -21 -7 -21q-8 -18 -17 -37q-2 -9 -6.5 -22.5 t-4.5 -15.5q0 -19 -7 -19l-3 -18q0 -25 -6 -33q-9 -13 -9 -19t-12 -12.5t-24 -3.5q-9 0 -9 11q0 5 -2 5q-8 0 -9 15t4 18.5t5 16.5z" />
<glyph unicode="&#xf024c;" horiz-adv-x="486" d="M177 140q8 -17 6 -35q2 -3 5.5 -9t5 -8.5t4.5 -7t6 -6.5q5 -5 17.5 -13.5t17.5 -12.5q14 -9 39 -9.5t36.5 8.5t31.5 37q4 28 -21 106q-21 69 -80 207q3 19 -2 35q-6 5 -7 27.5t-2 29.5q2 37 6.5 45.5t10.5 16.5q61 90 178 109q21 5 62.5 2t54.5 -12q40 -20 62 -58 q7 -16 7 -21.5t-9 -20.5q-12 -13 -44 -31t-57 -22q-12 -5 -12 0v12q-15 0 -1 19q4 5 23 26.5t23 28t0 11.5q-9 6 -42.5 7.5t-56.5 -3.5q-52 -15 -89 -44q-66 -50 -42 -126q3 -40 6 -52q6 -25 6 -41q7 -21 37 -44q2 -17 7.5 -38.5t6.5 -28.5q19 -38 30 -81q21 -78 8 -91 q-2 0 -2 -3t2 -3q0 -10 -21 -31.5t-38 -35.5q-63 -15 -125.5 17t-81.5 91q-10 24 -5 29q10 0 3 8t-3 24t11 16q15 0 23.5 -10.5t4.5 -13.5z" />
<glyph unicode="&#xf024d;" horiz-adv-x="486" d="M411 298v-5q2 0 16 -27t14 -32q3 -8 9 -21q5 -5 10 -42t5 -57q-2 -58 -102 -126q-40 -27 -69 -34q-31 -12 -87 -14t-66 9q-9 4 -21 16q-43 27 -45 81q0 12 20.5 28.5t40.5 2.5q-13 -32 -7.5 -48t36.5 -23t75 1q55 4 65 13q66 27 83 62q3 4 5 7.5t4 6t2.5 6t1.5 5t1 6.5 v25q-1 32 -5 44.5t-26 58.5q0 5 -44 56q-26 54 -42 65q-3 4 -8 17t-8 17t-7 14q-14 30 -3 73t44 81q11 19 40.5 46.5t37.5 29t21 10.5q3 1 22 8t30 7q27 9 36 10t37 -2q50 -13 62 -52l7 -43l-42 -31q-24 -9 -63 -1q-8 0 -5 6t8 6q2 1 9.5 9.5t14.5 15.5q11 19 5 23.5 t-40 0.5q-79 -4 -121 -66q-48 -41 -48 -85q5 -24 17 -46q22 -32 44 -61q36 -47 36 -51z" />
<glyph unicode="&#xf024e;" horiz-adv-x="720" d="M441 230l2 18q0 3 -4.5 3t-12.5 -5q0 -10 -5 -16q0 -4 -7 -16q-24 -39 -33 -63q-85 -112 -106 -129q-17 -12 -39 2.5t-26 28.5q0 6 -3 26q-5 35 2 61q-1 33 43.5 259t52.5 237q9 7 26.5 3t26.5 -17q22 -24 -23 -167q-6 -23 -15 -59t-15 -59.5t-14 -57.5t-11.5 -53 t-8 -46.5t-3 -37.5t3.5 -27q26 8 59 65q33 54 69.5 125t52.5 102q19 31 38 72t21 45q21 21 43 -4q10 -12 8.5 -21.5t-5 -26t-5.5 -33.5q-37 -130 -41 -178t-7 -79.5t-3 -33t-1 -9.5t-2 -17q-1 -25 3 -44q-4 -13 3 -18.5t10 1.5q9 2 20 23q26 46 44 75q13 16 32 54.5t25 43.5 q3 12 19 49.5t22 66.5q37 71 44 112q1 1 13.5 36t20.5 43q0 31 11 38q12 5 26 3t15 -13l11 -29q-17 -57 -30 -80q-7 -30 -14 -43.5t-7 -15.5q-6 0 -6 -21q-3 -7 -10 -21.5t-9 -21.5q-6 -5 -6 -36q-10 -4 -24 -41q-19 -38 -23 -43q-26 -55 -74 -139t-63 -90q-4 1 -11.5 -2.5 t-7.5 -8.5q-1 -4 -18 -16q-21 -4 -40 5l-17 7q-7 0 -17.5 22.5t-10.5 29.5l9 25q-9 18 -9 35q3 10 5 31q3 52 9 59q2 11 -3 32z" />
<glyph unicode="&#xf024f;" horiz-adv-x="522" d="M373 564l-38 -2q-80 -17 -99.5 -17t-35.5 19q-7 11 -7 30q3 1 8.5 6.5t8.5 5.5q34 0 64 10q17 3 52.5 6t57.5 7q48 0 48 3h96q76 0 103 -10q17 -12 22 -22.5t5 -29.5q-3 -18 -14.5 -35t-19.5 -17q-3 0 -48.5 -35.5t-58.5 -48.5q-19 -7 -38 -26q-123 -105 -205 -200 q-42 -42 -46 -44q-6 -12 -10 -19q-12 -20 -23 -33q-20 -22 -20 -28.5t25 0.5l46 9q26 0 92 7t100 16q38 5 53 1.5t18 -16.5l5 -21q-4 -4 -121 -24t-132 -20l-15 -4q-10 -7 -17 -7t-44 -12q-34 -9 -42 -9t-13.5 -2t-15 -6t-26.5 -9t-23 -5t-15 8q-26 33 -14 46l8 13 q5 0 45.5 39t54.5 56q26 33 60 67q171 197 324 315q32 24 54 49q-3 6 -95 0t-114 -11z" />
<glyph unicode="&#xf0250;" horiz-adv-x="522" d="M342 629q33 0 217 -7q10 -2 28 -5t25 -5q12 -4 20.5 -12.5t8.5 -14.5v-15q4 -2 -4 -7t-14.5 -8t-26.5 -16t-80 -59.5t-90 -78.5q-17 -24 -31 -29.5t-16 -5.5q0 -2 -3 -8q-13 -19 -17 -36q-3 -3 -15 -12q-29 -22 -36 -42q-7 -12 -17.5 -21t-58.5 -74t-54 -78q-8 -12 1 -12 q9 1 38 12q67 29 220 22q78 0 100 -6.5t22 -26.5q0 -39 -24 -24q-21 6 -89 5.5t-138 -7.5q-32 -8 -88 -28.5t-84 -36.5q-30 -13 -46 2q-26 25 -10 41q12 24 19 39.5t49 77.5t48 79q30 19 32 22.5t16 21.5q33 44 94 105q20 36 62 83q54 58 96 84q24 15 24 18.5t-94 3.5 t-112.5 -2.5t-55.5 -17.5q-60 -15 -65 -10h-6q0 -4 -5 0t-6 10q-28 29 31 51q10 1 27 6.5t24 6.5q9 7 84 15z" />
</font>
</defs>
</svg>
